<svg width="99" height="26" viewBox="0 0 99 26" fill="none" xmlns="http://www.w3.org/2000/svg">
<g clip-path="url(#clip0_4_318)">
<path d="M10.8639 0.00939941H0V25.9906L10.8639 0.00939941Z" fill="#FA0C00"/>
<path d="M18.5076 0.00939941H29.3573V25.9906L18.5076 0.00939941Z" fill="#FA0C00"/>
<path d="M14.6857 9.58514L21.6004 25.9906H17.0637L14.9971 20.7675H9.93677L14.6857 9.58514Z" fill="#FA0C00"/>
<path d="M47.0807 16.5318L48.3617 20.205C48.4042 20.297 48.4679 20.3395 48.5811 20.3395H51.0441C51.1785 20.3395 51.1998 20.2758 51.1785 20.1413L46.0899 6.0077C46.0686 5.89446 46.0474 5.87323 45.9342 5.87323H42.8767C42.7918 5.87323 42.7422 5.93693 42.7422 6.02893C42.6998 6.77206 42.6361 6.99854 42.5441 7.21794L38.0074 20.1201C37.9862 20.2758 38.0358 20.3395 38.1631 20.3395H40.3642C40.4987 20.3395 40.5624 20.297 40.6119 20.1625L41.8222 16.5318H47.0807ZM42.5228 14.1326C43.1881 12.1226 44.0657 9.54642 44.4196 8.07431H44.4408C44.8796 9.61719 45.9129 12.6746 46.38 14.1326H42.5228Z" fill="#FA0C00"/>
<path d="M57.7203 20.5589C59.0438 20.5589 60.4522 20.3182 61.8818 19.7025C61.9951 19.66 62.0163 19.6105 62.0163 19.5043C61.9738 19.108 61.9243 18.5347 61.9243 18.0959V4.79036C61.9243 4.70543 61.9243 4.66296 61.8181 4.66296H59.4189C59.3269 4.66296 59.2844 4.70543 59.2844 4.81867V9.32699C58.9093 9.28452 58.6474 9.26329 58.336 9.26329C54.4647 9.26329 52.0867 11.8182 52.0867 15.0102C52.0867 18.7117 54.5284 20.5589 57.7203 20.5589ZM59.2844 18.0959C58.8881 18.2233 58.4493 18.2729 58.0034 18.2729C56.2482 18.2729 54.8115 17.282 54.8115 14.8757C54.8115 12.7454 56.2907 11.4856 58.2511 11.4856C58.6474 11.4856 58.9942 11.5281 59.2844 11.6413V18.0959Z" fill="#FA0C00"/>
<path d="M69.6704 9.26331C66.3652 9.26331 64.3198 11.797 64.3198 14.9252C64.3198 17.7208 65.9476 20.5589 69.6208 20.5589C72.7278 20.5589 74.9077 18.2729 74.9077 14.8545C74.9077 11.8395 73.0604 9.26331 69.6704 9.26331ZM69.5359 11.4856C71.4043 11.4856 72.197 13.0922 72.197 14.9252C72.197 17.19 71.0292 18.3153 69.6704 18.3153C67.993 18.3153 67.0022 16.9069 67.0022 14.8757C67.0022 12.7879 68.0567 11.4856 69.5359 11.4856Z" fill="#FA0C00"/>
<path d="M77.3884 4.66296C77.2964 4.66296 77.2327 4.70543 77.2327 4.81867V19.8794C77.2327 19.9431 77.2964 20.0564 77.3884 20.0776C78.4429 20.4032 79.547 20.5589 80.6865 20.5589C83.9491 20.5589 87.1198 18.5347 87.1198 14.4581C87.1198 11.5068 85.0957 9.26329 81.925 9.26329C81.196 9.26329 80.5166 9.37653 79.9221 9.5747L79.8938 4.8399C79.8938 4.6842 79.8513 4.66296 79.6956 4.66296H77.3884ZM84.4092 14.7271C84.4092 17.1688 82.7389 18.3153 80.9342 18.3153C80.5591 18.3153 80.2264 18.2941 79.9221 18.2021V11.7758C80.2689 11.6413 80.6865 11.5281 81.4579 11.5281C83.1989 11.5281 84.4092 12.6321 84.4092 14.7271Z" fill="#FA0C00"/>
<path d="M96.0737 15.5198C97.1495 15.5198 98.0342 15.4985 98.3385 15.4277C98.4517 15.4065 98.4942 15.364 98.5154 15.272C98.5792 15.0314 98.6075 14.5289 98.6075 13.9132C98.6075 11.8183 97.3477 9.26331 94.0921 9.26331C90.7657 9.26331 88.9185 11.974 88.9185 15.0314C88.9185 17.7421 90.3481 20.5589 94.3539 20.5589C95.8543 20.5589 96.8239 20.3182 97.6591 19.9219C97.744 19.8794 97.7865 19.8087 97.7865 19.6813V17.8482C97.7865 17.7421 97.7228 17.7208 97.6591 17.7633C96.8239 18.1172 95.918 18.2941 94.9272 18.2941C92.6836 18.2941 91.6645 17.0556 91.6008 15.5198H96.0737ZM91.6008 13.623C91.7777 12.5472 92.4572 11.3795 93.9788 11.3795C95.6562 11.3795 96.095 12.7879 96.095 13.4248C96.095 13.4461 96.095 13.5381 96.095 13.6018C96.003 13.623 95.7199 13.623 94.8847 13.623H91.6008Z" fill="#FA0C00"/>
</g>
<defs>
<clipPath id="clip0_4_318">
<rect width="98.6074" height="26" fill="white"/>
</clipPath>
</defs>
</svg>
