<svg width="94" height="28" viewBox="0 0 94 28" fill="none" xmlns="http://www.w3.org/2000/svg">
<g clip-path="url(#clip0_4_384)">
<path fill-rule="evenodd" clip-rule="evenodd" d="M57.7098 21.8969C52.3041 25.8766 44.4688 28 37.7228 28C28.2637 28 19.7482 24.5056 13.3058 18.6936C12.7997 18.2366 13.2532 17.6138 13.8606 17.9697C20.8131 22.0101 29.4097 24.4409 38.2897 24.4409C44.2785 24.4409 50.8666 23.2032 56.9243 20.635C57.8394 20.2467 58.6047 21.2336 57.7098 21.8969Z" fill="#FF9900"/>
<path fill-rule="evenodd" clip-rule="evenodd" d="M59.9571 19.3286C59.2687 18.4469 55.3896 18.9121 53.6484 19.1183C53.1179 19.183 53.037 18.722 53.5148 18.3903C56.6043 16.2184 61.674 16.8453 62.2652 17.5733C62.8564 18.3054 62.1113 23.3812 59.208 25.8039C58.7626 26.176 58.3374 25.9778 58.5358 25.4844C59.1878 23.8585 60.6495 20.2144 59.9571 19.3286Z" fill="#FF9900"/>
<path fill-rule="evenodd" clip-rule="evenodd" d="M53.77 3.05763V0.946408C53.77 0.626894 54.0129 0.412537 54.3045 0.412537H63.7676C64.0713 0.412537 64.3142 0.630939 64.3142 0.946408V2.75429C64.3102 3.05763 64.0551 3.45399 63.6016 4.08088L58.6979 11.0738C60.5201 11.0293 62.4435 11.3003 64.0956 12.2305C64.4681 12.4408 64.5693 12.7482 64.5977 13.0516V15.3043C64.5977 15.6117 64.2575 15.9717 63.9012 15.7856C60.9898 14.2609 57.1228 14.095 53.9036 15.8018C53.5756 15.9798 53.2314 15.6238 53.2314 15.3165V13.1769C53.2314 12.8332 53.2355 12.2467 53.5797 11.725L59.2608 3.58746H54.3166C54.0129 3.58746 53.77 3.3731 53.77 3.05763Z" fill="black"/>
<path fill-rule="evenodd" clip-rule="evenodd" d="M19.2502 16.2306H16.3712C16.0958 16.2103 15.8772 16.0041 15.8569 15.7412V0.982857C15.8569 0.68761 16.1039 0.453028 16.4117 0.453028H19.0963C19.3757 0.465153 19.5984 0.679518 19.6187 0.946454V2.87568H19.6713C20.3718 1.01117 21.6878 0.141602 23.4614 0.141602C25.2633 0.141602 26.389 1.01117 27.1989 2.87568C27.8953 1.01117 29.4786 0.141602 31.1752 0.141602C32.3819 0.141602 33.7019 0.639073 34.5077 1.75535C35.4188 2.99701 35.2326 4.80085 35.2326 6.38224L35.2285 15.6967C35.2285 15.9919 34.9815 16.2306 34.6738 16.2306H31.7988C31.5113 16.2103 31.2805 15.9798 31.2805 15.6967V7.87466C31.2805 7.25181 31.3372 5.69873 31.1995 5.10823C30.9849 4.11733 30.3411 3.83826 29.5069 3.83826C28.8105 3.83826 28.0816 4.30338 27.786 5.04756C27.4904 5.79175 27.5188 7.03745 27.5188 7.87466V15.6967C27.5188 15.9919 27.2718 16.2306 26.964 16.2306H24.089C23.7975 16.2103 23.5707 15.9798 23.5707 15.6967L23.5667 7.87466C23.5667 6.22855 23.838 3.80591 21.7931 3.80591C19.724 3.80591 19.8049 6.16788 19.8049 7.87466V15.6967C19.8049 15.9919 19.5579 16.2306 19.2502 16.2306Z" fill="black"/>
<path fill-rule="evenodd" clip-rule="evenodd" d="M72.4612 0.141602C76.7332 0.141602 79.0453 3.80591 79.0453 8.46515C79.0453 12.9667 76.4902 16.5379 72.4612 16.5379C68.2662 16.5379 65.9824 12.8736 65.9824 8.30742C65.9824 3.71288 68.2945 0.141602 72.4612 0.141602ZM72.4855 3.15475C70.3637 3.15475 70.2301 6.0425 70.2301 7.8423C70.2301 9.64614 70.2017 13.4965 72.4612 13.4965C74.6923 13.4965 74.7976 10.3903 74.7976 8.49751C74.7976 7.25181 74.745 5.76344 74.3684 4.58245C74.0445 3.55515 73.4006 3.15475 72.4855 3.15475Z" fill="black"/>
<path fill-rule="evenodd" clip-rule="evenodd" d="M84.5845 16.2306H81.7177C81.4302 16.2103 81.1994 15.9798 81.1994 15.6967L81.1953 0.934321C81.2196 0.66334 81.4585 0.453028 81.7501 0.453028H84.4185C84.6696 0.465153 84.8761 0.63503 84.9328 0.865566V3.12239H84.9854C85.7912 1.10419 86.9209 0.141602 88.9091 0.141602C90.2008 0.141602 91.4601 0.606718 92.27 1.88073C93.0231 3.06172 93.0231 5.04756 93.0231 6.47527V15.7655C92.9908 16.0243 92.7518 16.2306 92.4684 16.2306H89.5813C89.3181 16.2103 89.0994 16.0162 89.0711 15.7655V7.74928C89.0711 6.13553 89.2574 3.77355 87.2692 3.77355C86.5687 3.77355 85.9248 4.24271 85.6049 4.95454C85.2 5.85646 85.1474 6.75434 85.1474 7.74928V15.6967C85.1433 15.9919 84.8923 16.2306 84.5845 16.2306Z" fill="black"/>
<path fill-rule="evenodd" clip-rule="evenodd" d="M46.2261 9.18099C46.2261 10.3013 46.2544 11.2356 45.6875 12.2305C45.23 13.0394 44.5011 13.5369 43.6953 13.5369C42.5899 13.5369 41.942 12.6956 41.942 11.454C41.942 9.00303 44.1407 8.55813 46.2261 8.55813V9.18099ZM49.1294 16.1901C48.9391 16.3599 48.6637 16.3721 48.4491 16.2588C47.4935 15.4661 47.3194 15.0981 46.797 14.3418C45.2178 15.9515 44.0962 16.4327 42.0513 16.4327C39.6258 16.4327 37.7429 14.9403 37.7429 11.9515C37.7429 9.61779 39.0063 8.02831 40.8122 7.25177C42.3753 6.5642 44.5578 6.44287 46.2261 6.25278V5.88069C46.2261 5.19716 46.2787 4.38827 45.8738 3.79778C45.5256 3.26795 44.8534 3.04954 44.2582 3.04954C43.1608 3.04954 42.1849 3.61173 41.946 4.77654C41.8974 5.03539 41.7071 5.29019 41.4439 5.30232L38.654 5.00303C38.4191 4.95045 38.1559 4.76036 38.2248 4.4004C38.8646 1.01921 41.9258 0 44.6631 0C46.0641 0 47.8944 0.372093 48.9998 1.43175C50.4009 2.73812 50.2672 4.48129 50.2672 6.37816V10.8594C50.2672 12.2063 50.826 12.7968 51.3524 13.5248C51.5346 13.7836 51.5751 14.095 51.3403 14.2892C50.7531 14.7786 49.7084 15.6886 49.1334 16.1982L49.1294 16.1901Z" fill="black"/>
<path fill-rule="evenodd" clip-rule="evenodd" d="M8.48316 9.18099C8.48316 10.3013 8.51151 11.2356 7.94461 12.2305C7.48705 13.0394 6.76223 13.5369 5.95239 13.5369C4.84694 13.5369 4.20311 12.6956 4.20311 11.454C4.20311 9.00303 6.40185 8.55813 8.48316 8.55813V9.18099ZM11.3865 16.1901C11.1962 16.3599 10.9208 16.3721 10.7062 16.2588C9.75058 15.4661 9.58051 15.0981 9.0541 14.3418C7.4749 15.9515 6.35731 16.4327 4.30839 16.4327C1.88694 16.4327 0 14.9403 0 11.9515C0 9.61779 1.26741 8.02831 3.06932 7.25177C4.63233 6.5642 6.81487 6.44287 8.48316 6.25278V5.88069C8.48316 5.19716 8.5358 4.38827 8.13493 3.79778C7.78264 3.26795 7.11047 3.04954 6.51928 3.04954C5.42194 3.04954 4.44202 3.61173 4.20311 4.77654C4.15452 5.03539 3.96421 5.29019 3.70506 5.30232L0.91108 5.00303C0.676223 4.95045 0.417071 4.76036 0.481859 4.4004C1.12569 1.01921 4.18287 0 6.92016 0C8.32119 0 10.1514 0.372093 11.2569 1.43175C12.6579 2.73812 12.5243 4.48129 12.5243 6.37816V10.8594C12.5243 12.2063 13.0831 12.7968 13.6095 13.5248C13.7958 13.7836 13.8363 14.095 13.6014 14.2892C13.0143 14.7786 11.9696 15.6886 11.3946 16.1982L11.3865 16.1901Z" fill="black"/>
</g>
<defs>
<clipPath id="clip0_4_384">
<rect width="93.0233" height="28" fill="white"/>
</clipPath>
</defs>
</svg>
