<svg width="152" height="22" viewBox="0 0 152 22" fill="none" xmlns="http://www.w3.org/2000/svg">
<g clip-path="url(#clip0_4_339)">
<path d="M19.3375 21.1274V0H24.1498V21.1274H19.3375ZM112.885 13.234C112.885 8.12819 108.924 4.95907 104.287 4.95907C99.6216 4.95907 95.6896 8.15753 95.6896 13.234C95.6896 18.3398 99.651 21.5382 104.287 21.5382C108.924 21.5382 112.885 18.3104 112.885 13.234ZM108.131 13.234C108.131 15.9042 106.341 17.4008 104.258 17.4008C102.175 17.4008 100.385 15.9042 100.385 13.234C100.385 10.5344 102.175 9.09653 104.258 9.09653C106.341 9.09653 108.131 10.5344 108.131 13.234ZM17.4008 15.0533C17.4008 12.6764 16.1683 10.8571 13.9676 10.0355C16.051 8.89112 16.7846 7.3946 16.7846 5.63398C16.7846 2.5529 14.5544 0 9.56602 0.0293436H0V21.1568H9.97684C14.9946 21.1274 17.4008 18.6332 17.4008 15.0533ZM11.6788 6.25019C11.6788 7.68803 10.7691 8.50965 9.0085 8.50965H5.01776V4.10811H9.0085C10.6224 4.10811 11.6788 4.81236 11.6788 6.25019ZM12.1189 14.7305C12.1189 16.1097 11.1506 17.0193 9.36062 17.0193H5.01776V12.4417H9.36062C11.0919 12.4417 12.1189 13.322 12.1189 14.7305ZM59.3035 9.27259C57.983 6.51429 55.5182 4.98842 51.7915 4.98842C47.39 4.98842 43.4579 7.74672 43.4579 13.234C43.4579 18.5745 46.9205 21.5382 51.7328 21.5382C55.1073 21.5382 57.9537 20.1884 59.3035 17.2834L55.4301 15.288C54.7259 16.5792 53.6402 17.4008 51.9089 17.4008C49.6788 17.4008 48.2409 15.8162 48.2409 13.234C48.2409 10.6517 49.8842 9.09653 51.8795 9.09653C53.4348 9.09653 54.6085 9.80077 55.3421 11.3266L59.3035 9.27259ZM130.227 9.27259C128.907 6.51429 126.442 4.98842 122.715 4.98842C118.314 4.98842 114.381 7.74672 114.381 13.234C114.381 18.5745 117.844 21.5382 122.656 21.5382C126.031 21.5382 128.877 20.1884 130.227 17.2834L126.354 15.288C125.649 16.5792 124.564 17.4008 122.832 17.4008C120.602 17.4008 119.164 15.8162 119.164 13.234C119.164 10.6517 120.808 9.09653 122.803 9.09653C124.358 9.09653 125.532 9.80077 126.266 11.3266L130.227 9.27259ZM89.8796 21.1274L85.8595 14.0263H82.7784V21.1274H77.8193V0H86.7691C91.6108 0 94.9853 2.31815 94.9853 6.86641C94.9853 9.77143 93.5475 11.8255 90.9946 13.0873L95.6309 21.1274H89.8796ZM82.8077 9.83012H86.505C88.7938 9.83012 89.9089 8.539 89.9089 7.01313C89.9089 5.19382 88.8525 4.19614 86.505 4.19614H82.8077V9.83012ZM42.6656 20.8633V17.5475C42.4602 17.6062 42.1668 17.6649 41.844 17.6649C41.2278 17.6649 40.905 17.3421 40.905 16.7846V11.2973C40.905 7.18919 38.1467 5.01776 33.5985 5.01776C30.6348 5.01776 28.1112 6.10348 26.5266 7.51197L29.1969 10.505C30.2533 9.56602 31.6618 8.97915 33.0409 8.97915C35.1537 8.97915 36.1514 10.0355 36.1514 11.7668V12.2656C35.1537 12.0309 33.8919 11.7961 32.366 11.7961C28.522 11.7961 26.0278 13.6448 26.0278 16.6965C26.0278 19.8363 28.1112 21.4795 31.339 21.4795C33.5398 21.4795 35.5058 20.5699 36.5328 19.3961C37.149 20.9514 38.4988 21.3622 39.8193 21.3622C40.729 21.3915 41.7853 21.2448 42.6656 20.8633ZM36.1807 15.9042C36.1807 17.3421 34.8015 18.2811 33.217 18.2811C31.7205 18.2811 30.9869 17.5181 30.9869 16.4618C30.9869 15.3467 31.8085 14.5251 33.4811 14.5251C34.5081 14.5251 35.4178 14.7012 36.1807 14.8772V15.9042ZM147.422 21.1274L141.759 11.2973L147.07 5.5166H141.73L136.125 11.7375V0.0293436H131.342V21.1568H136.125V17.3421L138.414 14.9066L141.994 21.1568H147.422V21.1274ZM76.5575 21.1274L70.8942 11.2973L76.2054 5.5166H70.8062L65.2602 11.7375V0.0293436H60.4772V21.1568H65.2602V17.3421L67.549 14.9066L71.129 21.1568H76.5575V21.1274ZM150.357 18.1931C151.354 18.1931 151.941 18.8093 151.941 19.7483C151.941 20.6873 151.354 21.3035 150.357 21.3035C149.359 21.3035 148.772 20.6873 148.772 19.7483C148.772 18.8093 149.359 18.1931 150.357 18.1931ZM150.357 21.0981C151.149 21.0981 151.677 20.6286 151.677 19.7483C151.677 18.868 151.12 18.3985 150.357 18.3985C149.564 18.3985 149.036 18.868 149.036 19.7483C149.007 20.6579 149.564 21.0981 150.357 21.0981ZM149.741 18.956H150.386C150.768 18.956 150.973 19.1614 150.973 19.4548C150.973 19.7189 150.856 19.8656 150.65 19.9537L150.944 20.5112H150.65L150.386 20.0124H150.034V20.5112H149.741V18.956ZM150.034 19.1907V19.7483H150.357C150.562 19.7483 150.68 19.6896 150.68 19.4842C150.68 19.3081 150.592 19.2201 150.386 19.2201H150.034V19.1907Z" fill="black"/>
</g>
<defs>
<clipPath id="clip0_4_339">
<rect width="152" height="22" fill="white"/>
</clipPath>
</defs>
</svg>
