<svg width="89" height="30" viewBox="0 0 89 30" fill="none" xmlns="http://www.w3.org/2000/svg">
<g clip-path="url(#clip0_4_329)">
<path d="M33.712 8.15625C32.4408 6.98437 30.6045 6.32812 28.2503 6.51562C27.0261 6.60937 25.8019 7.26563 25.3311 7.78125V0L20.4815 0.84375V23.4844H25.3311V15.0938C25.2369 11.7656 26.5082 10.9687 28.3916 10.9687C30.2278 10.9687 31.2637 12.2344 31.2637 14.9062V23.4375H35.925V14.0625C35.925 11.2969 35.1246 9.46875 33.712 8.15625ZM12.4772 19.2656C13.7955 19.2187 15.0668 18.7969 16.1968 18.0469L17.0443 17.4844L19.1631 21.1406L18.4569 21.6563C16.4793 23.0156 14.1722 23.7187 11.818 23.7187C9.98175 23.7187 8.14548 23.2969 6.49754 22.4531C4.8496 21.6094 3.43708 20.4375 2.30707 18.9375C1.17705 17.4375 0.470794 15.75 0.188291 13.9219C-0.141297 12.0938 -4.50332e-05 10.2656 0.564962 8.48438C1.12997 6.75 2.07165 5.10938 3.34291 3.79688C4.61418 2.48438 6.21503 1.45312 7.95714 0.84375C9.69925 0.234375 11.5826 0.046875 13.4189 0.28125C15.2551 0.515625 16.9973 1.17187 18.5039 2.20312L19.2102 2.67187L17.0914 6.32812L16.2439 5.76563C15.1139 5.01563 13.8426 4.64062 12.5243 4.54687C11.2059 4.5 9.88758 4.78125 8.71048 5.39062C7.53338 6 6.54462 6.9375 5.88545 8.0625C5.22627 9.1875 4.8496 10.5 4.8496 11.8125C4.8496 13.125 5.22627 14.4375 5.88545 15.5625C6.54462 16.6875 7.53338 17.625 8.71048 18.2344C9.8405 19.0313 11.1588 19.3594 12.4772 19.2656ZM84.3744 7.6875L84.3273 7.82813L84.2331 7.73438C83.1502 6.84375 81.7377 6.42187 79.9014 6.42187C75.3342 6.42187 71.6146 10.2187 71.6146 14.9531C71.6146 19.6875 75.3813 23.4375 79.9485 23.4375C81.0785 23.4375 82.2085 23.2031 83.2444 22.7344L83.3856 22.6875L83.3385 22.8281C82.7735 24.5156 81.2197 25.6406 79.2893 25.6875H79.0539C77.9709 25.7344 76.888 25.3125 76.0405 24.6094L75.8051 24.4219L73.1684 27.4219L73.3567 27.6094C75.0517 29.25 77.5943 30.0469 79.2422 30.0469C84.4214 30.0469 88.2352 26.2969 88.2352 21.1406V6.46875H84.6098L84.3744 7.6875ZM80.3251 18.9844C78.2064 18.9844 76.4643 17.1562 76.4643 14.9062C76.4643 12.6562 78.2064 10.8281 80.3251 10.8281C82.4439 10.8281 84.186 12.6562 84.186 14.9062C84.1389 17.1562 82.4439 18.9844 80.3251 18.9844ZM66.8591 7.6875L66.8121 7.82813L66.7179 7.73438C65.635 6.84375 64.2224 6.42187 62.3862 6.42187C57.819 6.42187 54.0994 10.2187 54.0994 14.9062C54.0994 19.5937 57.819 23.3906 62.3862 23.3906C63.5162 23.3906 64.6462 23.1563 65.682 22.6875L65.8233 22.5938L65.7762 22.7812C65.2112 24.4687 63.6574 25.5938 61.727 25.6406H61.4916C60.4086 25.6875 59.3257 25.2656 58.4782 24.5625L58.2899 24.375L55.6532 27.375L55.8415 27.5625C57.5365 29.2031 60.0791 30 61.727 30C66.9062 30 70.72 26.25 70.72 21.0938V6.46875H67.0946L66.8591 7.6875ZM62.8099 18.9844C60.6911 18.9844 58.949 17.1562 58.949 14.9062C58.949 12.6562 60.6911 10.8281 62.8099 10.8281C64.9287 10.8281 66.6708 12.6562 66.6708 14.9062C66.6708 17.1562 64.9287 18.9844 62.8099 18.9844ZM36.8667 15.0938C36.8667 10.2188 40.445 6.375 45.0593 6.375C49.6264 6.375 53.2048 10.2188 53.2048 15.0938C53.2048 15.7031 53.1577 16.3594 53.0635 16.9688H41.7634L41.8105 17.1562C42.0459 17.9062 42.5167 18.5625 43.1759 18.9844C43.8351 19.4062 44.5414 19.6406 45.3418 19.6875C47.0839 19.7813 48.4022 19.3125 49.4852 18.1406L52.3573 20.1094C51.9806 20.7188 49.7206 23.8594 45.3418 23.8594C40.6805 23.8125 36.8667 19.875 36.8667 15.0938ZM41.3396 13.6406V13.7812H49.1085V13.6406C48.9672 11.2969 46.9897 9.98437 45.2005 9.98437C44.2588 9.98437 43.3643 10.3594 42.7051 10.9687C41.9047 11.7187 41.4338 12.6563 41.3396 13.6406Z" fill="#EB7100"/>
</g>
<defs>
<clipPath id="clip0_4_329">
<rect width="88.2353" height="30" fill="white"/>
</clipPath>
</defs>
</svg>
