<svg width="52" height="52" viewBox="0 0 52 52" fill="none" xmlns="http://www.w3.org/2000/svg">
<g clip-path="url(#clip0_2216_27795)">
<path fill-rule="evenodd" clip-rule="evenodd" d="M44.1488 15.044C48.1294 15.044 51.3563 11.8171 51.3563 7.83658C51.3563 3.85603 48.1294 0.62915 44.1488 0.62915C40.1683 0.62915 36.9414 3.85603 36.9414 7.83658C36.9414 11.8171 40.1683 15.044 44.1488 15.044Z" fill="#8055FA"/>
<path fill-rule="evenodd" clip-rule="evenodd" d="M44.1483 33.1464C48.1289 33.1464 51.3558 29.9196 51.3558 25.9391C51.3558 21.9587 48.1289 18.7319 44.1483 18.7319C40.1678 18.7319 36.9409 21.9587 36.9409 25.9391C36.9409 29.9196 40.1678 33.1464 44.1483 33.1464Z" fill="#7550FB"/>
<path fill-rule="evenodd" clip-rule="evenodd" d="M44.1483 51.92C48.1289 51.92 51.3558 48.6931 51.3558 44.7126C51.3558 40.732 48.1289 37.5051 44.1483 37.5051C40.1678 37.5051 36.9409 40.732 36.9409 44.7126C36.9409 48.6931 40.1678 51.92 44.1483 51.92Z" fill="#6A4AFC"/>
<path fill-rule="evenodd" clip-rule="evenodd" d="M25.3762 33.1464C29.3566 33.1464 32.5834 29.9196 32.5834 25.9391C32.5834 21.9587 29.3566 18.7319 25.3762 18.7319C21.3957 18.7319 18.1689 21.9587 18.1689 25.9391C18.1689 29.9196 21.3957 33.1464 25.3762 33.1464Z" fill="#6045FD"/>
<path fill-rule="evenodd" clip-rule="evenodd" d="M25.3757 51.92C29.3561 51.92 32.5829 48.6931 32.5829 44.7126C32.5829 40.732 29.3561 37.5051 25.3757 37.5051C21.3952 37.5051 18.1685 40.732 18.1685 44.7126C18.1685 48.6931 21.3952 51.92 25.3757 51.92Z" fill="#553FFE"/>
<path fill-rule="evenodd" clip-rule="evenodd" d="M7.27286 51.92C11.2534 51.92 14.4803 48.6931 14.4803 44.7126C14.4803 40.732 11.2534 37.5051 7.27286 37.5051C3.29231 37.5051 0.0654297 40.732 0.0654297 44.7126C0.0654297 48.6931 3.29231 51.92 7.27286 51.92Z" fill="#4A3AFF"/>
</g>
<defs>
<clipPath id="clip0_2216_27795">
<rect width="52" height="52" fill="white"/>
</clipPath>
</defs>
</svg>
