<svg width="80" height="80" viewBox="0 0 80 80" fill="none" xmlns="http://www.w3.org/2000/svg">
<rect width="80" height="80" fill="white"/>
<path fill-rule="evenodd" clip-rule="evenodd" d="M56.3109 30.0651C59.8321 30.0651 62.6867 27.2105 62.6867 23.6893C62.6867 20.168 59.8321 17.3135 56.3109 17.3135C52.7896 17.3135 49.9351 20.168 49.9351 23.6893C49.9351 27.2105 52.7896 30.0651 56.3109 30.0651Z" fill="#8055FA"/>
<path fill-rule="evenodd" clip-rule="evenodd" d="M56.3104 46.0784C59.8316 46.0784 62.6862 43.2239 62.6862 39.7028C62.6862 36.1816 59.8316 33.3271 56.3104 33.3271C52.7891 33.3271 49.9346 36.1816 49.9346 39.7028C49.9346 43.2239 52.7891 46.0784 56.3104 46.0784Z" fill="#7550FB"/>
<path fill-rule="evenodd" clip-rule="evenodd" d="M56.3104 62.6862C59.8316 62.6862 62.6862 59.8316 62.6862 56.3104C62.6862 52.7891 59.8316 49.9346 56.3104 49.9346C52.7891 49.9346 49.9346 52.7891 49.9346 56.3104C49.9346 59.8316 52.7891 62.6862 56.3104 62.6862Z" fill="#6A4AFC"/>
<path fill-rule="evenodd" clip-rule="evenodd" d="M39.7042 46.0784C43.2254 46.0784 46.0798 43.2239 46.0798 39.7028C46.0798 36.1816 43.2254 33.3271 39.7042 33.3271C36.1831 33.3271 33.3286 36.1816 33.3286 39.7028C33.3286 43.2239 36.1831 46.0784 39.7042 46.0784Z" fill="#6045FD"/>
<path fill-rule="evenodd" clip-rule="evenodd" d="M39.7037 62.6862C43.2249 62.6862 46.0793 59.8316 46.0793 56.3104C46.0793 52.7891 43.2249 49.9346 39.7037 49.9346C36.1826 49.9346 33.3281 52.7891 33.3281 56.3104C33.3281 59.8316 36.1826 62.6862 39.7037 62.6862Z" fill="#553FFE"/>
<path fill-rule="evenodd" clip-rule="evenodd" d="M23.6898 62.6862C27.211 62.6862 30.0656 59.8316 30.0656 56.3104C30.0656 52.7891 27.211 49.9346 23.6898 49.9346C20.1685 49.9346 17.314 52.7891 17.314 56.3104C17.314 59.8316 20.1685 62.6862 23.6898 62.6862Z" fill="#4A3AFF"/>
</svg>
