<svg width="124" height="24" viewBox="0 0 124 24" fill="none" xmlns="http://www.w3.org/2000/svg">
<g clip-path="url(#clip0_4_315)">
<path d="M7.85845 23.5703H3.22079V11.9822H0.0615234V8.20933H3.22066V5.52467C3.22066 2.34334 4.61795 0.0617065 9.24306 0.0617065C10.2213 0.0617065 11.757 0.259337 11.757 0.259337V3.76265H10.144C8.50042 3.76265 7.85869 4.26376 7.85869 5.64914V8.20933H11.6955L11.3538 11.9822H7.85857L7.85845 23.5703ZM18.4997 7.90783C18.4321 7.90783 18.3626 7.9103 18.2938 7.91202C13.9935 7.91202 12.026 11.1543 12.026 15.7568C12.026 21.5547 14.5781 23.8752 18.3274 23.8752C20.4725 23.8752 21.8818 22.9702 22.7384 21.2813V23.5719H27.1495V8.21094H22.7384V10.5732C22.039 9.0534 20.5903 7.92584 18.4997 7.90783ZM19.6213 11.5376C21.4274 11.5376 22.5115 12.8004 22.5115 14.9483L22.5157 17.1421C22.5157 18.5897 21.6203 20.2834 19.6213 20.2834C16.548 20.2834 16.6301 16.9573 16.6301 15.8494C16.6301 12.123 18.2676 11.5376 19.6213 11.5376ZM28.9309 15.8922C28.9309 14.0256 28.8418 7.91782 36.7808 7.91782C39.9676 7.91782 41.2983 8.93349 41.2983 8.93349L40.2288 12.2585C40.2288 12.2585 38.8998 11.525 37.1681 11.525C34.9501 11.525 33.5349 12.8138 33.5349 15.0814L33.5373 16.7073C33.5373 18.8862 34.9029 20.3407 37.1727 20.3407C38.7503 20.3407 40.2043 19.6002 40.2043 19.6002L41.2711 22.8558C41.2711 22.8558 40.0544 23.8779 36.8031 23.8779C29.2439 23.8779 28.9311 18.398 28.9311 15.8922H28.9309ZM67.1621 7.91202C71.4625 7.91202 73.461 11.1543 73.461 15.7568C73.461 21.5547 70.9088 23.8752 67.1595 23.8752C65.0144 23.8752 63.4287 22.9703 62.572 21.2813V23.5719L58.2165 23.5702V0.528766L62.841 0.124499V10.3651C63.5084 8.57351 65.7018 7.91202 67.1621 7.91202ZM65.8656 11.5376C64.0594 11.5376 62.841 12.8004 62.841 14.9483L62.8367 17.1421C62.834 18.5897 63.6805 20.2834 65.8656 20.2834C68.9388 20.2834 68.8567 16.9573 68.8567 15.8494C68.8567 12.123 67.2194 11.5376 65.8656 11.5376ZM49.3222 7.92473C44.4447 7.92473 41.8696 10.5903 41.8696 15.3272V16.2073C41.8696 22.3555 45.4858 23.9383 49.7969 23.9383C53.9873 23.9383 55.884 22.7635 55.884 22.7635L55.0187 19.635C55.0187 19.635 52.7876 20.5865 50.3514 20.5865C47.8258 20.5865 46.7397 19.9413 46.4613 17.5086H56.2538V14.9987C56.2538 9.86032 53.3638 7.92461 49.3221 7.92461L49.3222 7.92473ZM49.4397 11.0575C51.1281 11.0575 52.2221 12.0952 52.1621 14.5019H46.4698C46.5685 11.9689 47.7483 11.0575 49.4397 11.0575ZM82.6821 7.90364C77.6732 7.90364 75.0363 10.7329 75.0363 15.8031C75.0363 22.7596 79.5818 23.8794 82.6904 23.8794C87.2413 23.8794 90.269 21.4236 90.269 15.8662C90.269 10.082 86.8647 7.90364 82.6821 7.90364ZM82.6191 11.5502C84.8215 11.5502 85.6943 13.2024 85.6943 15.0831V16.7C85.6943 18.9783 84.4731 20.2961 82.6107 20.2961C80.8689 20.2961 79.6448 19.0635 79.6448 16.7V15.0831C79.6448 12.5625 81.1014 11.5502 82.6191 11.5502ZM99.4818 7.90364C94.473 7.90364 91.8361 10.7329 91.8361 15.8031C91.8361 22.7596 96.3815 23.8794 99.4902 23.8794C104.041 23.8794 107.069 21.4236 107.069 15.8662C107.069 10.082 103.664 7.90364 99.4818 7.90364ZM99.4188 11.5502C101.621 11.5502 102.494 13.2024 102.494 15.0831V16.7C102.494 18.9783 101.273 20.2961 99.4104 20.2961C97.6687 20.2961 96.4445 19.0635 96.4445 16.7V15.0831C96.4445 12.5625 97.9012 11.5502 99.4188 11.5502ZM108.816 23.5703V0.528766L113.454 0.124499V15.5684L118.056 8.20933H122.954L118.154 15.8312L123.138 23.5703H118.227L113.454 16.0557V23.5703H108.816Z" fill="#1877F2"/>
</g>
<defs>
<clipPath id="clip0_4_315">
<rect width="123.2" height="24" fill="white"/>
</clipPath>
</defs>
</svg>
