<svg width="117" height="26" viewBox="0 0 117 26" fill="none" xmlns="http://www.w3.org/2000/svg">
<path d="M74.3625 6.47758H76.9747V1.91187H78.7705V0.0638428H72.5667V1.91187H74.3625V6.47758Z" fill="#0075BD"/>
<path d="M80.6753 6.47758L81.9814 2.67282L83.2875 6.47758H85.8452L83.3419 0.0638428H80.6209L78.172 6.47758H80.6753Z" fill="#0075BD"/>
<path d="M87.0424 6.47758H89.6002V1.91187H91.4504V0.0638428H85.1921V1.91187H87.0424V6.47758Z" fill="#0075BD"/>
<path d="M93.3007 6.47758L94.6612 2.67282L95.9673 6.47758H98.4706L96.0217 0.0638428H93.3007L90.7974 6.47758H93.3007Z" fill="#0075BD"/>
<path d="M100.321 11.0976C100.647 11.8042 101.083 12.6195 101.464 13.3261L103.151 16.1525H104.348V9.7388H103.259V11.9673C103.259 12.9457 103.259 13.761 103.368 14.6306C103.096 13.924 102.715 13.1631 102.28 12.4565L100.593 9.68445H99.2324V16.0982H100.321V13.8697C100.375 12.7826 100.375 11.9673 100.321 11.0976Z" fill="#0075BD"/>
<path d="M94.4979 14.3588H96.5659L97.1645 16.1525H98.4161L96.3482 9.73877H94.8244L92.7565 16.1525H93.9537L94.4979 14.3588ZM95.2054 11.8586C95.3142 11.4781 95.423 11.0433 95.5319 10.6628C95.6407 11.0433 95.7496 11.4781 95.8584 11.8586L96.3482 13.4348H94.6612L95.2054 11.8586Z" fill="#0075BD"/>
<path d="M75.2877 15.2829C74.689 15.2829 74.0904 15.0655 73.7095 14.848L73.4374 15.8264C73.7639 16.0438 74.4714 16.2612 75.1788 16.2612C76.8658 16.2612 77.6277 15.3372 77.6277 14.3045C77.6277 13.3805 77.0835 12.837 75.9951 12.4021C75.1244 12.076 74.7435 11.8586 74.7435 11.3694C74.7435 10.9889 75.07 10.6085 75.8319 10.6085C76.4305 10.6085 76.8658 10.7715 77.1379 10.9346L77.41 10.0106C77.0835 9.84751 76.5393 9.68445 75.8863 9.68445C74.4714 9.68445 73.6006 10.4998 73.6006 11.5325C73.6006 12.4565 74.3081 13 75.3421 13.3805C76.1584 13.6523 76.4849 13.9784 76.4849 14.4676C76.4849 14.9568 76.0495 15.2829 75.2877 15.2829Z" fill="#0075BD"/>
<path d="M58.3631 10.6085C58.9073 10.6085 59.3427 10.7172 59.6148 10.8802L59.8869 9.95622C59.6692 9.84751 59.125 9.68445 58.3087 9.68445C56.3496 9.68445 54.8802 10.9889 54.8802 13.0544C54.8802 15.0111 56.1319 16.3156 58.1454 16.3156C58.9073 16.3156 59.5604 16.1525 59.8325 16.0438L59.6148 15.1198C59.2883 15.2829 58.7985 15.3372 58.3087 15.3372C56.8938 15.3372 56.0775 14.4132 56.0775 13C56.1319 11.4238 57.057 10.6085 58.3631 10.6085Z" fill="#0075BD"/>
<path d="M91.2872 16.1525V10.7171H93.1374V9.73877H88.2941V10.7171H90.0899V16.1525H91.2872Z" fill="#0075BD"/>
<path d="M114.851 9.73877L114.089 11.3694C113.871 11.8586 113.708 12.239 113.545 12.6739C113.382 12.239 113.218 11.8586 113.001 11.4237L112.239 9.79312H110.769L112.783 13.5435V16.2069H113.98V13.4892L116.103 9.73877H114.851Z" fill="#0075BD"/>
<path d="M63.3153 9.63007C61.5195 9.63007 60.2678 11.0433 60.2678 13C60.2678 14.9024 61.4106 16.2612 63.2609 16.2612C65.0024 16.2612 66.3628 15.0111 66.3628 12.8913C66.3084 11.0433 65.1656 9.63007 63.3153 9.63007ZM63.2609 15.3372C62.1181 15.3372 61.4651 14.2501 61.4651 13C61.4651 11.6955 62.0637 10.6084 63.2609 10.6084C64.4582 10.6084 65.0568 11.7499 65.0568 12.9456C65.0568 14.2501 64.4037 15.3372 63.2609 15.3372Z" fill="#0075BD"/>
<path d="M108.919 10.6085C109.463 10.6085 109.899 10.7172 110.171 10.8802L110.443 9.95622C110.225 9.84751 109.681 9.68445 108.865 9.68445C106.906 9.68445 105.436 10.9889 105.436 13.0544C105.436 15.0111 106.688 16.3156 108.701 16.3156C109.463 16.3156 110.116 16.1525 110.388 16.0438L110.171 15.1198C109.844 15.2829 109.355 15.3372 108.865 15.3372C107.45 15.3372 106.634 14.4132 106.634 13C106.634 11.4238 107.613 10.6085 108.919 10.6085Z" fill="#0075BD"/>
<path d="M86.2805 9.73877H85.0833V16.1525H88.9471V15.1741H86.2805V9.73877Z" fill="#0075BD"/>
<path d="M83.7772 13.3805V9.68445H82.58V13.4349C82.58 14.685 82.0902 15.2829 81.2195 15.2829C80.4032 15.2829 79.9134 14.685 79.9134 13.4349V9.68445H78.7162V13.3805C78.7162 15.3916 79.6957 16.2612 81.1651 16.2612C82.7433 16.2612 83.7772 15.3916 83.7772 13.3805Z" fill="#0075BD"/>
<path d="M72.4034 9.7388H71.315V11.9673C71.315 12.9457 71.315 13.761 71.4239 14.6306C71.1518 13.924 70.7708 13.1631 70.3355 12.4565L68.6485 9.68445H67.288V16.0982H68.3764V13.8697C68.3764 12.837 68.3764 11.9673 68.3219 11.152H68.3764C68.7029 11.8586 69.1382 12.6739 69.5192 13.3805L71.2062 16.2069H72.4034V9.7388Z" fill="#0075BD"/>
<path d="M88.9471 19.3594H87.7499V25.7731H88.9471V19.3594Z" fill="#0075BD"/>
<path d="M79.6413 22.7837C80.24 22.5662 80.7842 21.9684 80.7842 21.153C80.7842 20.6095 80.5665 20.1747 80.24 19.8486C79.8046 19.4681 79.0427 19.3594 78.2808 19.3594C77.4645 19.3594 76.9748 19.4137 76.485 19.5224V25.8275H77.6278V23.2185H78.2264C78.8795 23.2185 79.206 23.4903 79.3692 24.3599C79.5325 25.1752 79.6958 25.6644 79.8046 25.8818H81.0018C80.893 25.61 80.6753 24.9035 80.5121 24.0881C80.3488 23.4359 80.0767 22.9467 79.6413 22.7837ZM78.3353 22.3488H77.6278V20.3377C77.7366 20.2834 78.0087 20.2834 78.3353 20.2834C79.0971 20.2834 79.5869 20.6095 79.5869 21.3161C79.6413 21.914 79.1516 22.3488 78.3353 22.3488Z" fill="#0075BD"/>
<path d="M84.8111 22.2945C84.539 23.0554 84.3214 23.8707 84.1581 24.6317C83.9948 23.8707 83.7772 23.1098 83.5051 22.2945L82.6343 19.3594H81.3827L83.4506 25.7731H84.8111L87.0424 19.3594H85.7907L84.8111 22.2945Z" fill="#0075BD"/>
<path d="M97.0556 22.9467H99.5045V22.0227H97.0556V20.3377H99.6134V19.3594H95.8584V25.8275H99.7766V24.8491H97.0556V22.9467Z" fill="#0075BD"/>
<path d="M93.4095 20.2291C93.9537 20.2291 94.3891 20.3378 94.6612 20.5008L94.9333 19.5768C94.7156 19.4681 94.1714 19.3051 93.3551 19.3051C91.396 19.3051 89.9266 20.6095 89.9266 22.675C89.9266 24.6317 91.1783 25.9362 93.1918 25.9362C93.9537 25.9362 94.6067 25.7731 94.8788 25.6644L94.6612 24.7404C94.3346 24.9035 93.8449 24.9578 93.3551 24.9578C91.9402 24.9578 91.1239 24.0338 91.1239 22.6206C91.1783 21.0444 92.1034 20.2291 93.4095 20.2291Z" fill="#0075BD"/>
<path d="M68.8662 22.0771C67.9955 21.7509 67.6145 21.5335 67.6145 21.0443C67.6145 20.6639 67.9411 20.2834 68.7029 20.2834C69.3016 20.2834 69.7369 20.4464 70.009 20.6095L70.2811 19.6855C69.9546 19.5224 69.4104 19.3594 68.7574 19.3594C67.3424 19.3594 66.4717 20.1747 66.4717 21.2074C66.4717 22.1314 67.1792 22.6749 68.2132 23.0554C69.0295 23.3272 69.356 23.6533 69.356 24.1425C69.356 24.686 68.9206 25.0122 68.1587 25.0122C67.5601 25.0122 66.9615 24.7947 66.5806 24.5773L66.3085 25.5557C66.635 25.7731 67.3424 25.9905 68.0499 25.9905C69.7369 25.9905 70.4988 25.0665 70.4988 24.0338C70.4988 23.0554 69.9546 22.5119 68.8662 22.0771Z" fill="#0075BD"/>
<path d="M72.73 22.9467H75.1789V22.0227H72.73V20.3377H75.3421V19.3594H71.5872V25.8275H75.451V24.8491H72.73V22.9467Z" fill="#0075BD"/>
<path d="M103.042 22.0771C102.171 21.7509 101.79 21.5335 101.79 21.0443C101.79 20.6639 102.117 20.2834 102.879 20.2834C103.477 20.2834 103.913 20.4464 104.185 20.6095L104.457 19.6855C104.13 19.5224 103.586 19.3594 102.933 19.3594C101.518 19.3594 100.647 20.1747 100.647 21.2074C100.647 22.1314 101.355 22.6749 102.389 23.0554C103.205 23.3272 103.532 23.6533 103.532 24.1425C103.532 24.686 103.096 25.0122 102.334 25.0122C101.736 25.0122 101.137 24.7947 100.756 24.5773L100.484 25.5557C100.811 25.7731 101.518 25.9905 102.226 25.9905C103.913 25.9905 104.674 25.0665 104.674 24.0338C104.729 23.0554 104.185 22.5119 103.042 22.0771Z" fill="#0075BD"/>
<path d="M48.4587 0.0638428H47.2615V25.8275H48.4587V0.0638428Z" fill="#0075BD"/>
<path d="M6.06562 22.2945C4.43302 22.2945 3.72556 21.3705 3.67114 20.066C3.77998 21.6423 4.26976 23.7077 6.0112 24.7404C6.39214 24.9578 6.77307 25.1752 7.26285 25.284C7.53495 25.3927 7.86147 25.447 8.24241 25.447C9.38523 25.0122 10.3648 24.3599 11.8341 21.9684C11.4532 21.6423 10.0383 18.8159 9.87501 18.4897C9.43965 20.7726 7.75263 22.2945 6.06562 22.2945Z" fill="url(#paint0_linear_4_343)"/>
<path d="M11.4532 10.3367C10.3104 11.4781 9.43968 13.1631 9.11316 14.848C9.11316 15.0111 9.11316 15.2285 9.11316 15.3916C9.11316 15.5003 9.11316 15.5546 9.11316 15.6634C9.11316 16.3156 9.16758 16.9135 9.27642 17.5114C9.38526 18.1093 9.54852 18.9789 9.98388 19.9029C10.1471 20.2291 10.3104 20.6095 10.4737 20.99C10.6913 21.4248 10.9634 21.8053 11.2355 22.2401C11.5621 22.675 11.8886 23.0555 12.3239 23.3816C14.0109 24.9035 16.2966 25.8275 19.072 25.8275C19.9427 25.8275 20.9767 25.7731 21.9018 25.6101C22.1739 25.5557 22.3916 25.5014 22.6093 25.447C17.7115 24.7404 15.5891 22.4576 14.6096 21.3705C14.5007 21.2618 14.3919 21.0987 14.283 20.99C14.2286 20.9357 14.1742 20.827 14.0654 20.7726C13.9021 20.5552 13.7388 20.3378 13.5756 20.066C13.4667 19.9029 13.4123 19.7942 13.3579 19.6312C13.2491 19.4138 13.1946 19.2507 13.0858 19.0333C12.7593 18.1636 12.5416 17.1853 12.5416 16.1525C12.5416 16.0982 12.5416 15.9895 12.5416 15.9351C12.5416 15.8808 12.5416 15.8808 12.5416 15.8264C12.5416 15.7721 12.5416 15.7177 12.5416 15.7177C12.5416 15.5546 12.5416 15.3916 12.5416 15.2829V15.2285C12.5416 15.0655 12.5416 14.9568 12.596 14.7937C12.977 11.2607 15.2626 8.65173 19.2897 8.65173C20.3237 8.65173 21.1399 8.81479 21.9018 9.0322C21.7386 8.97785 21.5209 8.86914 21.3576 8.81479C20.1604 8.37996 18.8543 8.16255 17.5482 8.16255C15.3714 7.94513 13.1402 8.65173 11.4532 10.3367Z" fill="url(#paint1_linear_4_343)"/>
<path d="M1.87535 0.0638428C0.895789 0.0638428 0.133911 0.824794 0.133911 1.74881V17.2396C0.133911 18.7072 0.46043 22.1858 1.60325 23.7077C2.20187 24.4686 2.90932 25.0122 3.78004 25.3927C4.4875 25.6644 5.24938 25.8275 6.01126 25.8275C6.44661 25.8275 6.88197 25.7731 7.31733 25.7188C7.48059 25.6644 7.64385 25.6644 7.80711 25.6101C7.97037 25.5557 8.07921 25.5014 8.24247 25.447C7.91595 25.3927 7.58943 25.3383 7.26291 25.2296C6.77313 25.0665 6.33778 24.9035 5.95684 24.6861C4.2154 23.599 3.72562 21.5335 3.61678 19.6312V8.43431H8.02479C8.78667 8.43431 9.43971 7.78206 9.43971 7.02111C9.43971 6.26016 8.78667 5.60792 8.02479 5.60792H3.61678V1.74881C3.61678 0.824794 2.90932 0.0638428 1.87535 0.0638428Z" fill="url(#paint2_linear_4_343)"/>
<path d="M1.87535 0.0638428C0.895789 0.0638428 0.133911 0.824794 0.133911 1.74881C0.133911 1.74881 0.133911 9.08655 0.133911 12.076C0.133911 8.10819 1.65767 5.55356 3.61678 5.55356V1.69445C3.61678 0.824794 2.90932 0.0638428 1.87535 0.0638428Z" fill="url(#paint3_linear_4_343)"/>
<path d="M37.3571 20.3378C37.3571 22.0771 36.1054 22.8924 34.2007 22.8924C32.677 22.8924 31.5886 22.4032 30.8267 22.0771C29.575 21.5879 28.6499 22.4576 28.6499 23.3816C28.6499 23.9795 29.0853 24.3599 29.575 24.6317C30.0648 24.9035 30.609 25.0665 31.0988 25.2296C32.1328 25.5557 33.2756 25.6644 34.364 25.6644C35.1259 25.6644 35.8877 25.6101 36.5952 25.447C37.3027 25.284 38.0645 25.0665 38.6087 24.5774C38.6632 24.523 38.7176 24.4687 38.772 24.4143C39.0985 23.9251 39.1529 23.2729 39.1529 22.7837C39.1529 21.1531 38.3366 19.6855 37.085 18.5441C36.704 18.1636 36.3775 17.7832 35.7789 17.457C36.8673 18.2723 37.3571 19.142 37.3571 20.3378Z" fill="url(#paint4_linear_4_343)"/>
<path d="M30.609 7.18413C30.5546 7.23849 30.5002 7.29284 30.3914 7.34719C29.9016 7.83638 29.5206 8.37991 29.1941 8.9778C28.922 9.52134 28.7043 10.0649 28.5411 10.6084C28.3234 11.2607 28.1601 11.9129 28.0513 12.5651C27.5615 14.7393 27.235 17.0221 26.201 18.9245C25.3847 20.4464 24.1331 21.4791 22.5549 22.2401C21.6298 22.6206 20.6502 22.8923 19.3441 22.8923C18.6911 22.8923 18.1469 22.838 17.5483 22.7293C16.1878 22.4032 15.0994 21.7509 14.2831 20.7726C14.3919 20.9356 14.5008 21.0443 14.6096 21.153C15.5892 22.2401 17.7115 24.5773 22.6093 25.2296C23.0991 25.1208 23.5345 24.9578 23.9698 24.7404C24.4596 24.4686 24.895 24.1968 25.3303 23.9251C26.0378 23.4359 26.6364 22.8923 27.1806 22.2401C28.0513 21.2074 28.7588 20.066 29.303 18.8158C29.5206 18.3266 29.6839 17.8375 29.8472 17.2939C29.956 17.0221 30.0104 16.696 30.0648 16.4243C30.2825 15.5002 30.5546 14.3045 30.7179 13.3805C30.7179 13.3805 30.0104 11.5868 29.956 10.4997C29.9016 9.73876 30.0648 8.9778 30.2825 8.21685C30.3369 7.83638 30.4458 7.72767 30.609 7.40155C30.609 7.34719 30.6635 7.3472 30.6635 7.29284C30.6635 7.29284 30.9356 7.12978 30.8811 7.07543L31.3165 6.58624C31.2621 6.6406 30.6635 7.12978 30.609 7.18413Z" fill="url(#paint5_linear_4_343)"/>
<path d="M16.0789 5.98839C15.2626 6.20581 14.4463 6.53193 13.7388 6.96676C13.0314 7.40159 12.3784 7.89077 11.8342 8.48866C11.7253 8.59737 11.6709 8.65172 11.5621 8.76043C11.29 9.08655 11.0179 9.41267 10.7458 9.79315C10.5825 10.0106 10.4737 10.228 10.3104 10.4997C9.65736 11.7499 9.222 13.2174 9.11316 14.7937C9.38526 13.1087 10.3104 11.4238 11.4532 10.2823C14.0654 7.67336 18.038 7.40159 21.3576 8.59737C21.5209 8.65172 21.7386 8.70608 21.9018 8.81478C22.2828 8.97784 22.7181 9.1409 23.0991 9.35832C23.2079 9.41267 23.3167 9.46703 23.4256 9.52138C23.6977 9.68444 23.9154 9.79315 24.2419 9.79315C24.3507 9.79315 24.4596 9.79315 24.6228 9.7388C25.2214 9.57573 25.6568 9.0322 25.6568 8.3256C25.6568 7.78206 25.3847 7.45594 25.0038 7.18417C23.8065 6.31451 22.1739 5.93404 20.759 5.77098C20.1604 5.71662 19.5618 5.66227 18.9632 5.66227C17.9836 5.60792 17.0585 5.71662 16.0789 5.98839Z" fill="url(#paint6_linear_4_343)"/>
<path d="M31.4797 6.47755C30.8811 6.85803 30.5001 7.51027 30.2825 8.16252C30.1736 8.59735 30.0648 9.03218 30.1736 9.46701C30.3369 10.1736 30.9355 10.6628 31.4797 11.0433C32.5137 11.7499 33.6565 12.239 34.7449 12.8913C34.2007 12.4565 33.6565 12.0216 33.2756 11.4237C32.949 10.8258 32.7858 10.0649 33.1123 9.41265C33.3844 8.92347 33.8742 8.59735 34.4184 8.43429C34.9626 8.27122 35.5068 8.32558 36.051 8.37993C36.704 8.48864 37.3026 8.6517 37.9012 8.86911C38.2278 8.97782 38.4999 9.08653 38.8264 9.08653C39.2073 9.08653 39.5883 8.86911 39.8604 8.59735C40.078 8.27122 40.1869 7.89075 40.1325 7.51027C39.9692 6.91238 39.425 6.47755 38.8808 6.20579C38.0645 5.82531 37.1938 5.7166 36.2686 5.66225C35.5068 5.6079 34.6905 5.55354 33.9286 5.66225C33.1667 5.77096 32.4048 5.93402 31.6974 6.31449C31.643 6.31449 31.643 6.36885 31.5885 6.36885L31.4797 6.47755Z" fill="url(#paint7_linear_4_343)"/>
<path d="M30.8267 13.5435C31.3709 14.4132 32.2416 15.0111 33.0579 15.609C33.983 16.2612 34.8537 16.9134 35.7789 17.5113C36.4319 17.9462 37.0305 18.4897 37.5203 19.0876C38.4454 20.1747 39.2617 21.4792 39.2073 22.9467C39.2073 23.2185 39.1529 23.4902 39.0985 23.7077C38.9896 24.1425 38.7175 24.686 38.2822 24.9578C40.3501 23.762 41.1664 21.3704 40.6222 19.0876C40.1325 16.8591 38.3366 15.3915 36.5407 14.0871C36.2142 13.8153 35.8333 13.5979 35.4523 13.3261C35.0714 13.1087 34.6905 12.8913 34.3639 12.6739C34.0374 12.5108 33.7653 12.2934 33.4388 12.1303C33.0035 11.8586 32.5681 11.5868 32.1872 11.315C31.5341 10.8802 30.8267 10.3367 30.5001 9.63005C30.2825 9.19523 30.1736 8.70604 30.2825 8.21686C29.7927 9.90182 29.9015 12.0216 30.8267 13.5435Z" fill="url(#paint8_linear_4_343)"/>
<defs>
<linearGradient id="paint0_linear_4_343" x1="4.95219" y1="23.8448" x2="10.3317" y2="19.046" gradientUnits="userSpaceOnUse">
<stop stop-color="#BE3F8B"/>
<stop offset="0.9497" stop-color="#664092"/>
</linearGradient>
<linearGradient id="paint1_linear_4_343" x1="15.8642" y1="7.9516" x2="15.8642" y2="25.709" gradientUnits="userSpaceOnUse">
<stop stop-color="#E53121"/>
<stop offset="1" stop-color="#E72F7C"/>
</linearGradient>
<linearGradient id="paint2_linear_4_343" x1="4.77935" y1="0.0610164" x2="4.77935" y2="25.8259" gradientUnits="userSpaceOnUse">
<stop stop-color="#E53121"/>
<stop offset="1" stop-color="#E72F7C"/>
</linearGradient>
<linearGradient id="paint3_linear_4_343" x1="1.87197" y1="0.0610164" x2="1.87197" y2="12.1057" gradientUnits="userSpaceOnUse">
<stop stop-color="#FFCB00"/>
<stop offset="1" stop-color="#E84D22"/>
</linearGradient>
<linearGradient id="paint4_linear_4_343" x1="38.5211" y1="20.2766" x2="30.0123" y2="25.809" gradientUnits="userSpaceOnUse">
<stop stop-color="#C73E88"/>
<stop offset="0.8442" stop-color="#6B4790"/>
</linearGradient>
<linearGradient id="paint5_linear_4_343" x1="17.4095" y1="24.4556" x2="34.2316" y2="9.96865" gradientUnits="userSpaceOnUse">
<stop offset="0.0279188" stop-color="#C53E85"/>
<stop offset="0.8597" stop-color="#5E378C"/>
</linearGradient>
<linearGradient id="paint6_linear_4_343" x1="9.13836" y1="10.2113" x2="25.6912" y2="10.2113" gradientUnits="userSpaceOnUse">
<stop stop-color="#FFCB00"/>
<stop offset="1" stop-color="#E84D22"/>
</linearGradient>
<linearGradient id="paint7_linear_4_343" x1="30.1514" y1="9.2584" x2="40.2262" y2="9.2584" gradientUnits="userSpaceOnUse">
<stop stop-color="#FFCB00"/>
<stop offset="1" stop-color="#E84D22"/>
</linearGradient>
<linearGradient id="paint8_linear_4_343" x1="29.671" y1="8.69066" x2="40.6537" y2="23.1774" gradientUnits="userSpaceOnUse">
<stop stop-color="#E53121"/>
<stop offset="1" stop-color="#E72F7C"/>
</linearGradient>
</defs>
</svg>
