<svg width="93" height="29" viewBox="0 0 93 29" fill="none" xmlns="http://www.w3.org/2000/svg">
<g clip-path="url(#clip0_4_331)">
<path d="M11.5774 10.3477V13.4455H19.0531C18.8547 15.1591 18.2592 16.4773 17.3331 17.3341C16.2745 18.3886 14.5545 19.575 11.5774 19.575C7.01261 19.575 3.44015 15.8841 3.44015 11.3364C3.44015 6.78864 6.94645 3.09773 11.5774 3.09773C14.0252 3.09773 15.8776 4.08636 17.2007 5.33864L19.3839 3.16364C17.5315 1.38409 15.0176 0 11.5774 0C5.29253 0 0 5.075 0 11.3364C0 17.5977 5.29253 22.6727 11.5774 22.6727C14.9514 22.6727 17.5315 21.5523 19.5162 19.5091C21.5671 17.4659 22.2286 14.5659 22.2286 12.2591C22.2286 11.5341 22.1625 10.875 22.0963 10.3477H11.5774Z" fill="#4285F4"/>
<path d="M31.4906 7.77728C27.455 7.77728 24.0811 10.875 24.0811 15.0932C24.0811 19.3114 27.3889 22.4091 31.4906 22.4091C35.5923 22.4091 38.9001 19.3773 38.9001 15.1591C38.9001 10.875 35.5923 7.77728 31.4906 7.77728ZM31.4906 19.575C29.2413 19.575 27.3227 17.7296 27.3227 15.1591C27.3227 12.5227 29.2413 10.7432 31.4906 10.7432C33.7399 10.7432 35.6585 12.5227 35.6585 15.1591C35.6585 17.7296 33.7399 19.575 31.4906 19.575Z" fill="#EA4335"/>
<path d="M67.6783 9.42501H67.546C66.8183 8.56819 65.429 7.77728 63.6427 7.77728C59.938 7.77728 56.7625 10.9409 56.7625 15.0932C56.7625 19.1796 59.938 22.4091 63.6427 22.4091C65.429 22.4091 66.8183 21.6182 67.546 20.7614H67.6783V21.8159C67.6783 24.5841 66.1567 26.1 63.7751 26.1C61.7904 26.1 60.5995 24.7159 60.0703 23.4636L57.2917 24.65C58.0856 26.5614 60.2688 29 63.8412 29C67.6121 29 70.8538 26.7591 70.8538 21.3546V8.17274H67.8106V9.42501H67.6783ZM63.9735 19.575C61.7242 19.575 60.0703 17.6636 60.0703 15.1591C60.0703 12.5886 61.7904 10.7432 63.9735 10.7432C66.1567 10.7432 67.8768 12.6546 67.8768 15.225C67.9429 17.7296 66.2229 19.575 63.9735 19.575Z" fill="#4285F4"/>
<path d="M47.9636 7.77728C43.9281 7.77728 40.5541 10.875 40.5541 15.0932C40.5541 19.3114 43.8619 22.4091 47.9636 22.4091C52.0653 22.4091 55.3732 19.3773 55.3732 15.1591C55.3732 10.875 52.0653 7.77728 47.9636 7.77728ZM47.9636 19.575C45.7143 19.575 43.7958 17.7296 43.7958 15.1591C43.7958 12.5227 45.7143 10.7432 47.9636 10.7432C50.213 10.7432 52.1315 12.5227 52.1315 15.1591C52.1315 17.7296 50.213 19.575 47.9636 19.575Z" fill="#FBBC05"/>
<path d="M73.3016 0.329529H76.4772V22.475H73.3016V0.329529Z" fill="#34A853"/>
<path d="M86.2683 19.575C84.6144 19.575 83.4897 18.85 82.6959 17.3341L92.5532 13.3136L92.2224 12.4568C91.627 10.8091 89.7085 7.77728 85.9375 7.77728C82.1666 7.77728 78.9911 10.7432 78.9911 15.0932C78.9911 19.1796 82.1004 22.4091 86.2683 22.4091C89.6423 22.4091 91.5609 20.3659 92.4209 19.1796L89.9069 17.5318C89.0469 18.7841 87.9222 19.575 86.2683 19.575ZM86.0699 10.5455C87.393 10.5455 88.5177 11.2046 88.8484 12.1273L82.2328 14.8955C82.1666 11.8636 84.4159 10.5455 86.0699 10.5455Z" fill="#EA4335"/>
</g>
<defs>
<clipPath id="clip0_4_331">
<rect width="92.5532" height="29" fill="white"/>
</clipPath>
</defs>
</svg>
