<svg width="110" height="110" viewBox="0 0 110 110" fill="none" xmlns="http://www.w3.org/2000/svg">
<rect width="110" height="110" fill="#079561"/>
<rect x="36" y="45.9725" width="52" height="40.0274" fill="white" fill-opacity="0.15"/>
<path d="M51 55H59M65 39V35C65 32.792 63.208 31 61 31H49C46.792 31 45 32.792 45 35V39H65ZM81 43V75C81 77.208 79.208 79 77 79H33C30.792 79 29 77.208 29 75V43C29 40.792 30.792 39 33 39H77C79.208 39 81 40.792 81 43ZM29 63H81H29Z" stroke="white" stroke-width="3"/>
</svg>
