<svg width="136" height="136" viewBox="0 0 136 136" fill="none" xmlns="http://www.w3.org/2000/svg">
<rect width="136" height="136" fill="#079561"/>
<path d="M76.9426 35.9131C67.1519 35.9131 57.7623 39.8024 50.8392 46.7255C43.9162 53.6485 40.0269 63.0382 40.0269 72.8288C40.0269 82.6195 43.9162 92.0092 50.8392 98.9322C57.7623 105.855 67.1519 109.745 76.9426 109.745C86.7333 109.745 96.1229 105.855 103.046 98.9322C109.969 92.0092 113.858 82.6195 113.858 72.8288C113.858 63.0382 109.969 53.6485 103.046 46.7255C96.1229 39.8024 86.7333 35.9131 76.9426 35.9131V35.9131Z" fill="white" fill-opacity="0.15"/>
<path d="M64.1911 27.2549C54.4005 27.2549 45.0108 31.1442 38.0878 38.0673C31.1647 44.9903 27.2754 54.38 27.2754 64.1706C27.2754 73.9613 31.1647 83.351 38.0878 90.274C45.0108 97.1971 54.4005 101.086 64.1911 101.086C73.9818 101.086 83.3715 97.1971 90.2945 90.274C97.2176 83.351 101.107 73.9613 101.107 64.1706C101.107 54.38 97.2176 44.9903 90.2945 38.0673C83.3715 31.1442 73.9818 27.2549 64.1911 27.2549V27.2549Z" stroke="white" stroke-width="3"/>
<path d="M51.8857 47.8965V80.4439L80.0955 64.1702L51.8857 47.8965Z" stroke="white" stroke-width="3"/>
</svg>
