<svg width="137" height="136" viewBox="0 0 137 136" fill="none" xmlns="http://www.w3.org/2000/svg">
<g clip-path="url(#clip0_2_87)">
<path d="M136.5 0H0.5V136H136.5V0Z" fill="#166FC2"/>
<path d="M46.9644 61.3003H65.8599V102.091H46.9644V61.3003Z" fill="white" fill-opacity="0.15" stroke="#166FC2" stroke-width="3"/>
<path d="M108.425 66.6913L108.418 66.7259L108.413 66.7609L104.211 97.6595C103.732 99.5317 101.957 100.906 99.9328 100.906H68.5V62.87C68.518 62.8435 68.5371 62.8152 68.5573 62.785C68.711 62.5553 68.9266 62.2198 69.1834 61.7845C69.6969 60.9142 70.3761 59.6435 71.0537 58.0212C72.4085 54.7775 73.762 50.1161 73.762 44.436V41.0067C73.925 41.0149 74.1053 41.0272 74.2998 41.0451C75.2159 41.1294 76.417 41.3356 77.6025 41.813C78.7852 42.2892 79.9201 43.0218 80.7605 44.1435C81.5933 45.2552 82.1902 46.8195 82.1902 49.06V49.069V49.0781V49.0875V49.097V49.1067V49.1166V49.1267V49.137V49.1475V49.1582V49.1691V49.1801V49.1913V49.2028V49.2144V49.2262V49.2381V49.2503V49.2626V49.2752V49.2879V49.3007V49.3138V49.327V49.3405V49.354V49.3678V49.3817V49.3959V49.4101V49.4246V49.4392V49.454V49.469V49.4841V49.4994V49.5149V49.5305V49.5463V49.5622V49.5784V49.5947V49.6111V49.6277V49.6445V49.6614V49.6785V49.6957V49.7131V49.7307V49.7484V49.7662V49.7843V49.8024V49.8207V49.8392V49.8578V49.8766V49.8955V49.9146V49.9338V49.9531V49.9726V49.9923V50.0121V50.032V50.0521V50.0723V50.0926V50.1131V50.1338V50.1545V50.1754V50.1965V50.2176V50.2389V50.2604V50.2819V50.3037V50.3255V50.3474V50.3695V50.3918V50.4141V50.4366V50.4592V50.4819V50.5048V50.5277V50.5508V50.574V50.5974V50.6208V50.6444V50.6681V50.6919V50.7158V50.7399V50.764V50.7883V50.8127V50.8372V50.8618V50.8865V50.9113V50.9362V50.9613V50.9864V51.0117V51.0371V51.0625V51.0881V51.1138V51.1395V51.1654V51.1914V51.2175V51.2436V51.2699V51.2963V51.3228V51.3493V51.376V51.4027V51.4296V51.4565V51.4835V51.5107V51.5379V51.5652V51.5925V51.62V51.6476V51.6752V51.7029V51.7308V51.7587V51.7866V51.8147V51.8428V51.871V51.8993V51.9277V51.9562V51.9847V52.0133V52.042V52.0707V52.0996V52.1285V52.1574V52.1865V52.2156V52.2448V52.274V52.3033V52.3327V52.3621V52.3916V52.4212V52.4508V52.4805V52.5103V52.5401V52.57V52.5999V52.6299V52.66V52.6901V52.7203V52.7505V52.7807V52.8111V52.8414V52.8719V52.9024V52.9329V52.9635V52.9941V53.0248V53.0555V53.0862V53.117V53.1479V53.1788V53.2097V53.2407V53.2717V53.3028V53.3339V53.365V53.3962V53.4274V53.4586V53.4899V53.5212V53.5526V53.5839V53.6153V53.6468V53.6782V53.7097V53.7413V53.7728V53.8044V53.836V53.8676V53.8993V53.9309V53.9626V53.9944V54.0261V54.0578V54.0896V54.1214V54.1532V54.185V54.2169V54.2487V54.2806V54.3125V54.3444V54.3763V54.4082V54.4401V54.4721V54.504V54.5359V54.5679V54.5999V54.6318V54.6638V54.6958V54.7277V54.7597V54.7917V54.8236V54.8556V54.8876V54.9195V54.9515V54.9835V55.0154V55.0474V55.0793V55.1112V55.1432V55.1751V55.207V55.2388V55.2707V55.3026V55.3344V55.3663V55.3981V55.4299V55.4617V55.4934V55.5252V55.5569V55.5886V55.6203V55.652V55.6836V55.7152V55.7468V55.7784V55.8099V55.8415V55.8729V55.9044V55.9358V55.9672V55.9986V56.0299V56.0612V56.0925V56.1237V56.1549V56.1861V56.2172V56.2483V56.2793V56.3103V56.3413V56.3722V56.4031V56.4339V56.4647V56.4954V56.5261V56.5568V56.5874V56.618V56.6485V56.6789V56.7093V56.7397V56.77V56.8002V56.8304V56.8606V56.8907V56.9207V56.9507V56.9806V57.0105V57.0402V57.07V57.0997V57.1293V57.1588V57.1883V57.2177V57.2471V57.2764V57.3056V57.3347V57.3638V57.3928V57.4218V57.4506V57.4794V57.5082V57.5368V57.5654V57.5939V57.6223V57.6507V57.6789V57.7071V57.7352V57.7633V57.7912V57.8191V57.8468V57.8745V57.9022V57.9297V57.9571V57.9845V58.0117V58.0389V58.066V58.093V58.1199V58.1467V58.1734V58.2V58.2266V58.253V58.2793V58.3056V58.3317V58.3577V58.3837V58.4095V58.4353V58.4609V58.4864V58.5119V58.5372V58.5624V58.5875V58.6125V58.6374V58.6622V58.6869V58.7114V58.7359V58.7602V58.7844V58.8086V58.8326V58.8564V58.8802V58.9039V58.9274V58.9508V58.9741V58.9973V59.0203V59.0432V59.066V59.0887V59.1113V59.1337V59.156V59.1782V59.2002V59.2221V59.2439V59.2656V59.2871V59.3085V59.3297V59.3508V59.3718V59.3927V59.4134V59.434V59.4544V59.4747V59.4949V59.5149V59.5348V59.5545V59.5741V59.5935V59.6128V59.632V59.651V59.6699V59.6886V59.7071V59.7255V59.7438V59.7619V59.7799V59.7977V59.8153V59.8328V59.8502V59.8673V59.8844V59.9012V59.9179V59.9345V59.9509V59.9671V59.9832V59.9991V60.0148V60.0304V60.0458V60.061V60.0761V60.091V60.1057V60.1203V60.1346V60.1489V60.1629V60.1768V60.1905V60.204V60.2173V60.2305V60.2435V60.2563V60.269V60.2814V60.2937V60.3058V60.3177V60.3294V60.3409V60.3523V60.3635V60.3745V60.3852V60.3959V60.4063V60.4165V60.4265V60.4364V60.446V60.4555V60.4647V60.4738V60.4827V60.4914V60.4998V60.5081V60.5162V60.5241V60.5318V60.5392V60.5465V60.5536V60.5604V60.5671V60.5736V60.5798V60.5858V60.5917V60.5973V60.6027V60.6079V60.6129V60.6177V60.6222V60.6266V60.6307V60.6346V60.6383V60.6418V60.6451V60.6481V60.6509V60.6535V60.6559V60.6581V60.66V60.6617V60.6632V60.6645V60.6663C82.1902 60.6664 82.1902 60.6673 83.1902 60.6673L82.1902 60.6663V61.6673H83.1902H104.047C106.997 61.6673 108.957 64.1469 108.425 66.6913Z" fill="white" fill-opacity="0.15"/>
<path d="M82.1902 60.6663V60.6645V60.6632V60.6617V60.66V60.6581V60.6559V60.6535V60.6509V60.6481V60.6451V60.6418V60.6383V60.6346V60.6307V60.6266V60.6222V60.6177V60.6129V60.6079V60.6027V60.5973V60.5917V60.5858V60.5798V60.5736V60.5671V60.5604V60.5536V60.5465V60.5392V60.5318V60.5241V60.5162V60.5081V60.4998V60.4914V60.4827V60.4738V60.4647V60.4555V60.446V60.4364V60.4265V60.4165V60.4063V60.3959V60.3852V60.3745V60.3635V60.3523V60.3409V60.3294V60.3177V60.3058V60.2937V60.2814V60.269V60.2563V60.2435V60.2305V60.2173V60.204V60.1905V60.1768V60.1629V60.1489V60.1346V60.1203V60.1057V60.091V60.0761V60.061V60.0458V60.0304V60.0148V59.9991V59.9832V59.9671V59.9509V59.9345V59.9179V59.9012V59.8844V59.8673V59.8502V59.8328V59.8153V59.7977V59.7799V59.7619V59.7438V59.7255V59.7071V59.6886V59.6699V59.651V59.632V59.6128V59.5935V59.5741V59.5545V59.5348V59.5149V59.4949V59.4747V59.4544V59.434V59.4134V59.3927V59.3718V59.3508V59.3297V59.3085V59.2871V59.2656V59.2439V59.2221V59.2002V59.1782V59.156V59.1337V59.1113V59.0887V59.066V59.0432V59.0203V58.9973V58.9741V58.9508V58.9274V58.9039V58.8802V58.8564V58.8326V58.8086V58.7844V58.7602V58.7359V58.7114V58.6869V58.6622V58.6374V58.6125V58.5875V58.5624V58.5372V58.5119V58.4864V58.4609V58.4353V58.4095V58.3837V58.3577V58.3317V58.3056V58.2793V58.253V58.2266V58.2V58.1734V58.1467V58.1199V58.093V58.066V58.0389V58.0117V57.9845V57.9571V57.9297V57.9022V57.8745V57.8468V57.8191V57.7912V57.7633V57.7352V57.7071V57.6789V57.6507V57.6223V57.5939V57.5654V57.5368V57.5082V57.4794V57.4506V57.4218V57.3928V57.3638V57.3347V57.3056V57.2764V57.2471V57.2177V57.1883V57.1588V57.1293V57.0997V57.07V57.0402V57.0105V56.9806V56.9507V56.9207V56.8907V56.8606V56.8304V56.8002V56.77V56.7397V56.7093V56.6789V56.6485V56.618V56.5874V56.5568V56.5261V56.4954V56.4647V56.4339V56.4031V56.3722V56.3413V56.3103V56.2793V56.2483V56.2172V56.1861V56.1549V56.1237V56.0925V56.0612V56.0299V55.9986V55.9672V55.9358V55.9044V55.8729V55.8415V55.8099V55.7784V55.7468V55.7152V55.6836V55.652V55.6203V55.5886V55.5569V55.5252V55.4934V55.4617V55.4299V55.3981V55.3663V55.3344V55.3026V55.2707V55.2388V55.207V55.1751V55.1432V55.1112V55.0793V55.0474V55.0154V54.9835V54.9515V54.9195V54.8876V54.8556V54.8236V54.7917V54.7597V54.7277V54.6958V54.6638V54.6318V54.5999V54.5679V54.5359V54.504V54.4721V54.4401V54.4082V54.3763V54.3444V54.3125V54.2806V54.2487V54.2169V54.185V54.1532V54.1214V54.0896V54.0578V54.0261V53.9944V53.9626V53.9309V53.8993V53.8676V53.836V53.8044V53.7728V53.7413V53.7097V53.6782V53.6468V53.6153V53.5839V53.5526V53.5212V53.4899V53.4586V53.4274V53.3962V53.365V53.3339V53.3028V53.2717V53.2407V53.2097V53.1788V53.1479V53.117V53.0862V53.0555V53.0248V52.9941V52.9635V52.9329V52.9024V52.8719V52.8414V52.8111V52.7807V52.7505V52.7203V52.6901V52.66V52.6299V52.5999V52.57V52.5401V52.5103V52.4805V52.4508V52.4212V52.3916V52.3621V52.3327V52.3033V52.274V52.2448V52.2156V52.1865V52.1574V52.1285V52.0996V52.0707V52.042V52.0133V51.9847V51.9562V51.9277V51.8993V51.871V51.8428V51.8147V51.7866V51.7587V51.7308V51.7029V51.6752V51.6476V51.62V51.5925V51.5652V51.5379V51.5107V51.4835V51.4565V51.4296V51.4027V51.376V51.3493V51.3228V51.2963V51.2699V51.2436V51.2175V51.1914V51.1654V51.1395V51.1138V51.0881V51.0625V51.0371V51.0117V50.9864V50.9613V50.9362V50.9113V50.8865V50.8618V50.8372V50.8127V50.7883V50.764V50.7399V50.7158V50.6919V50.6681V50.6444V50.6208V50.5974V50.574V50.5508V50.5277V50.5048V50.4819V50.4592V50.4366V50.4141V50.3918V50.3695V50.3474V50.3255V50.3037V50.2819V50.2604V50.2389V50.2176V50.1965V50.1754V50.1545V50.1338V50.1131V50.0926V50.0723V50.0521V50.032V50.0121V49.9923V49.9726V49.9531V49.9338V49.9146V49.8955V49.8766V49.8578V49.8392V49.8207V49.8024V49.7843V49.7662V49.7484V49.7307V49.7131V49.6957V49.6785V49.6614V49.6445V49.6277V49.6111V49.5947V49.5784V49.5622V49.5463V49.5305V49.5149V49.4994V49.4841V49.469V49.454V49.4392V49.4246V49.4101V49.3959V49.3817V49.3678V49.354V49.3405V49.327V49.3138V49.3007V49.2879V49.2752V49.2626V49.2503V49.2381V49.2262V49.2144V49.2028V49.1913V49.1801V49.1691V49.1582V49.1475V49.137V49.1267V49.1166V49.1067V49.097V49.0875V49.0781V49.069V49.06C82.1902 46.8195 81.5933 45.2552 80.7605 44.1435C79.9201 43.0218 78.7852 42.2892 77.6025 41.813C76.417 41.3356 75.2159 41.1294 74.2998 41.0451C74.1053 41.0272 73.925 41.0149 73.762 41.0067V44.436C73.762 50.1161 72.4085 54.7775 71.0537 58.0212C70.3761 59.6435 69.6969 60.9142 69.1834 61.7845C68.9266 62.2198 68.711 62.5553 68.5573 62.785C68.5371 62.8152 68.518 62.8435 68.5 62.87V100.906H99.9328C101.957 100.906 103.732 99.5317 104.211 97.6595L108.413 66.7609L108.418 66.7259L108.425 66.6913C108.957 64.1469 106.997 61.6673 104.047 61.6673H83.1902H82.1902V60.6663ZM82.1902 60.6663C82.1902 60.6664 82.1902 60.6673 83.1902 60.6673L82.1902 60.6663Z" stroke="#166FC2" stroke-width="2"/>
<path d="M34.5166 48.8472H56.4122V92.6383H34.5166V48.8472Z" stroke="white" stroke-width="3"/>
<path d="M56.4121 92.6365H90.29C92.9503 92.6365 95.2493 90.8302 95.8077 88.3122L100.192 55.4689C100.948 52.0586 98.2709 48.8454 94.6746 48.8454H72.8338C72.8338 48.8454 72.8338 38.1495 72.8338 36.5292C72.8338 26.2657 61.886 26.9499 61.886 26.9499C61.886 28.3184 61.886 29.4515 61.886 31.7396C61.886 43.3716 56.4121 50.8982 56.4121 50.8982" stroke="white" stroke-width="3" stroke-linecap="round" stroke-linejoin="round"/>
</g>
<defs>
<clipPath id="clip0_2_87">
<rect width="136" height="136" fill="white" transform="translate(0.5)"/>
</clipPath>
</defs>
</svg>
