<svg width="111" height="110" viewBox="0 0 111 110" fill="none" xmlns="http://www.w3.org/2000/svg">
<g clip-path="url(#clip0_2_24)">
<path d="M110.5 0H0.5V110H110.5V0Z" fill="#166FC2"/>
<path d="M62.5002 79.9702C73.8437 79.9702 83.0395 70.7744 83.0395 59.4309C83.0395 48.0874 73.8437 38.8916 62.5002 38.8916C51.1567 38.8916 41.9609 48.0874 41.9609 59.4309C41.9609 70.7744 51.1567 79.9702 62.5002 79.9702Z" fill="white" fill-opacity="0.15"/>
<path d="M33.5 65V53C33.5 40.9 43.4 31 55.5 31C67.6 31 77.5 40.9 77.5 53V65" stroke="white" stroke-width="3"/>
<path d="M73.5 71C73.5 75.42 69.92 79 65.5 79H57.5M73.5 71H69.5V59H77.5V67C77.5 69.208 75.708 71 73.5 71ZM37.5 71H41.5V59H33.5V67C33.5 69.208 35.292 71 37.5 71Z" stroke="white" stroke-width="3" stroke-linecap="round" stroke-linejoin="round"/>
</g>
<defs>
<clipPath id="clip0_2_24">
<rect width="110" height="110" fill="white" transform="translate(0.5)"/>
</clipPath>
</defs>
</svg>
