<svg width="137" height="136" viewBox="0 0 137 136" fill="none" xmlns="http://www.w3.org/2000/svg">
<g clip-path="url(#clip0_2_93)">
<path d="M136.5 0H0.5V136H136.5V0Z" fill="#166FC2"/>
<path d="M63.3203 101.011C63.3203 101.011 32.8895 81.9002 32.8895 56.7478V38.8656C32.8895 36.3315 34.5936 34.1295 37.0502 33.5043C43.3743 31.8942 55.4968 29.0835 63.3203 29.0835C71.1437 29.0835 83.2663 31.8942 89.5903 33.5043C92.0414 34.135 93.751 36.3371 93.751 38.8656V56.7478C93.751 81.4355 63.3203 101.011 63.3203 101.011Z" stroke="white" stroke-width="4.0551"/>
<path d="M73.6797 108.916C73.6797 108.916 43.249 89.806 43.249 64.6536V46.7714C43.249 44.2373 44.9531 42.0352 47.4097 41.41C53.7337 39.8 65.8562 36.9893 73.6797 36.9893C81.5032 36.9893 93.6257 39.8 99.9497 41.41C102.401 42.0408 104.11 44.2428 104.11 46.7714V64.6536C104.11 89.3412 73.6797 108.916 73.6797 108.916Z" fill="white" fill-opacity="0.15"/>
<path d="M85.4518 46.3733L59.8623 71.9628L49.8274 62.7703" stroke="white" stroke-width="4.0551"/>
</g>
<defs>
<clipPath id="clip0_2_93">
<rect width="136" height="136" fill="white" transform="translate(0.5)"/>
</clipPath>
</defs>
</svg>
