<svg width="80" height="80" viewBox="0 0 80 80" fill="none" xmlns="http://www.w3.org/2000/svg">
<rect width="80" height="80" fill="#1A1E1C"/>
<path d="M20.7853 25.9516C20.7853 24.7193 21.2181 23.7027 22.0836 22.9017C22.9491 22.1007 24.0743 21.7002 25.4592 21.7002C26.8193 21.7002 27.9197 22.0945 28.7605 22.8832C29.6261 23.6965 30.0588 24.7563 30.0588 26.0625C30.0588 27.2456 29.6384 28.2314 28.7976 29.0201C27.9321 29.8334 26.7946 30.24 25.385 30.24H25.3479C23.9878 30.24 22.8873 29.8334 22.0465 29.0201C21.2057 28.2067 20.7853 27.1839 20.7853 25.9516ZM21.2676 58.2995V33.6042H29.5024V58.2995H21.2676ZM34.065 58.2995H42.2998V44.5101C42.2998 43.6475 42.3988 42.982 42.5966 42.5138C42.9428 41.6758 43.4683 40.9672 44.1731 40.388C44.8779 39.8089 45.7619 39.5193 46.8253 39.5193C49.595 39.5193 50.9798 41.38 50.9798 45.1016V58.2995H59.2147V44.1404C59.2147 40.4928 58.3492 37.7263 56.6181 35.8409C54.887 33.9554 52.5996 33.0127 49.7557 33.0127C46.5656 33.0127 44.0803 34.3806 42.2998 37.1163V37.1902H42.2627L42.2998 37.1163V33.6042H34.065C34.1144 34.3929 34.1392 36.8452 34.1392 40.9611C34.1392 45.0769 34.1144 50.8564 34.065 58.2995Z" fill="white"/>
</svg>
