<svg width="80" height="80" viewBox="0 0 80 80" fill="none" xmlns="http://www.w3.org/2000/svg">
<rect width="80" height="80" fill="#1A1E1C"/>
<path d="M41.4581 57.4957L31.4272 57.3102C28.1793 57.2457 24.9234 57.3747 21.7393 56.7053C16.8954 55.7052 16.5523 50.8015 16.1932 46.6882C15.6984 40.9054 15.8899 35.0177 16.8236 29.2833C17.3503 26.0652 19.4251 24.1457 22.6331 23.936C33.4621 23.1778 44.3629 23.2665 55.1679 23.6214C56.3091 23.6537 57.4582 23.8311 58.5834 24.0327C64.1376 25.0167 64.2732 30.5737 64.6323 35.2516C64.9914 39.9778 64.8398 44.7283 64.1535 49.4223C63.6029 53.3098 62.5495 56.5682 58.1046 56.8827C52.5345 57.294 47.0921 57.6247 41.506 57.5199C41.506 57.4957 41.4741 57.4957 41.4581 57.4957V57.4957ZM35.5609 47.656C39.7584 45.2203 43.8761 42.8249 48.0497 40.4053C43.8442 37.9696 39.7344 35.5742 35.5609 33.1546V47.656Z" fill="white"/>
</svg>
