<svg width="136" height="136" viewBox="0 0 136 136" fill="none" xmlns="http://www.w3.org/2000/svg">
<g clip-path="url(#clip0_4_212)">
<path d="M136 0H0V136H136V0Z" fill="#166FC2"/>
<path fill-rule="evenodd" clip-rule="evenodd" d="M28.4526 74.0733C26.1718 77.8096 26.8322 80.4193 27.6403 82.9725L64.6346 108.916L98.9707 94.1342L96.3124 92.3242L95.7217 89.3075C96.6669 88.3754 97.5575 87.4544 98.1584 86.5925C98.3237 85.5655 99.0837 84.2346 97.7892 83.9529L58.5797 64.3446L31.7754 73.0175L30.5201 74.2242L28.4526 74.0733Z" fill="white" stroke="#FF6600" stroke-width="0.29055"/>
<path fill-rule="evenodd" clip-rule="evenodd" d="M58.7826 63.5061L30.8321 72.2918C30.8321 72.2918 30.4794 73.2111 30.0783 73.39C29.4931 73.6511 28.1806 73.1251 28.1806 73.1251C27.0151 73.6762 26.1565 76.0735 26.0236 78.2845C25.8906 80.4955 26.3322 82.6739 27.045 83.489L64.0105 109.781C64.5639 110.101 64.8449 110.003 65.1265 109.906L99.7685 95.3044C100.454 94.9879 100.489 94.2377 99.9072 93.4296L96.5101 91.0215C96.7839 92.2815 96.9861 93.4706 96.843 94.1629C90.0771 96.9314 74.3357 103.445 65.3746 107.351C64.6774 106.36 64.5994 104.839 64.4625 103.497C64.31 102.003 64.4549 100.002 65.0303 99.1157C65.6057 98.2294 66.3024 99.1057 66.7566 98.889C67.1229 98.7143 67.6867 98.316 67.9918 97.8508C74.9525 95.471 90.2909 89.1437 99.6445 85.4254C100.317 84.7201 99.9483 84.2805 99.5287 83.8539L58.7826 63.5061ZM58.6456 65.2826L96.7483 84.7022L66.9687 96.3176C66.9687 96.3176 66.5608 97.0142 66.1953 97.1476C65.8789 97.263 65.3946 96.8149 65.0482 96.6926C64.6221 96.5421 63.9121 96.8175 63.6075 97.3025C62.8822 98.4571 62.4437 99.8692 62.2124 101.215C61.934 102.836 62.1555 104.41 62.5763 105.838L29.2983 82.4524C28.5387 81.9249 27.7923 80.3541 27.8918 78.6995C27.9927 77.0219 28.3952 75.2927 29.4729 74.7616C29.4729 74.7616 30.6894 75.201 31.0671 75.0849C31.4922 74.9541 32.0069 74.0233 32.0069 74.0233L58.6456 65.2826ZM31.8279 76.01C31.1823 76.286 41.9875 82.7381 47.6628 86.2054C53.1278 89.5442 64.8312 96.5886 65.1755 96.031C65.5198 95.4734 53.7601 88.8375 48.3171 85.5004C42.8079 82.1228 32.4734 75.7339 31.8279 76.01Z" fill="#166FC2"/>
<path fill-rule="evenodd" clip-rule="evenodd" d="M98.8434 85.7421L68.0179 97.8241C67.7816 98.025 67.1109 98.7845 66.6783 98.8774C66.1694 98.9866 65.632 98.2985 64.9976 99.0807C64.4649 100.634 64.4014 101.7 64.5767 103.149C64.8065 105.048 64.9183 105.59 65.5312 107.273L96.794 94.3212C97.2247 92.9399 96.5899 91.5824 96.3861 90.3532C96.3182 89.8958 96.329 89.4919 96.5378 88.9817C96.7467 88.4715 97.4741 88.142 98.2429 87.2786C98.699 86.7664 98.7998 86.2542 98.8434 85.7421ZM97.06 87.3702C97.1683 87.975 96.0959 87.8891 95.5735 88.5601C95.4639 88.7009 95.3801 88.8622 95.3108 89.0301C94.9125 89.1684 93.3834 89.6977 92.5696 90.0049C89.1827 91.2839 82.4247 93.9019 82.5087 94.1095C82.5928 94.3172 89.2289 91.4587 92.6071 90.3333C93.4735 90.0446 94.8067 89.6216 95.1721 89.505C95.0686 89.9621 95.0536 90.3967 95.0808 90.5799C95.2467 91.6987 95.4062 92.4787 95.3891 93.2629L66.1985 105.655C65.7732 104.604 65.477 103.608 65.4153 102.535C65.7444 102.409 73.2215 99.5439 77.1487 97.8458C80.5992 96.3538 87.7912 93.7591 87.6518 93.5479C87.5123 93.3367 80.3725 95.9081 76.9317 97.5058C73.2395 99.2203 66.3005 101.826 65.4007 102.08C65.4062 101.407 65.5042 100.699 65.7352 99.9189C65.9513 99.947 66.7747 99.9895 66.9948 99.9539C67.4863 99.8744 67.8329 99.4372 68.3246 98.9407C69.4211 98.5141 97.06 87.3702 97.06 87.3702ZM82.5544 97.3192C78.905 98.8215 69.3419 102.904 69.3248 103.094C69.3078 103.283 79.0831 99.1981 82.6964 97.6958C86.0192 96.3143 94.3703 93.1419 93.7481 93.1101C93.1259 93.0782 85.6448 96.047 82.5544 97.3192Z" fill="#166FC2"/>
<path fill-rule="evenodd" clip-rule="evenodd" d="M29.7817 59.2917L32.5138 58.5375L61.6072 58.3112L94.0234 78.523L92.6942 79.2771L91.3651 83.2742C91.7466 84.3552 91.7152 86.2797 92.6204 86.2909L52.1555 96.4722L27.9357 67.3613C28.2941 64.5839 27.3023 61.3469 29.7817 59.2917Z" fill="white" stroke="#FF0000" stroke-width="0.29055"/>
<path fill-rule="evenodd" clip-rule="evenodd" d="M61.8469 57.5167L32.0738 57.8117C31.8803 58.0932 31.4182 58.5081 31.1927 58.5599C30.9555 58.6144 30.3125 58.0815 29.9184 58.2366C28.1308 58.9402 27.9476 61.083 27.6405 62.2712C27.0886 64.4074 27.5807 67.6553 28.21 68.6205C29.1498 69.7404 50.5924 95.6666 51.4107 96.4909C52.3559 97.4431 53.2218 97.573 54.7981 97.1525C61.8367 95.275 82.3201 90.7174 95.2602 87.1203C96.0234 86.7125 95.7096 86.0382 95.1509 85.4971L92.0475 83.5723C92.0619 84.439 92.1826 85.2288 92.4326 86.042C80.4076 88.8746 66.0856 92.0611 53.8892 94.8645C52.8283 94.4832 51.7536 92.7828 51.631 91.8964C51.2918 89.444 51.744 88.2809 52.2053 87.5985C52.6648 86.919 53.0182 86.5078 53.4389 86.2404C53.9037 86.2892 54.5912 86.4918 55.0004 86.3353C55.434 86.1696 55.7374 85.8462 56.0561 85.5438L94.7593 79.3744C95.3607 78.9103 94.9739 78.2603 94.6745 77.9829L61.8469 57.5167ZM61.4977 59.2932L91.7717 78.1879L55.1293 83.9423C54.7258 84.1527 54.5843 84.6319 54.4048 84.7005C54.2254 84.7691 53.6482 84.6302 53.1615 84.5822C52.1508 84.8858 50.8418 86.7578 50.5231 88.0868C49.7942 91.1264 50.3549 92.6932 51.6783 94.8561L29.6573 67.8339C29.1255 67.007 28.8241 65.6205 29.1776 63.3661C29.3529 62.2476 29.7239 61.1657 30.2871 60.2447C30.6433 60.2726 30.9606 60.5304 31.5549 60.3347C32.3202 60.0827 32.3069 59.4877 32.4899 59.4165L61.4977 59.2932ZM32.0855 61.3019C31.6746 61.6841 38.9663 68.8186 42.5622 72.6418C46.2009 76.5105 52.9982 84.5329 53.5384 84.1073C54.0786 83.6816 46.8598 75.8754 43.236 72.0252C39.7343 68.3045 32.4964 60.9198 32.0855 61.3019Z" fill="#166FC2"/>
<path fill-rule="evenodd" clip-rule="evenodd" d="M93.7053 79.5427C81.0331 81.402 62.7276 84.2241 56.0643 85.5054C55.7971 85.8802 55.3478 86.2053 54.7785 86.3403C54.5631 86.3914 54.0372 86.2891 53.4438 86.2354C52.041 87.1682 51.4423 89.0873 51.631 90.8599C51.8726 93.129 52.7792 94.0028 53.9749 94.8761C66.8066 91.9687 79.6384 89.5768 92.4701 86.0454C91.5425 83.0997 92.4136 81.357 93.7053 79.5427ZM90.9836 81.1675C90.4985 82.1292 90.4187 82.7659 90.5561 83.8456C90.2841 83.8978 87.2397 84.4802 85.6105 84.8055C83.6299 85.2009 79.7785 85.7724 79.7724 86.0654C79.7663 86.3584 83.7795 85.6876 85.746 85.2721C87.1977 84.9654 89.9028 84.6329 90.5953 84.1006C90.632 84.352 90.6658 84.5915 90.7209 84.9005L54.3657 93.6396C53.8974 93.3497 53.4944 92.7817 53.2039 92.1797C53.8275 92.0558 59.6696 90.8972 62.7525 90.4066C66.3019 89.8417 73.3712 88.2844 73.2735 88.0252C73.1757 87.766 66.5268 89.5099 62.6954 89.9183C59.5079 90.2581 53.5475 91.5256 52.9804 91.6464C52.8692 91.3273 52.7872 91.0168 52.7699 90.7532C52.6801 89.384 52.6459 88.459 53.8207 87.2486C54.0744 87.4594 54.6348 87.5971 55.0836 87.4985C55.7361 87.3552 56.0354 87.1835 56.4395 86.727L90.9836 81.1675ZM86.353 83.3123C85.7127 83.194 77.1366 84.8523 72.7073 85.5688C66.6172 86.5538 54.3769 88.1901 54.5174 88.5534C54.6579 88.9168 66.872 86.9675 73.0124 85.9304C77.6747 85.1429 86.9932 83.4306 86.353 83.3123Z" fill="#166FC2"/>
<path fill-rule="evenodd" clip-rule="evenodd" d="M60.6472 46.3199L28.8956 50.9204C27.8218 53.7499 26.1224 56.228 28.8218 61.1771L62.0502 86.9696L99.5614 75.5817L96.7555 73.9979C96.8231 71.0257 97.5586 68.4258 99.1184 65.2496L60.6472 46.3199Z" fill="white" stroke="#FF6600" stroke-width="0.29055"/>
<path fill-rule="evenodd" clip-rule="evenodd" d="M60.6753 45.8046L29.1678 50.0775C27.5495 50.5502 26.626 54.1626 26.6958 56.3468C26.7504 58.0552 27.6721 60.76 28.7191 61.9429L62.2695 88.0035L101.165 76.463C101.655 75.8126 101.415 75.4601 101.231 75.0849L97.5691 72.8151C97.5691 72.8151 97.6555 74.4466 97.5511 75.5131C87.5514 78.1938 71.7388 82.6211 62.3886 85.3105C61.8127 84.7197 61.0278 82.4385 60.9837 80.9759C60.9084 78.4794 61.2799 76.8989 62.2287 76.0231L101.315 67.034C101.769 66.7338 101.822 65.9943 101.16 65.3409L60.6753 45.8046ZM60.5693 47.1811L97.7094 65.7192L60.5415 74.165C59.2312 75.7985 58.9025 77.5895 58.9327 79.3827C58.958 80.8813 59.3569 83.0898 60.0586 84.2606L29.7894 60.4181C29.0387 59.727 28.4928 57.5366 28.4906 56.5585C28.4873 55.0503 28.9916 53.5652 29.8547 51.6723L60.5693 47.1811ZM31.5143 52.7633C30.7403 53.1088 43.9883 62.7512 43.9883 62.7512C43.9883 62.7512 59.3725 74.1941 59.5593 73.6617C59.7461 73.1292 45.0782 61.6946 45.0782 61.6946C45.0782 61.6946 32.2883 52.4179 31.5143 52.7633Z" fill="#166FC2"/>
<path fill-rule="evenodd" clip-rule="evenodd" d="M99.532 67.4307L97.8464 67.8173L62.6578 75.7998C62.0125 76.5111 60.9308 77.9228 61.2676 80.9926C61.4402 82.5651 61.8313 83.9785 62.7737 85.2355L97.556 75.5298C97.6988 74.6177 97.57 72.7887 97.6816 71.4686C97.7932 70.1485 98.215 69.6715 98.6427 68.9438L99.532 67.4307ZM96.7891 69.3305C96.6095 69.9863 96.3414 70.5975 96.2164 71.2803C95.794 71.2652 95.1693 71.2524 94.8034 71.3303C92.6521 71.788 88.362 73.0056 88.4872 73.2584C88.6124 73.5112 92.5003 72.0686 94.96 71.9119C95.3159 71.8892 95.7818 71.9144 96.1364 71.9385C96.103 72.3493 96.0855 72.6845 96.0712 73.0134C92.2495 73.9966 87.9978 75.0522 84.1877 76.0098C79.2817 77.2428 71.9803 78.8617 72.0742 79.2778C72.1681 79.6938 79.4627 77.664 84.3329 76.4397C88.1406 75.4825 92.2347 74.574 96.0565 73.5984C96.0609 73.8636 96.0761 74.1041 96.1185 74.2949L63.6727 83.3023C62.6518 82.8836 62.645 81.7664 62.5338 80.9093C62.3657 79.6135 62.3637 78.1195 63.2044 77.4263L96.7891 69.3305ZM78.175 75.1265C72.8227 76.476 63.0243 79.1243 63.1114 79.3894C63.1986 79.6546 72.9639 76.9592 78.2517 75.4932C81.048 74.7179 86.7818 73.2814 86.271 73.1428C85.7602 73.0042 80.7927 74.4665 78.175 75.1265Z" fill="#166FC2"/>
<path fill-rule="evenodd" clip-rule="evenodd" d="M65.5946 36.8174L34.9506 45.7166C34.9506 45.7166 34.5814 46.9233 34.1383 46.8479C33.6953 46.7725 31.8492 46.7725 31.8492 46.7725C30.2064 48.9122 30.1698 50.9426 31.48 52.8812L75.1939 74.7521L107.832 62.6854L106.355 61.4033L107.905 59.0654L107.979 55.37L65.5946 36.8174Z" fill="white" stroke="#FF6600" stroke-width="0.29055"/>
<path fill-rule="evenodd" clip-rule="evenodd" d="M65.6193 36.2673C55.3169 39.1955 43.6707 42.3431 34.2945 44.868C34.1117 44.9865 34.0447 45.4471 33.6451 45.8646C33.4709 46.0465 32.7407 45.6628 32.4817 45.6929C32.076 45.7401 31.6081 46.0882 31.2808 46.3829C30.8345 46.7847 30.7007 47.1788 30.5025 47.7377C30.2978 48.315 30.3034 48.9574 30.2577 49.6775C30.1664 51.1177 30.428 52.8051 31.0181 53.5971C45.4862 60.9064 60.9751 69.0425 74.8236 75.9264C75.1147 76.1567 75.7656 76.1922 76.1354 76.1281C76.5053 76.064 76.8209 75.9377 76.9366 75.6848C77.0101 75.5242 77.2299 75.217 77.4701 75.0565C77.7145 74.8932 77.9462 75.3079 78.4965 75.2982L108.749 63.4761C109.087 63.3443 109.308 62.8446 108.751 62.3862L106.822 61.1197L105.856 62.5978C96.8718 65.7514 86.7247 69.554 77.2238 73.1084C76.4984 72.9501 75.6591 71.3893 75.6149 70.6537C75.5657 69.8331 75.9724 68.8897 76.2219 68.4839C86.7671 64.4724 98.2487 60.4862 109.661 56.3535C110.197 56.045 110.042 55.5592 109.578 54.9953L65.6193 36.2673ZM65.5687 37.6305L106.597 55.9052L75.9951 66.6791C75.2938 66.9494 74.8597 67.5281 74.4907 68.0789C74.0107 68.7954 73.6813 69.8639 73.7581 71.1436C73.8291 72.3271 74.1173 73.1243 74.5086 73.765L32.312 52.4156C31.7552 51.5791 31.778 50.8171 31.8323 49.8142C31.875 49.0253 32.0863 48.3339 32.5388 47.7494C32.5922 47.6804 33.1944 47.2115 33.8213 47.5744C34.0806 47.7245 34.3327 47.7296 34.7742 47.4061C35.3179 47.0077 35.1282 46.6429 35.5036 46.3345L65.5687 37.6305ZM35.2343 47.3561C35.1289 47.3359 35.0662 47.3405 35.0483 47.3694C34.7623 47.8329 47.0947 53.8229 53.2072 56.8684C59.9624 60.2343 73.4221 66.948 73.6618 66.5608C73.9016 66.1735 60.2652 59.4175 53.4683 56.0485C47.7648 53.2216 36.8163 47.6586 35.2343 47.3561Z" fill="#166FC2"/>
<path fill-rule="evenodd" clip-rule="evenodd" d="M108.609 56.7534C97.4468 60.4825 81.9947 66.3918 76.3198 68.3856C75.6777 69.1062 75.7248 70.0235 75.938 70.8686C76.1512 71.7138 76.8321 72.8897 77.3266 73.0934L106.114 62.5562C106.333 62.2465 107.255 61.3746 107.871 60.4064C108.179 59.9223 108.418 59.126 108.539 58.5983C108.66 58.0705 108.858 57.1345 108.609 56.7534ZM107.535 57.8383C107.749 58.5301 107.278 59.0718 106.959 59.6048C106.451 60.4531 105.776 61.3019 105.329 61.9096L77.7051 72.0268C77.2601 71.7885 76.9026 71.2709 76.7473 70.6553C76.5879 70.0234 76.6409 69.3477 76.8191 69.0588L107.535 57.8383ZM92.8927 63.8544C88.0935 65.6434 78.4341 68.8294 78.5731 69.3588C78.7122 69.8882 88.3087 66.0313 93.1521 64.2193C97.7087 62.5147 106.374 59.2747 106.202 59.0575C106.03 58.8403 97.2072 62.2461 92.8927 63.8544ZM105.336 60.9513C105.231 60.8194 101.751 62.0584 100.039 62.7245C98.4281 63.3514 77.5826 70.9698 77.679 71.2319C77.7754 71.4941 98.6834 63.7228 100.314 63.0961C102.011 62.4434 105.44 61.0833 105.336 60.9513Z" fill="#166FC2"/>
<path fill-rule="evenodd" clip-rule="evenodd" d="M68.1052 26.4854L33.843 33.4237C31.3376 35.8965 30.4456 38.9971 32.0708 43.077L66.8499 66.7579L107.241 56.3504L103.697 53.7862L103.401 49.8646L106.65 45.3396L68.1052 26.4854Z" fill="white" stroke="#FF6600" stroke-width="0.29055"/>
<path fill-rule="evenodd" clip-rule="evenodd" d="M68.2512 26L33.0169 33.0009C33.0169 33.0009 30.6977 35.6845 30.7342 38.447C30.7697 41.1329 31.0793 42.7283 31.8323 43.4982C32.9299 44.2795 66.8447 67.7106 66.8447 67.7106L107.715 56.7268C108.136 56.1981 107.826 55.7939 107.512 55.3903L104.385 53.9554L104.657 55.4153C92.6156 58.6795 79.9002 62.0486 67.6736 65.1476C67.5073 64.424 66.9285 62.4004 66.8741 61.6929C66.6661 58.9917 68.4246 56.5221 68.6559 56.2085L107.289 46.8611C107.712 46.28 107.591 45.5113 107.137 45.058L68.2512 26ZM68.1517 27.2549L104.912 45.5063L67.8775 54.967C67.8775 54.967 65.0833 57.8208 65.3272 61.6379C65.4167 63.0375 66.1401 65.0003 66.2736 65.5325L33.2339 43.0282C32.5593 42.313 32.3436 40.8635 32.3104 38.3554C32.2889 36.7322 33.5397 34.5485 33.7283 34.3791L68.1517 27.2549ZM34.3483 34.5958C34.1544 34.9974 44.8417 41.4751 50.1951 44.7314C55.862 48.1783 66.9021 55.1418 67.4093 54.7053C67.9164 54.2689 56.3887 47.505 50.7711 44.0881C45.3684 40.8018 34.5423 34.1941 34.3483 34.5958Z" fill="#166FC2"/>
<path fill-rule="evenodd" clip-rule="evenodd" d="M106.527 46.7745C106.411 46.7883 106.286 46.8463 106.22 46.8628L68.9512 56.1269C68.0867 57.5929 67.2254 59.0442 67.0617 60.618C66.908 62.0965 67.6305 64.0412 67.8906 65.3492L104.662 55.4836C104.382 54.0252 104.195 52.6915 104.179 51.509C104.16 50.0697 104.806 49.0081 105.44 48.2643C105.758 47.8925 106 47.8075 106.25 47.6244C106.458 47.4714 106.7 47.3482 106.785 47.2011C106.824 47.1323 106.809 47.0788 106.783 46.9478C106.752 46.7905 106.643 46.7607 106.527 46.7745ZM103.285 48.641C102.72 49.3462 102.572 49.8678 102.538 50.4158C100.074 50.783 92.206 52.5277 87.9357 53.5255C82.9697 54.6858 73.0549 57.1626 73.1299 57.4234C73.2049 57.6842 83.1626 55.3059 88.1494 54.1404C92.4114 53.1443 100.084 51.4035 102.529 50.6708C102.528 50.998 102.544 51.341 102.546 51.7556C102.552 53.5638 102.806 54.1925 102.875 54.517L68.5759 63.2778C68.4577 62.9532 68.3865 62.6903 68.3328 62.4429C69.0625 62.4493 71.295 62.0164 72.4854 61.7179C74.0308 61.3304 79.1731 59.8459 79.1508 59.6315C79.1284 59.4171 73.8725 60.8294 72.2814 61.228C71.1125 61.5208 68.9673 61.9508 68.2969 62.2362C68.2179 61.7506 68.2285 61.3007 68.2724 60.5947C68.3782 58.8929 69.14 57.8658 69.2661 57.6717L103.285 48.641ZM82.8334 56.9134C78.5045 57.8848 69.9165 59.6589 69.9367 60.0398C69.9569 60.4206 78.683 58.5146 83.0113 57.5434C87.8182 56.4648 97.4341 54.1477 96.7508 54.026C96.0675 53.9042 87.3393 55.9024 82.8334 56.9134Z" fill="#166FC2"/>
</g>
<defs>
<clipPath id="clip0_4_212">
<rect width="136" height="136" fill="white"/>
</clipPath>
</defs>
</svg>
