<svg width="136" height="136" viewBox="0 0 136 136" fill="none" xmlns="http://www.w3.org/2000/svg">
<rect width="136" height="136" fill="#079561"/>
<path d="M83.5049 92.3194V97.9596C83.5049 101.073 80.978 103.6 77.8646 103.6H72.2243C69.1109 103.6 66.5841 101.073 66.5841 97.9596V92.3194H83.5049ZM94.7854 61.2979C94.7854 50.3952 85.9471 41.5569 75.0445 41.5569C64.1418 41.5569 55.3035 50.3952 55.3035 61.2979C55.3035 75.3985 66.5841 75.3985 66.5841 92.3194H83.5049C83.5049 75.3985 94.7854 75.3985 94.7854 61.2979Z" fill="white" fill-opacity="0.15"/>
<path d="M106.066 64.118H111.706Z" fill="white" fill-opacity="0.15"/>
<path d="M42.1782 88.7374L40.8749 90.0407L43.4815 92.6473L44.7848 91.344L42.1782 88.7374ZM48.7725 87.3563L50.0758 86.053L47.4692 83.4464L46.1659 84.7497L48.7725 87.3563ZM101.316 40.8797L100.013 42.183L102.62 44.7896L103.923 43.4863L101.316 40.8797ZM107.911 39.4986L109.214 38.1953L106.607 35.5887L105.304 36.892L107.911 39.4986ZM44.7848 36.892L43.4815 35.5887L40.8749 38.1953L42.1782 39.4986L44.7848 36.892ZM46.1659 43.4863L47.4692 44.7896L50.0758 42.183L48.7725 40.8797L46.1659 43.4863ZM103.923 84.7497L102.62 83.4464L100.013 86.053L101.316 87.3563L103.923 84.7497ZM105.304 91.344L106.607 92.6473L109.214 90.0407L107.911 88.7374L105.304 91.344ZM38.3827 62.2748H36.5395V65.9612H38.3827V62.2748ZM44.023 65.9612H45.8662V62.2748H44.023V65.9612ZM106.066 62.2748H104.223V65.9612H106.066V62.2748ZM111.706 65.9612H113.549V62.2748H111.706V65.9612ZM81.6617 92.3194V97.9596H85.3481V92.3194H81.6617ZM81.6617 97.9596C81.6617 100.055 79.9601 101.757 77.8646 101.757V105.443C81.996 105.443 85.3481 102.091 85.3481 97.9596H81.6617ZM77.8646 101.757H72.2243V105.443H77.8646V101.757ZM72.2243 101.757C70.1289 101.757 68.4273 100.055 68.4273 97.9596H64.7409C64.7409 102.091 68.0929 105.443 72.2243 105.443V101.757ZM68.4273 97.9596V92.3194H64.7409V97.9596H68.4273ZM66.5841 94.1625H83.5049V90.4762H66.5841V94.1625ZM96.6286 61.2979C96.6286 49.3773 86.9651 39.7137 75.0445 39.7137V43.4001C84.9292 43.4001 92.9422 51.4132 92.9422 61.2979H96.6286ZM75.0445 39.7137C63.1239 39.7137 53.4603 49.3773 53.4603 61.2979H57.1467C57.1467 51.4132 65.1598 43.4001 75.0445 43.4001V39.7137ZM53.4603 61.2979C53.4603 68.9986 56.6308 72.9544 59.4531 76.8352C60.8513 78.7576 62.1465 80.6323 63.1141 83.0112C64.0746 85.3722 64.7409 88.3068 64.7409 92.3194H68.4273C68.4273 87.8716 67.6835 84.4608 66.5288 81.6222C65.3814 78.8014 63.8564 76.6222 62.4344 74.667C59.6165 70.7923 57.1467 67.6978 57.1467 61.2979H53.4603ZM85.3481 92.3194C85.3481 88.3068 86.0144 85.3722 86.9748 83.0112C87.9425 80.6323 89.2377 78.7576 90.6358 76.8352C93.4582 72.9544 96.6286 68.9986 96.6286 61.2979H92.9422C92.9422 67.6978 90.4724 70.7923 87.6545 74.667C86.2325 76.6222 84.7076 78.8014 83.5601 81.6222C82.4054 84.4608 81.6617 87.8716 81.6617 92.3194H85.3481ZM44.7848 91.344L48.7725 87.3563L46.1659 84.7497L42.1782 88.7374L44.7848 91.344ZM103.923 43.4863L107.911 39.4986L105.304 36.892L101.316 40.8797L103.923 43.4863ZM42.1782 39.4986L46.1659 43.4863L48.7725 40.8797L44.7848 36.892L42.1782 39.4986ZM101.316 87.3563L105.304 91.344L107.911 88.7374L103.923 84.7497L101.316 87.3563ZM38.3827 65.9612H44.023V62.2748H38.3827V65.9612ZM106.066 65.9612H111.706V62.2748H106.066V65.9612Z" fill="#079561"/>
<path d="M34.0893 82.9419L32.786 84.2453L35.3926 86.8519L36.696 85.5486L34.0893 82.9419ZM40.6836 81.5609L41.987 80.2576L39.3803 77.6509L38.077 78.9543L40.6836 81.5609ZM93.2275 35.0842L91.9242 36.3876L94.5309 38.9942L95.8342 37.6909L93.2275 35.0842ZM99.8219 33.7032L101.125 32.3999L98.5185 29.7932L97.2152 31.0966L99.8219 33.7032ZM36.696 31.0966L35.3926 29.7932L32.786 32.3999L34.0893 33.7032L36.696 31.0966ZM38.077 37.6909L39.3803 38.9942L41.987 36.3876L40.6836 35.0842L38.077 37.6909ZM95.8342 78.9543L94.5309 77.6509L91.9242 80.2576L93.2275 81.5609L95.8342 78.9543ZM97.2152 85.5486L98.5185 86.8519L101.125 84.2453L99.8219 82.9419L97.2152 85.5486ZM30.2938 56.4794H28.4506V60.1658H30.2938V56.4794ZM35.9341 60.1658H37.7773V56.4794H35.9341V60.1658ZM97.9771 56.4794H96.1339V60.1658H97.9771V56.4794ZM103.617 60.1658H105.461V56.4794H103.617V60.1658ZM73.5728 86.5239V92.1642H77.2592V86.5239H73.5728ZM73.5728 92.1642C73.5728 94.2597 71.8712 95.9613 69.7757 95.9613V99.6477C73.9071 99.6477 77.2592 96.2956 77.2592 92.1642H73.5728ZM69.7757 95.9613H64.1355V99.6477H69.7757V95.9613ZM64.1355 95.9613C62.04 95.9613 60.3384 94.2597 60.3384 92.1642H56.652C56.652 96.2956 60.0041 99.6477 64.1355 99.6477V95.9613ZM60.3384 92.1642V86.5239H56.652V92.1642H60.3384ZM58.4952 88.3671H75.416V84.6808H58.4952V88.3671ZM88.5397 55.5025C88.5397 43.5818 78.8762 33.9183 66.9556 33.9183V37.6047C76.8403 37.6047 84.8534 45.6178 84.8534 55.5025H88.5397ZM66.9556 33.9183C55.035 33.9183 45.3715 43.5818 45.3715 55.5025H49.0578C49.0578 45.6178 57.0709 37.6047 66.9556 37.6047V33.9183ZM45.3715 55.5025C45.3715 63.2032 48.5419 67.159 51.3643 71.0398C52.7624 72.9622 54.0576 74.8369 55.0253 77.2158C55.9857 79.5768 56.652 82.5113 56.652 86.5239H60.3384C60.3384 82.0761 59.5946 78.6654 58.4399 75.8268C57.2925 73.006 55.7676 70.8268 54.3456 68.8715C51.5276 64.9969 49.0578 61.9024 49.0578 55.5025H45.3715ZM77.2592 86.5239C77.2592 82.5113 77.9255 79.5768 78.8859 77.2158C79.8536 74.8369 81.1488 72.9622 82.5469 71.0398C85.3693 67.159 88.5397 63.2032 88.5397 55.5025H84.8534C84.8534 61.9024 82.3835 64.9969 79.5656 68.8715C78.1436 70.8268 76.6187 73.006 75.4712 75.8268C74.3166 78.6654 73.5728 82.0761 73.5728 86.5239H77.2592ZM36.696 85.5486L40.6836 81.5609L38.077 78.9543L34.0893 82.9419L36.696 85.5486ZM95.8342 37.6909L99.8219 33.7032L97.2152 31.0966L93.2275 35.0842L95.8342 37.6909ZM34.0893 33.7032L38.077 37.6909L40.6836 35.0842L36.696 31.0966L34.0893 33.7032ZM93.2275 81.5609L97.2152 85.5486L99.8219 82.9419L95.8342 78.9543L93.2275 81.5609ZM30.2938 60.1658H35.9341V56.4794H30.2938V60.1658ZM97.9771 60.1658H103.617V56.4794H97.9771V60.1658Z" fill="white"/>
</svg>
