<svg width="32" height="32" viewBox="0 0 32 32" fill="none" xmlns="http://www.w3.org/2000/svg">
<path d="M16.3375 0.351562C7.94076 0.351562 1.13313 7.10596 1.13313 15.4387C1.13313 18.289 1.93038 20.9548 3.31491 23.2291L0.570801 31.3233L8.98875 28.6491C11.167 29.8441 13.6722 30.5258 16.3375 30.5258C24.7353 30.5258 31.5425 23.7704 31.5425 15.4387C31.5425 7.10596 24.7353 0.351562 16.3375 0.351562ZM23.8981 21.1683C23.5404 22.0551 21.9226 22.8644 21.2088 22.9016C20.4958 22.9394 20.4755 23.4543 16.588 21.7655C12.7009 20.0763 10.3624 15.9691 10.178 15.7046C9.99347 15.441 8.67226 13.5582 8.74354 11.6634C8.8153 9.76821 9.85292 8.87411 10.2233 8.50224C10.5932 8.12982 11.0173 8.06311 11.2763 8.05889C11.5824 8.05392 11.7807 8.04977 12.0073 8.05813C12.2336 8.06671 12.5736 8.01078 12.868 8.79364C13.1622 9.57644 13.8665 11.5004 13.9565 11.6965C14.0465 11.8928 14.1023 12.12 13.9636 12.372C13.8245 12.6245 13.7533 12.7823 13.5515 12.9999C13.3486 13.2176 13.1247 13.4868 12.9437 13.6532C12.7418 13.8374 12.5309 14.0384 12.7432 14.4322C12.9553 14.8258 13.6871 16.116 14.8019 17.1793C16.2347 18.5461 17.4703 18.9995 17.8505 19.2061C18.2318 19.4138 18.4593 19.3907 18.6958 19.1419C18.9311 18.8931 19.7078 18.0533 19.9814 17.6784C20.2548 17.3024 20.511 17.3761 20.8623 17.5174C21.2133 17.6592 23.0854 18.6619 23.4667 18.869C23.8477 19.0756 24.1023 19.1821 24.1933 19.346C24.2844 19.5106 24.2556 20.2815 23.8981 21.1683V21.1683Z" fill="white"/>
</svg>
