<svg width="136" height="136" viewBox="0 0 136 136" fill="none" xmlns="http://www.w3.org/2000/svg">
<rect width="136" height="136" fill="#079561"/>
<path fill-rule="evenodd" clip-rule="evenodd" d="M28.0039 37.5742H30.0039H95.2784H97.2784V39.5742V50.2647C97.2784 53.2797 95.8086 56.102 93.3479 57.8355L70.3484 76.7814L70.351 93.9829L70.3511 95.0802L69.4257 95.6699L58.0341 102.928L54.959 104.887L54.9594 101.241L54.9621 76.7821L31.9349 57.8358C29.4739 56.1024 28.0039 53.28 28.0039 50.2647V39.5742V37.5742ZM32.0039 41.5742V50.2647C32.0039 51.9919 32.8545 53.611 34.2802 54.5948L34.3498 54.6428L34.4151 54.6965L58.2329 74.2934L58.9623 74.8935L58.9622 75.838L58.9598 97.5954L66.3508 92.8861L66.3483 75.8381L66.3481 74.8943L67.0766 74.2941L90.8664 54.6973L90.932 54.6432L91.0021 54.5948C92.4278 53.611 93.2784 51.9919 93.2784 50.2647V41.5742H32.0039Z" fill="white"/>
<path fill-rule="evenodd" clip-rule="evenodd" d="M41.4375 47.7769V59.058C41.4375 61.7134 42.855 64.1991 45.2277 65.723L68.3957 83.1596L68.3927 108.426L83.0695 99.8722L83.0667 83.159L106.207 65.7227C108.579 64.1988 109.997 61.7133 109.997 59.058V47.7769H41.4375Z" fill="white" fill-opacity="0.15"/>
</svg>
