<svg width="80" height="80" viewBox="0 0 80 80" fill="none" xmlns="http://www.w3.org/2000/svg">
<rect width="80" height="80" fill="#1A1E1C"/>
<path d="M51.848 34.4897C51.848 34.4897 48.2096 46.0392 47.9131 46.9926C47.8053 46.012 45.1371 25.2827 45.1371 25.2827C38.9382 25.2827 35.6231 29.75 33.8713 34.4624C33.8713 34.4624 29.4512 46.0392 29.0739 47.0198C29.0469 46.1209 28.4001 34.5986 28.4001 34.5986C28.0228 28.8239 22.7942 25.31 18.5627 25.31L23.6836 56.7171C30.1789 56.6899 33.6826 52.2498 35.5153 47.5374C35.5153 47.5374 39.4233 37.3226 39.585 36.8595C39.612 37.2953 42.388 56.7171 42.388 56.7171C48.9103 56.7171 52.414 52.5495 54.3007 48.0005L63.4373 25.31C56.9958 25.31 53.5999 29.75 51.848 34.4897Z" fill="white"/>
</svg>
