<svg width="30" height="28" viewBox="0 0 30 28" fill="none" xmlns="http://www.w3.org/2000/svg">
<path d="M0.978027 3.77787C0.978027 2.8719 1.29512 2.12449 1.92927 1.53564C2.56343 0.946768 3.38786 0.652344 4.40251 0.652344C5.39907 0.652344 6.20534 0.942229 6.8214 1.52205C7.45555 2.11998 7.77264 2.89908 7.77264 3.8594C7.77264 4.72911 7.46463 5.45385 6.84858 6.03368C6.21442 6.63161 5.38094 6.93057 4.34816 6.93057H4.32098C3.32443 6.93057 2.51815 6.63161 1.9021 6.03368C1.28604 5.43575 0.978027 4.68381 0.978027 3.77787ZM1.33135 27.559V9.40381H7.36497V27.559H1.33135ZM10.7079 27.559H16.7415V17.4215C16.7415 16.7873 16.814 16.2981 16.959 15.9538C17.2126 15.3378 17.5977 14.8168 18.114 14.3911C18.6304 13.9653 19.2782 13.7524 20.0573 13.7524C22.0866 13.7524 23.1013 15.1203 23.1013 17.8563V27.559H29.1349V17.1497C29.1349 14.4681 28.5008 12.4342 27.2324 11.0481C25.9641 9.662 24.2881 8.96895 22.2044 8.96895C19.8671 8.96895 18.0461 9.97456 16.7415 11.9858V12.0401H16.7144L16.7415 11.9858V9.40381H10.7079C10.7441 9.98361 10.7623 11.7864 10.7623 14.8123C10.7623 17.8382 10.7441 22.0871 10.7079 27.559Z" fill="white"/>
</svg>
