<svg width="31" height="26" viewBox="0 0 31 26" fill="none" xmlns="http://www.w3.org/2000/svg">
<path d="M1.88396 11.5636C1.88396 11.5636 15.4748 5.98591 20.1883 4.02187C21.9953 3.23632 28.1229 0.72234 28.1229 0.72234C28.1229 0.72234 30.9511 -0.377431 30.7154 2.29355C30.6368 3.39343 30.0083 7.24279 29.3799 11.4065C28.4371 17.2985 27.4158 23.7403 27.4158 23.7403C27.4158 23.7403 27.2587 25.5473 25.9232 25.8615C24.5877 26.1757 22.388 24.7617 21.9953 24.4474C21.6809 24.2118 16.1032 20.6765 14.0607 18.9482C13.5108 18.4769 12.8823 17.5342 14.1392 16.4343C16.9674 13.8419 20.3454 10.6209 22.388 8.57839C23.3307 7.63562 24.2734 5.43597 20.3454 8.10695C14.7678 11.9564 9.26858 15.5702 9.26858 15.5702C9.26858 15.5702 8.01159 16.3557 5.65482 15.6487C3.29795 14.9417 0.548363 13.999 0.548363 13.999C0.548363 13.999 -1.33696 12.8206 1.88396 11.5636V11.5636Z" fill="white"/>
</svg>
