<svg width="137" height="136" viewBox="0 0 137 136" fill="none" xmlns="http://www.w3.org/2000/svg">
<g clip-path="url(#clip0_2_72)">
<path d="M136.5 0H0.5V136H136.5V0Z" fill="#166FC2"/>
<path d="M72.8762 110.636C93.407 110.636 110.051 93.992 110.051 73.4611C110.051 52.9302 93.407 36.2867 72.8762 36.2867C52.3453 36.2867 35.7018 52.9302 35.7018 73.4611C35.7018 93.992 52.3453 110.636 72.8762 110.636Z" fill="white" fill-opacity="0.15"/>
<path d="M64.1237 62.5403L101.3 25.3652" stroke="white" stroke-width="4.01012"/>
<path d="M64.1238 97.7093C83.5473 97.7093 99.2932 81.9634 99.2932 62.5399C99.2932 43.1164 83.5473 27.3705 64.1238 27.3705C44.7003 27.3705 28.9544 43.1164 28.9544 62.5399C28.9544 81.9634 44.7003 97.7093 64.1238 97.7093Z" stroke="white" stroke-width="4.01012"/>
<path d="M64.1236 84.9377C76.494 84.9377 86.5222 74.9095 86.5222 62.5391C86.5222 50.1687 76.494 40.1405 64.1236 40.1405C51.7532 40.1405 41.725 50.1687 41.725 62.5391C41.725 74.9095 51.7532 84.9377 64.1236 84.9377Z" stroke="white" stroke-width="4.01012"/>
<path d="M64.1237 72.5473C69.6505 72.5473 74.1308 68.067 74.1308 62.5402C74.1308 57.0134 69.6505 52.5331 64.1237 52.5331C58.5969 52.5331 54.1166 57.0134 54.1166 62.5402C54.1166 68.067 58.5969 72.5473 64.1237 72.5473Z" stroke="white" stroke-width="4.01012"/>
</g>
<defs>
<clipPath id="clip0_2_72">
<rect width="136" height="136" fill="white" transform="translate(0.5)"/>
</clipPath>
</defs>
</svg>
