<svg width="28" height="28" viewBox="0 0 28 28" fill="none" xmlns="http://www.w3.org/2000/svg">
<rect width="28" height="28" fill="#079561"/>
<path d="M14.094 6.46899C12.0717 6.46899 10.1323 7.27234 8.7023 8.7023C7.27234 10.1323 6.46899 12.0717 6.46899 14.094C6.46899 16.1163 7.27234 18.0557 8.7023 19.4857C10.1323 20.9156 12.0717 21.719 14.094 21.719C16.1163 21.719 18.0557 20.9156 19.4857 19.4857C20.9156 18.0557 21.719 16.1163 21.719 14.094C21.719 12.0717 20.9156 10.1323 19.4857 8.7023C18.0557 7.27234 16.1163 6.46899 14.094 6.46899Z" fill="white" stroke="white"/>
<path d="M12.5552 11.4319V16.7562L17.17 14.0941L12.5552 11.4319Z" fill="#079561" stroke="#079561"/>
</svg>
