<svg width="136" height="136" viewBox="0 0 136 136" fill="none" xmlns="http://www.w3.org/2000/svg">
<rect width="136" height="136" fill="#079561"/>
<path d="M62.8203 101.011C62.8203 101.011 32.3895 81.9002 32.3895 56.7478V38.8656C32.3895 36.3315 34.0936 34.1295 36.5502 33.5043C42.8743 31.8942 54.9968 29.0835 62.8203 29.0835C70.6437 29.0835 82.7663 31.8942 89.0903 33.5043C91.5414 34.135 93.251 36.3371 93.251 38.8656V56.7478C93.251 81.4355 62.8203 101.011 62.8203 101.011Z" stroke="white" stroke-width="4.0551"/>
<path d="M73.1797 108.916C73.1797 108.916 42.749 89.806 42.749 64.6536V46.7714C42.749 44.2373 44.4531 42.0352 46.9097 41.41C53.2337 39.8 65.3562 36.9893 73.1797 36.9893C81.0032 36.9893 93.1257 39.8 99.4497 41.41C101.901 42.0408 103.61 44.2428 103.61 46.7714V64.6536C103.61 89.3412 73.1797 108.916 73.1797 108.916Z" fill="white" fill-opacity="0.15"/>
<path d="M84.9518 46.3733L59.3623 71.9628L49.3274 62.7703" stroke="white" stroke-width="4.0551"/>
</svg>
