<svg width="137" height="136" viewBox="0 0 137 136" fill="none" xmlns="http://www.w3.org/2000/svg">
<g clip-path="url(#clip0_2_79)">
<path d="M136.5 0H0.5V136H136.5V0Z" fill="#166FC2"/>
<path d="M110.561 102.414C110.561 95.6529 107.875 89.169 103.095 84.3884C98.3143 79.6078 91.8304 76.9221 85.0697 76.9221C78.3089 76.9221 71.825 79.6078 67.0444 84.3884C62.2639 89.169 59.5782 95.6529 59.5782 102.414" stroke="white" stroke-width="4.02522"/>
<path d="M92.717 74.5009C102.572 74.5009 110.561 66.5118 110.561 56.6568C110.561 46.8018 102.572 38.8127 92.717 38.8127C82.862 38.8127 74.873 46.8018 74.873 56.6568C74.873 66.5118 82.862 74.5009 92.717 74.5009Z" fill="white" fill-opacity="0.15"/>
<path d="M85.0699 69.2745C94.9249 69.2745 102.914 61.2855 102.914 51.4305C102.914 41.5755 94.9249 33.5864 85.0699 33.5864C75.2149 33.5864 67.2258 41.5755 67.2258 51.4305C67.2258 61.2855 75.2149 69.2745 85.0699 69.2745Z" stroke="white" stroke-width="4.02522"/>
<path d="M54.4901 92.8642C49.4757 90.5986 43.7874 90.3247 38.5784 92.0979C33.3695 93.8711 29.0298 97.5588 26.4393 102.413" stroke="white" stroke-width="4.02522"/>
<path d="M53.2047 89.6677C61.5814 89.6677 68.3721 82.877 68.3721 74.5002C68.3721 66.1235 61.5814 59.3328 53.2047 59.3328C44.8279 59.3328 38.0372 66.1235 38.0372 74.5002C38.0372 82.877 44.8279 89.6677 53.2047 89.6677Z" fill="white" fill-opacity="0.15"/>
<path d="M45.5574 84.4413C53.9341 84.4413 60.7248 77.6506 60.7248 69.2739C60.7248 60.8971 53.9341 54.1064 45.5574 54.1064C37.1806 54.1064 30.39 60.8971 30.39 69.2739C30.39 77.6506 37.1806 84.4413 45.5574 84.4413Z" stroke="white" stroke-width="4.02522"/>
</g>
<defs>
<clipPath id="clip0_2_79">
<rect width="136" height="136" fill="white" transform="translate(0.5)"/>
</clipPath>
</defs>
</svg>
