<svg width="30" height="35" viewBox="0 0 30 35" fill="none" xmlns="http://www.w3.org/2000/svg">
<path d="M19.6 0H14.7H11.7H4.4C2 0 0 1.99999 0 4.39999V30.6C0 33 2 35 4.4 35H24.8C27.2 35 29.2 33 29.2 30.6V9.60001L19.6 0ZM26.2 30.6C26.2 31.4 25.6 32 24.8 32H4.4C3.6 32 3 31.4 3 30.6V4.39999C3 3.59999 3.6 3 4.4 3H11.6V5.89999H14.6V8.8H11.6V11.7H14.6V8.8H17.6V5.89999H14.6V3H18.3L26.1 10.8V30.6H26.2Z" fill="white"/>
<path d="M17.7002 11.7002H14.7002V14.6002H17.7002V11.7002Z" fill="white"/>
<path d="M11.7002 17.4996V23.2996C11.7002 24.8996 13.0002 26.1996 14.6002 26.1996C16.2002 26.1996 17.5002 24.8996 17.5002 23.2996V17.4996H14.7002V14.5996H11.7002V17.4996V17.4996Z" fill="white"/>
</svg>
