<svg width="34" height="28" viewBox="0 0 34 28" fill="none" xmlns="http://www.w3.org/2000/svg">
<path d="M22.6788 0.0666187V0.0605469H24.2464L24.8192 0.175912C25.2011 0.250809 25.5478 0.34896 25.8593 0.470398C26.1708 0.591835 26.4723 0.733522 26.7636 0.895428C27.0551 1.05733 27.3194 1.22231 27.5565 1.39028C27.7917 1.55626 28.0027 1.73234 28.1896 1.91854C28.3745 2.10676 28.6629 2.15534 29.0548 2.06426C29.4467 1.97318 29.8687 1.84668 30.3209 1.68477C30.7731 1.52286 31.2203 1.34071 31.6624 1.1383C32.1046 0.935897 32.3739 0.807386 32.4704 0.752739C32.5648 0.696089 32.6151 0.665729 32.6211 0.661661L32.6271 0.652553L32.6573 0.637374L32.6874 0.622194L32.7176 0.607014L32.7477 0.591835L32.7537 0.582727L32.7628 0.576655L32.7719 0.570583L32.7779 0.561476L32.808 0.552368L32.8381 0.546296L32.8322 0.591835L32.8231 0.637374L32.808 0.682913L32.7929 0.728452L32.7779 0.758811L32.7628 0.78917L32.7477 0.834709C32.7377 0.865069 32.7276 0.905538 32.7176 0.956147C32.7075 1.00676 32.6121 1.20913 32.4312 1.56333C32.2503 1.91753 32.0242 2.27678 31.7529 2.64109C31.4816 3.0054 31.2384 3.28064 31.0234 3.46686C30.8063 3.65509 30.6626 3.78664 30.5922 3.86153C30.5219 3.93843 30.4365 4.00926 30.336 4.07405L30.1853 4.17423L30.1551 4.18941L30.125 4.20459L30.119 4.2137L30.1099 4.21977L30.1009 4.22584L30.0948 4.23495L30.0647 4.25013L30.0345 4.26531L30.0285 4.27442L30.0195 4.28049L30.0104 4.28656L30.0044 4.29567L29.9984 4.30478L29.9893 4.31085L29.9803 4.31692L29.9742 4.32603H30.125L30.9691 4.14387C31.5318 4.02244 32.0694 3.87571 32.5819 3.70366L33.3959 3.43043L33.4863 3.40007L33.5315 3.38489L33.5617 3.36971L33.5918 3.35453L33.622 3.33935L33.6521 3.32417L33.7124 3.31506L33.7727 3.30899V3.36971L33.7576 3.37578L33.7425 3.38489L33.7365 3.394L33.7275 3.40007L33.7184 3.40614L33.7124 3.41525L33.7064 3.42436L33.6973 3.43043L33.6883 3.4365L33.6822 3.44561L33.6762 3.45472L33.6672 3.46079L33.6521 3.49115L33.637 3.52151L33.628 3.52758C33.624 3.53365 33.4964 3.70567 33.2451 4.04369C32.9939 4.38371 32.8583 4.55573 32.8381 4.5598C32.8181 4.56587 32.7899 4.59623 32.7537 4.65087C32.7196 4.70753 32.5065 4.93322 32.1146 5.32789C31.7227 5.72256 31.3389 6.07369 30.9631 6.38136C30.5852 6.69102 30.3943 7.07151 30.3903 7.52287C30.3843 7.97218 30.3611 8.48022 30.3209 9.0469C30.2807 9.61362 30.2054 10.2258 30.0948 10.8836C29.9843 11.5414 29.8135 12.2852 29.5823 13.1151C29.3512 13.9449 29.0698 14.7545 28.7382 15.5438C28.4066 16.3331 28.0599 17.0415 27.6982 17.6689C27.3364 18.2964 27.0048 18.8277 26.7034 19.2628C26.4019 19.698 26.0954 20.1078 25.7839 20.4924C25.4724 20.8769 25.0785 21.3101 24.6022 21.7917C24.1239 22.2714 23.8626 22.5345 23.8184 22.5811C23.7722 22.6256 23.5752 22.7916 23.2275 23.079C22.8818 23.3684 22.51 23.6578 22.1121 23.9473C21.7161 24.2347 21.3524 24.4745 21.0208 24.6668C20.6892 24.859 20.2892 25.0786 19.8209 25.3256C19.3547 25.5745 18.8502 25.8052 18.3076 26.0178C17.7649 26.2303 17.1922 26.4276 16.5892 26.6098C15.9863 26.7919 15.4035 26.9336 14.8407 27.0348C14.278 27.136 13.6399 27.222 12.9265 27.2928L11.8563 27.3991V27.4143H9.89674V27.3991L9.6405 27.3839C9.46969 27.3738 9.32899 27.3637 9.21845 27.3536C9.10793 27.3435 8.69088 27.2878 7.96737 27.1866C7.24386 27.0854 6.67611 26.9842 6.2641 26.883C5.85212 26.7818 5.23912 26.5895 4.42517 26.3062C3.61122 26.0228 2.91483 25.7364 2.33602 25.447C1.75923 25.1596 1.39748 24.9774 1.25075 24.9005C1.10605 24.8256 0.94326 24.7326 0.762382 24.6212L0.491064 24.4543L0.485065 24.4451L0.475991 24.4391L0.466947 24.433L0.460918 24.4239L0.430771 24.4087L0.400625 24.3935L0.394626 24.3844L0.385552 24.3784L0.376508 24.3723L0.370478 24.3632L0.364479 24.3541L0.355405 24.348H0.340332V24.2873L0.370478 24.2933L0.400625 24.3025L0.536284 24.3176C0.626723 24.3277 0.872928 24.3429 1.27487 24.3632C1.67684 24.3834 2.1039 24.3834 2.55609 24.3632C3.00829 24.3429 3.47055 24.2974 3.94283 24.2266C4.41513 24.1557 4.97284 24.0343 5.61595 23.8622C6.25909 23.6902 6.84996 23.4858 7.38859 23.249C7.9252 23.0102 8.30703 22.8321 8.53415 22.7147C8.75923 22.5993 9.10289 22.3848 9.56513 22.071L10.2585 21.6005L10.2645 21.5914L10.2736 21.5853L10.2826 21.5792L10.2886 21.5701L10.2947 21.561L10.3037 21.5549L10.3128 21.5489L10.3188 21.5398L10.3489 21.5307L10.3791 21.5246L10.3851 21.4942L10.3942 21.4639L10.4032 21.4578L10.4092 21.4487L10.1681 21.4335C10.0073 21.4234 9.85152 21.4133 9.70079 21.4031C9.55006 21.393 9.31392 21.3475 8.99235 21.2665C8.67081 21.1856 8.32412 21.0641 7.9523 20.9022C7.5805 20.7403 7.21875 20.548 6.86703 20.3254C6.51534 20.1028 6.26108 19.9175 6.10432 19.7698C5.94958 19.6241 5.7486 19.4176 5.5014 19.1505C5.25621 18.8813 5.04317 18.605 4.86229 18.3217C4.68141 18.0383 4.50858 17.7114 4.3438 17.3411L4.09356 16.7885L4.07849 16.743L4.06341 16.6974L4.05437 16.6671L4.04834 16.6367L4.09356 16.6428L4.13878 16.6519L4.47039 16.6974C4.69148 16.7278 5.03817 16.7379 5.51044 16.7278C5.98274 16.7177 6.30932 16.6974 6.4902 16.6671C6.67108 16.6367 6.78162 16.6165 6.82181 16.6064L6.8821 16.5912L6.95747 16.576L7.03283 16.5608L7.03886 16.5517L7.04791 16.5457L7.05698 16.5396L7.06298 16.5305L7.00269 16.5153L6.94239 16.5001L6.8821 16.4849L6.82181 16.4698L6.76151 16.4546C6.72133 16.4445 6.651 16.4242 6.55049 16.3939C6.45001 16.3635 6.17869 16.2522 5.73654 16.0599C5.29441 15.8676 4.94269 15.6804 4.68141 15.4983C4.41949 15.3156 4.16974 15.1158 3.93378 14.9002C3.69864 14.6816 3.44041 14.4003 3.15902 14.0562C2.87766 13.7121 2.62645 13.3124 2.40536 12.857C2.1843 12.4016 2.01849 11.9665 1.90794 11.5515C1.79784 11.1391 1.7252 10.7174 1.69092 10.2916L1.63663 9.65409L1.66677 9.66016L1.69692 9.66927L1.72707 9.68445L1.75721 9.69963L1.78736 9.71481L1.81751 9.72999L2.28477 9.9425C2.59631 10.0842 2.98318 10.2056 3.44541 10.3068C3.90768 10.408 4.184 10.4637 4.27444 10.4738L4.4101 10.489H4.68141L4.67541 10.4799L4.66634 10.4738L4.6573 10.4677L4.65127 10.4586L4.64527 10.4495L4.63619 10.4434L4.62715 10.4374L4.62112 10.4283L4.59097 10.4131L4.56083 10.3979L4.55483 10.3888L4.54575 10.3827L4.53671 10.3766L4.53068 10.3675L4.50053 10.3524L4.47039 10.3372L4.46439 10.3281C4.45836 10.324 4.37193 10.2592 4.2051 10.1338C4.04029 10.0063 3.86746 9.84132 3.68658 9.63891C3.5057 9.4365 3.32483 9.22399 3.14395 9.00136C2.96274 8.77823 2.80133 8.5395 2.6616 8.28792C2.52094 8.03494 2.3722 7.7131 2.21544 7.32249C2.0607 6.93389 1.94313 6.54226 1.86273 6.14759C1.78235 5.75292 1.73714 5.36332 1.72707 4.97876C1.71703 4.59419 1.72707 4.26531 1.75721 3.99208C1.78736 3.71884 1.84765 3.41018 1.93809 3.06612C2.02853 2.72206 2.15918 2.35774 2.32999 1.97318L2.58624 1.39636L2.60131 1.35082L2.61639 1.30528L2.62546 1.29921L2.63146 1.2901L2.63749 1.28099L2.64653 1.27492L2.65561 1.28099L2.6616 1.2901L2.66763 1.29921L2.67668 1.30528L2.68575 1.31135L2.69175 1.32046L2.69778 1.32957L2.70682 1.33564L2.7219 1.366L2.73697 1.39636L2.74604 1.40243L2.75204 1.41154L3.15902 1.86693C3.43034 2.17052 3.75191 2.50954 4.1237 2.88396C4.49553 3.25838 4.70152 3.45268 4.74171 3.46686C4.78192 3.48304 4.83215 3.52958 4.89244 3.60651C4.95273 3.68141 5.15372 3.86053 5.49537 4.14387C5.83705 4.42722 6.28421 4.75613 6.83688 5.13055C7.38958 5.50497 8.00255 5.87435 8.67581 6.23867C9.3491 6.60298 10.0726 6.93186 10.8464 7.22534C11.6201 7.51883 12.1628 7.71109 12.4743 7.80217C12.7858 7.89325 13.3184 8.00962 14.072 8.1513C14.8257 8.29299 15.3935 8.38407 15.7753 8.42454C16.1572 8.46501 16.4184 8.48829 16.5591 8.49436L16.7701 8.50044L16.7641 8.4549L16.755 8.40936L16.6948 8.02987C16.6546 7.77688 16.6345 7.42268 16.6345 6.96729C16.6345 6.5119 16.6696 6.09194 16.74 5.70738C16.8103 5.32282 16.9158 4.93322 17.0565 4.53855C17.1972 4.14387 17.3349 3.82711 17.4695 3.5883C17.6062 3.3515 17.7851 3.0813 18.0061 2.77771C18.2272 2.47411 18.5136 2.16041 18.8653 1.83657C19.217 1.51272 19.619 1.22431 20.0711 0.971326C20.5233 0.718342 20.9404 0.526046 21.3222 0.394499C21.7041 0.262952 22.0257 0.176914 22.2869 0.136445C22.5482 0.0959762 22.6788 0.0726906 22.6788 0.0666187V0.0666187Z" fill="white"/>
</svg>
