<svg width="30" height="36" viewBox="0 0 30 36" fill="none" xmlns="http://www.w3.org/2000/svg">
<path fill-rule="evenodd" clip-rule="evenodd" d="M0.40918 4.90906C0.40918 2.47483 2.38401 0.5 4.81824 0.5H19.9849L29.5908 10.1059V31.0906C29.5908 33.5249 27.6159 35.4997 25.1817 35.4997H4.81824C2.38401 35.4997 0.40918 33.5249 0.40918 31.0906V4.90906ZM4.81824 3.5C4.04087 3.5 3.40918 4.13169 3.40918 4.90906V31.0906C3.40918 31.868 4.04087 32.4997 4.81824 32.4997H25.1817C25.9591 32.4997 26.5908 31.868 26.5908 31.0906V12.2271L17.8633 12.2268L17.8635 3.5H4.81824ZM20.8635 5.62123L24.4693 9.22705L20.8634 9.22691L20.8635 5.62123Z" fill="white"/>
</svg>
