<svg width="137" height="136" viewBox="0 0 137 136" fill="none" xmlns="http://www.w3.org/2000/svg">
<g clip-path="url(#clip0_2_52)">
<path d="M136.5 0H0.5V136H136.5V0Z" fill="#166FC2"/>
<path d="M84.0049 92.3194V97.9596C84.0049 101.073 81.478 103.6 78.3646 103.6H72.7243C69.6109 103.6 67.0841 101.073 67.0841 97.9596V92.3194H84.0049ZM95.2854 61.2979C95.2854 50.3952 86.4471 41.5569 75.5445 41.5569C64.6418 41.5569 55.8035 50.3952 55.8035 61.2979C55.8035 75.3985 67.0841 75.3985 67.0841 92.3194H84.0049C84.0049 75.3985 95.2854 75.3985 95.2854 61.2979Z" fill="white" fill-opacity="0.15"/>
<path d="M42.6782 88.7374L41.3749 90.0407L43.9815 92.6473L45.2848 91.344L42.6782 88.7374ZM49.2725 87.3563L50.5758 86.053L47.9692 83.4464L46.6659 84.7497L49.2725 87.3563ZM101.816 40.8797L100.513 42.183L103.12 44.7896L104.423 43.4863L101.816 40.8797ZM108.411 39.4986L109.714 38.1953L107.107 35.5887L105.804 36.892L108.411 39.4986ZM45.2848 36.892L43.9815 35.5887L41.3749 38.1953L42.6782 39.4986L45.2848 36.892ZM46.6659 43.4863L47.9692 44.7896L50.5758 42.183L49.2725 40.8797L46.6659 43.4863ZM104.423 84.7497L103.12 83.4464L100.513 86.053L101.816 87.3563L104.423 84.7497ZM105.804 91.344L107.107 92.6473L109.714 90.0407L108.411 88.7374L105.804 91.344ZM38.8827 62.2748H37.0395V65.9612H38.8827V62.2748ZM44.523 65.9612H46.3662V62.2748H44.523V65.9612ZM106.566 62.2748H104.723V65.9612H106.566V62.2748ZM112.206 65.9612H114.049V62.2748H112.206V65.9612ZM82.1617 92.3194V97.9596H85.8481V92.3194H82.1617ZM82.1617 97.9596C82.1617 100.055 80.4601 101.757 78.3646 101.757V105.443C82.496 105.443 85.8481 102.091 85.8481 97.9596H82.1617ZM78.3646 101.757H72.7243V105.443H78.3646V101.757ZM72.7243 101.757C70.6289 101.757 68.9273 100.055 68.9273 97.9596H65.2409C65.2409 102.091 68.5929 105.443 72.7243 105.443V101.757ZM68.9273 97.9596V92.3194H65.2409V97.9596H68.9273ZM67.0841 94.1625H84.0049V90.4762H67.0841V94.1625ZM97.1286 61.2979C97.1286 49.3773 87.4651 39.7137 75.5445 39.7137V43.4001C85.4292 43.4001 93.4422 51.4132 93.4422 61.2979H97.1286ZM75.5445 39.7137C63.6239 39.7137 53.9603 49.3773 53.9603 61.2979H57.6467C57.6467 51.4132 65.6598 43.4001 75.5445 43.4001V39.7137ZM53.9603 61.2979C53.9603 68.9986 57.1308 72.9544 59.9531 76.8352C61.3513 78.7576 62.6465 80.6323 63.6141 83.0112C64.5746 85.3722 65.2409 88.3068 65.2409 92.3194H68.9273C68.9273 87.8716 68.1835 84.4608 67.0288 81.6222C65.8814 78.8014 64.3564 76.6222 62.9344 74.667C60.1165 70.7923 57.6467 67.6978 57.6467 61.2979H53.9603ZM85.8481 92.3194C85.8481 88.3068 86.5144 85.3722 87.4748 83.0112C88.4425 80.6323 89.7377 78.7576 91.1358 76.8352C93.9582 72.9544 97.1286 68.9986 97.1286 61.2979H93.4422C93.4422 67.6978 90.9724 70.7923 88.1545 74.667C86.7325 76.6222 85.2076 78.8014 84.0601 81.6222C82.9054 84.4608 82.1617 87.8716 82.1617 92.3194H85.8481ZM45.2848 91.344L49.2725 87.3563L46.6659 84.7497L42.6782 88.7374L45.2848 91.344ZM104.423 43.4863L108.411 39.4986L105.804 36.892L101.816 40.8797L104.423 43.4863ZM42.6782 39.4986L46.6659 43.4863L49.2725 40.8797L45.2848 36.892L42.6782 39.4986ZM101.816 87.3563L105.804 91.344L108.411 88.7374L104.423 84.7497L101.816 87.3563ZM38.8827 65.9612H44.523V62.2748H38.8827V65.9612ZM106.566 65.9612H112.206V62.2748H106.566V65.9612Z" fill="#166FC2"/>
<path d="M34.5893 82.9419L33.286 84.2453L35.8926 86.8519L37.196 85.5486L34.5893 82.9419ZM41.1836 81.5609L42.487 80.2576L39.8803 77.6509L38.577 78.9543L41.1836 81.5609ZM93.7275 35.0842L92.4242 36.3876L95.0309 38.9942L96.3342 37.6909L93.7275 35.0842ZM100.322 33.7032L101.625 32.3999L99.0185 29.7932L97.7152 31.0966L100.322 33.7032ZM37.196 31.0966L35.8926 29.7932L33.286 32.3999L34.5893 33.7032L37.196 31.0966ZM38.577 37.6909L39.8803 38.9942L42.487 36.3876L41.1836 35.0842L38.577 37.6909ZM96.3342 78.9543L95.0309 77.6509L92.4242 80.2576L93.7275 81.5609L96.3342 78.9543ZM97.7152 85.5486L99.0185 86.8519L101.625 84.2453L100.322 82.9419L97.7152 85.5486ZM30.7938 56.4794H28.9506V60.1658H30.7938V56.4794ZM36.4341 60.1658H38.2773V56.4794H36.4341V60.1658ZM98.4771 56.4794H96.6339V60.1658H98.4771V56.4794ZM104.117 60.1658H105.961V56.4794H104.117V60.1658ZM74.0728 86.5239V92.1642H77.7592V86.5239H74.0728ZM74.0728 92.1642C74.0728 94.2597 72.3712 95.9613 70.2757 95.9613V99.6477C74.4071 99.6477 77.7592 96.2956 77.7592 92.1642H74.0728ZM70.2757 95.9613H64.6355V99.6477H70.2757V95.9613ZM64.6355 95.9613C62.54 95.9613 60.8384 94.2597 60.8384 92.1642H57.152C57.152 96.2956 60.5041 99.6477 64.6355 99.6477V95.9613ZM60.8384 92.1642V86.5239H57.152V92.1642H60.8384ZM58.9952 88.3671H75.916V84.6808H58.9952V88.3671ZM89.0397 55.5025C89.0397 43.5818 79.3762 33.9183 67.4556 33.9183V37.6047C77.3403 37.6047 85.3534 45.6178 85.3534 55.5025H89.0397ZM67.4556 33.9183C55.535 33.9183 45.8715 43.5818 45.8715 55.5025H49.5578C49.5578 45.6178 57.5709 37.6047 67.4556 37.6047V33.9183ZM45.8715 55.5025C45.8715 63.2032 49.0419 67.159 51.8643 71.0398C53.2624 72.9622 54.5576 74.8369 55.5253 77.2158C56.4857 79.5768 57.152 82.5113 57.152 86.5239H60.8384C60.8384 82.0761 60.0946 78.6654 58.9399 75.8268C57.7925 73.006 56.2676 70.8268 54.8456 68.8715C52.0276 64.9969 49.5578 61.9024 49.5578 55.5025H45.8715ZM77.7592 86.5239C77.7592 82.5113 78.4255 79.5768 79.3859 77.2158C80.3536 74.8369 81.6488 72.9622 83.0469 71.0398C85.8693 67.159 89.0397 63.2032 89.0397 55.5025H85.3534C85.3534 61.9024 82.8835 64.9969 80.0656 68.8715C78.6436 70.8268 77.1187 73.006 75.9712 75.8268C74.8166 78.6654 74.0728 82.0761 74.0728 86.5239H77.7592ZM37.196 85.5486L41.1836 81.5609L38.577 78.9543L34.5893 82.9419L37.196 85.5486ZM96.3342 37.6909L100.322 33.7032L97.7152 31.0966L93.7275 35.0842L96.3342 37.6909ZM34.5893 33.7032L38.577 37.6909L41.1836 35.0842L37.196 31.0966L34.5893 33.7032ZM93.7275 81.5609L97.7152 85.5486L100.322 82.9419L96.3342 78.9543L93.7275 81.5609ZM30.7938 60.1658H36.4341V56.4794H30.7938V60.1658ZM98.4771 60.1658H104.117V56.4794H98.4771V60.1658Z" fill="white"/>
</g>
<defs>
<clipPath id="clip0_2_52">
<rect width="136" height="136" fill="white" transform="translate(0.5)"/>
</clipPath>
</defs>
</svg>
