<svg width="136" height="136" viewBox="0 0 136 136" fill="none" xmlns="http://www.w3.org/2000/svg">
<rect width="136" height="136" fill="#079561"/>
<path d="M86.2135 30.986H78.8973L52.0712 76.5091H74.0198L63.452 109.026H71.5811L97.7829 63.5025H75.6457L86.2135 30.986ZM35.0001 30.1731L45.5679 40.7409L35.0001 30.1731ZM35.0001 30.1731L49.6325 44.8055L35.0001 30.1731ZM113.853 30.1731L99.2201 44.8055L113.853 30.1731ZM113.853 109.838L103.285 99.2706L113.853 109.838ZM113.853 109.838L99.2201 95.206L113.853 109.838ZM35.0001 109.838L49.6325 95.206Z" fill="white" fill-opacity="0.15"/>
<path d="M78.051 26H70.7348L43.9087 71.5231H65.8573L55.2894 104.04H63.4186L89.6203 58.5165H67.4831L78.051 26Z" stroke="white" stroke-width="3"/>
</svg>
