<svg width="136" height="136" viewBox="0 0 136 136" fill="none" xmlns="http://www.w3.org/2000/svg">
<g clip-path="url(#clip0_4_138)">
<path d="M136 0H0V136H136V0Z" fill="#166FC2"/>
<path d="M103.775 43.5115H32.2255C31.3436 43.5115 30.6284 44.1564 30.6284 44.952V84.9019C30.6284 85.6974 31.3434 86.3425 32.2255 86.3425H103.775C104.656 86.3425 105.372 85.6976 105.372 84.9019V44.952C105.372 44.1564 104.656 43.5115 103.775 43.5115ZM52.7745 83.4614H40.6367V79.8631C40.6367 79.8218 40.6658 79.7852 40.7096 79.7721L48.6011 77.3993C48.7371 77.3583 48.8672 77.3082 48.9937 77.2532L52.7745 79.5268V83.4614ZM49.1071 56.635C49.7802 55.9751 50.6981 55.6116 51.6922 55.6116H57.0513C58.0454 55.6116 58.9638 55.975 59.637 56.635C60.3102 57.2949 60.6353 58.1504 60.5526 59.0438L59.8249 66.9231C59.7286 67.9635 59.026 68.9001 57.9907 69.3671L55.8654 70.3255C54.9301 70.7471 53.8136 70.7471 52.8787 70.3255L50.7534 69.3671C49.7181 68.9001 49.0153 67.9637 48.9192 66.9231L48.1913 59.0438C48.1086 58.1504 48.4339 57.2948 49.1071 56.635ZM50.8363 74.8987C50.8491 74.7922 50.858 74.6844 50.858 74.5753V72.6356L51.4497 72.9024C52.3645 73.315 53.368 73.5213 54.3714 73.5213C55.3749 73.5213 56.3784 73.315 57.2932 72.9024L57.8849 72.6356V74.5753C57.8849 74.6846 57.8938 74.7922 57.9066 74.8987L54.3712 77.0246L50.8363 74.8987ZM68.1064 83.4614H55.9686V79.5268L59.7492 77.2535C59.8757 77.3087 60.0059 77.3588 60.1418 77.3996L68.0335 79.7724C68.0771 79.7855 68.1064 79.8222 68.1064 79.8635V83.4614ZM102.177 83.4614H71.3005V79.8631C71.3005 78.5798 70.3936 77.4449 69.0435 77.0388L61.1519 74.666C61.1082 74.6529 61.0789 74.6163 61.0789 74.5749V71.073C61.0789 71.0074 61.0724 70.9436 61.063 70.8804C62.1667 69.9013 62.8763 68.582 63.0074 67.1623L63.7351 59.2832C63.8903 57.6018 63.2532 55.9257 61.9866 54.6841C60.7199 53.4426 58.9212 52.7305 57.0507 52.7305H51.692C49.8215 52.7305 48.0225 53.4424 46.7559 54.6841C45.4893 55.9255 44.8522 57.6018 45.0074 59.2832L45.7351 67.1625C45.8662 68.5818 46.5758 69.9013 47.6795 70.8804C47.6701 70.9436 47.6636 71.0076 47.6636 71.073V74.5751C47.6636 74.6165 47.6345 74.6531 47.5906 74.6662L39.699 77.039C38.3493 77.4449 37.4424 78.5798 37.4424 79.8631V83.4614H33.8226V46.3924H102.178V83.4614H102.177Z" fill="white" fill-opacity="0.95"/>
<path d="M115.699 89.6076H112.186V43.4155C112.186 40.0794 109.177 37.3654 105.478 37.3654H30.522C26.8233 37.3654 23.8143 40.0796 23.8143 43.4155V89.6076H20.3007C18.4806 89.6076 17 90.943 17 92.5845V95.6575C17 97.2991 18.4806 98.6346 20.3007 98.6346H115.699C117.519 98.6346 119 97.2991 119 95.6575V92.5845C119 90.943 117.519 89.6076 115.699 89.6076ZM27.0084 43.4155C27.0084 41.668 28.5846 40.2464 30.522 40.2464H105.478C107.415 40.2464 108.992 41.668 108.992 43.4155V89.6076H27.0084V43.4155ZM115.806 95.6577C115.806 95.7107 115.758 95.7536 115.7 95.7536H20.3007C20.2419 95.7536 20.1943 95.7107 20.1943 95.6577V92.5847C20.1943 92.5317 20.2419 92.4887 20.3007 92.4887H59.5942C59.5918 92.5205 59.5888 92.5523 59.5888 92.5847C59.5888 93.3801 60.3038 94.0252 61.1859 94.0252H74.8143C75.6962 94.0252 76.4114 93.3803 76.4114 92.5847C76.4114 92.5521 76.4084 92.5205 76.406 92.4887H115.7C115.758 92.4887 115.806 92.5317 115.806 92.5847V95.6577Z" fill="white" fill-opacity="0.95"/>
<path d="M96.9604 49.6577H85.1097C84.5073 49.6577 83.9562 49.9635 83.6845 50.4485L77.3728 61.7117L74.5391 56.6003C74.2688 56.1122 73.7158 55.8039 73.1107 55.8039H69.7037C68.8218 55.8039 68.1066 56.4488 68.1066 57.2445C68.1066 58.0401 68.8216 58.685 69.7037 58.685H72.1238L75.0894 64.0348C75.3597 64.5229 75.9128 64.8312 76.5178 64.8312H78.2213C78.8237 64.8312 79.3748 64.5254 79.6467 64.0404L86.0916 52.5388H96.9602C97.8422 52.5388 98.5574 51.8939 98.5574 51.0982C98.5574 50.3026 97.8424 49.6577 96.9604 49.6577Z" fill="white" fill-opacity="0.95"/>
<path d="M93.8949 59.5491L96.5038 56.6076C97.0549 55.9865 96.9431 55.0799 96.2544 54.5829C95.5657 54.0859 94.5604 54.1867 94.0096 54.8079L91.8497 57.2434L89.6895 54.8082C89.1385 54.1869 88.1331 54.0861 87.4448 54.5833C86.7561 55.0801 86.6443 55.9866 87.1953 56.608L89.8043 59.5495L87.1953 62.491C86.6445 63.112 86.7562 64.0185 87.4449 64.5153C87.7394 64.7277 88.0916 64.831 88.4414 64.831C88.91 64.831 89.3742 64.646 89.6895 64.2904L91.8497 61.8552L94.0098 64.2904C94.3252 64.6461 94.7893 64.831 95.2579 64.831C95.6077 64.831 95.9602 64.7277 96.2544 64.5153C96.9431 64.0185 97.0549 63.112 96.5038 62.4906L93.8949 59.5491Z" fill="white" fill-opacity="0.95"/>
<path d="M76.5178 69.6326H74.8143C73.9323 69.6326 73.2171 70.2775 73.2171 71.0732C73.2171 71.8688 73.9321 72.5137 74.8143 72.5137H76.5178C77.3997 72.5137 78.1149 71.8688 78.1149 71.0732C78.1149 70.2775 77.3997 69.6326 76.5178 69.6326Z" fill="white" fill-opacity="0.95"/>
<path d="M96.9604 69.6326H83.3319C82.4499 69.6326 81.7347 70.2775 81.7347 71.0732C81.7347 71.8688 82.4497 72.5137 83.3319 72.5137H96.9602C97.8422 72.5137 98.5574 71.8688 98.5574 71.0732C98.5574 70.2775 97.8424 69.6326 96.9604 69.6326Z" fill="white" fill-opacity="0.95"/>
<path d="M93.5532 75.7787H83.3319C82.4499 75.7787 81.7347 76.4236 81.7347 77.2192C81.7347 78.0149 82.4497 78.6598 83.3319 78.6598H93.5532C94.4351 78.6598 95.1503 78.0149 95.1503 77.2192C95.1503 76.4236 94.4353 75.7787 93.5532 75.7787Z" fill="white" fill-opacity="0.95"/>
<path d="M76.5178 75.7787H74.8143C73.9323 75.7787 73.2171 76.4236 73.2171 77.2192C73.2171 78.0149 73.9321 78.6598 74.8143 78.6598H76.5178C77.3997 78.6598 78.1149 78.0149 78.1149 77.2192C78.1149 76.4236 77.3997 75.7787 76.5178 75.7787Z" fill="white" fill-opacity="0.95"/>
</g>
<defs>
<clipPath id="clip0_4_138">
<rect width="136" height="136" fill="white"/>
</clipPath>
</defs>
</svg>
