<svg width="136" height="136" viewBox="0 0 136 136" fill="none" xmlns="http://www.w3.org/2000/svg">
<rect width="136" height="136" fill="#079561"/>
<path d="M110.061 102.414C110.061 95.6529 107.375 89.169 102.595 84.3884C97.8143 79.6078 91.3304 76.9221 84.5697 76.9221C77.8089 76.9221 71.325 79.6078 66.5444 84.3884C61.7639 89.169 59.0782 95.6529 59.0782 102.414" stroke="white" stroke-width="4.02522"/>
<path d="M92.217 74.5009C102.072 74.5009 110.061 66.5118 110.061 56.6568C110.061 46.8018 102.072 38.8127 92.217 38.8127C82.362 38.8127 74.373 46.8018 74.373 56.6568C74.373 66.5118 82.362 74.5009 92.217 74.5009Z" fill="white" fill-opacity="0.15"/>
<path d="M84.5699 69.2745C94.4249 69.2745 102.414 61.2855 102.414 51.4305C102.414 41.5755 94.4249 33.5864 84.5699 33.5864C74.7149 33.5864 66.7258 41.5755 66.7258 51.4305C66.7258 61.2855 74.7149 69.2745 84.5699 69.2745Z" stroke="white" stroke-width="4.02522"/>
<path d="M53.9901 92.8642C48.9757 90.5986 43.2874 90.3247 38.0784 92.0979C32.8695 93.8711 28.5298 97.5588 25.9393 102.413" stroke="white" stroke-width="4.02522"/>
<path d="M52.7047 89.6677C61.0814 89.6677 67.8721 82.877 67.8721 74.5002C67.8721 66.1235 61.0814 59.3328 52.7047 59.3328C44.3279 59.3328 37.5372 66.1235 37.5372 74.5002C37.5372 82.877 44.3279 89.6677 52.7047 89.6677Z" fill="white" fill-opacity="0.15"/>
<path d="M45.0574 84.4413C53.4341 84.4413 60.2248 77.6506 60.2248 69.2739C60.2248 60.8971 53.4341 54.1064 45.0574 54.1064C36.6806 54.1064 29.89 60.8971 29.89 69.2739C29.89 77.6506 36.6806 84.4413 45.0574 84.4413Z" stroke="white" stroke-width="4.02522"/>
</svg>
