<svg width="29" height="28" viewBox="0 0 29 28" fill="none" xmlns="http://www.w3.org/2000/svg">
<g clip-path="url(#clip0_2_20)">
<path d="M28.5 0H0.5V28H28.5V0Z" fill="#166FC2"/>
<path d="M14.5001 6.37341C12.4774 6.37341 10.5375 7.17692 9.10729 8.60717C7.67704 10.0374 6.87354 11.9773 6.87354 13.9999C6.87354 16.0226 7.67704 17.9625 9.10729 19.3927C10.5375 20.823 12.4774 21.6265 14.5001 21.6265C16.5227 21.6265 18.4626 20.823 19.8928 19.3927C21.3231 17.9625 22.1266 16.0226 22.1266 13.9999C22.1266 11.9773 21.3231 10.0374 19.8928 8.60717C18.4626 7.17692 16.5227 6.37341 14.5001 6.37341Z" fill="white" stroke="white" stroke-width="1.27109"/>
<path d="M14.5 8.28003V13.9999H17.6777" stroke="#166FC2" stroke-width="1.27109"/>
</g>
<defs>
<clipPath id="clip0_2_20">
<rect width="28" height="28" fill="white" transform="translate(0.5)"/>
</clipPath>
</defs>
</svg>
