<svg width="34" height="34" viewBox="0 0 34 34" fill="none" xmlns="http://www.w3.org/2000/svg">
<path fill-rule="evenodd" clip-rule="evenodd" d="M12.6709 0.996094C10.8531 0.997437 9.38187 2.47267 9.38321 4.29051C9.38187 6.10835 10.8544 7.58359 12.6723 7.58493H15.9613V4.29186C15.9626 2.47401 14.4901 0.998781 12.6709 0.996094C12.6723 0.996094 12.6723 0.996094 12.6709 0.996094V0.996094ZM12.6709 9.783H3.90282C2.08498 9.78434 0.61243 11.2596 0.613773 13.0774C0.611086 14.8953 2.08363 16.3705 3.90147 16.3732H12.6709C14.4888 16.3718 15.9613 14.8966 15.96 13.0788C15.9613 11.2596 14.4888 9.78434 12.6709 9.783V9.783Z" fill="white"/>
<path fill-rule="evenodd" clip-rule="evenodd" d="M33.501 13.0774C33.5023 11.2596 32.0298 9.78434 30.2119 9.783C28.3941 9.78434 26.9215 11.2596 26.9229 13.0774V16.3732H30.2119C32.0298 16.3718 33.5023 14.8966 33.501 13.0774ZM24.7315 13.0774V4.29051C24.7329 2.47401 23.2617 0.998781 21.4438 0.996094C19.626 0.997437 18.1534 2.47267 18.1548 4.29051V13.0774C18.1521 14.8953 19.6246 16.3705 21.4425 16.3732C23.2603 16.3718 24.7329 14.8966 24.7315 13.0774Z" fill="white"/>
<path fill-rule="evenodd" clip-rule="evenodd" d="M21.4365 33.9468C23.2543 33.9454 24.7269 32.4702 24.7255 30.6524C24.7269 28.8345 23.2543 27.3593 21.4365 27.358H18.1475V30.6524C18.1461 32.4689 19.6187 33.9441 21.4365 33.9468ZM21.4365 25.1585H30.2059C32.0238 25.1572 33.4963 23.682 33.495 21.8641C33.4977 20.0463 32.0251 18.571 30.2073 18.5684H21.4378C19.62 18.5697 18.1475 20.0449 18.1488 21.8628C18.1475 23.682 19.6187 25.1572 21.4365 25.1585V25.1585Z" fill="white"/>
<path fill-rule="evenodd" clip-rule="evenodd" d="M0.612794 21.8628C0.61145 23.6806 2.084 25.1559 3.90184 25.1572C5.71968 25.1559 7.19222 23.6806 7.19088 21.8628V18.5684H3.90184C2.084 18.5697 0.61145 20.0449 0.612794 21.8628ZM9.38223 21.8628V30.6497C9.37955 32.4675 10.8521 33.9428 12.6699 33.9454C14.4878 33.9441 15.9603 32.4689 15.959 30.651V21.8655C15.9617 20.0476 14.4891 18.5724 12.6713 18.5697C10.8521 18.5697 9.38089 20.0449 9.38223 21.8628C9.38223 21.8641 9.38223 21.8628 9.38223 21.8628Z" fill="white"/>
</svg>
