<svg width="110" height="110" viewBox="0 0 110 110" fill="none" xmlns="http://www.w3.org/2000/svg">
<g clip-path="url(#clip0_4_247)">
<path d="M110 0H0V110H110V0Z" fill="#166FC2"/>
<path d="M55.0001 78.7413C68.112 78.7413 78.7414 68.112 78.7414 55C78.7414 41.8881 68.112 31.2587 55.0001 31.2587C41.8881 31.2587 31.2588 41.8881 31.2588 55C31.2588 68.112 41.8881 78.7413 55.0001 78.7413Z" fill="white" fill-opacity="0.15"/>
<path d="M53.4766 39.9205C57.9834 35.001 61.7761 35.0486 64.5532 35.0645L65.1562 35.0804L83.4375 35.0645V31.002L65.1562 31.0179L64.585 31.002C61.427 30.9861 56.2061 30.9227 50.4932 37.1592C46.748 35.0169 43.4155 35.0328 41.3525 35.0645L26.5625 35.0804V39.1429L41.3843 39.127C43.1775 39.1111 45.304 39.1429 47.7478 40.3331L42.0666 46.887L43.3997 48.22C47.478 52.2984 53.9368 52.3777 58.1104 48.4263C59.7925 46.8394 62.4268 46.8235 64.1089 48.3946L70.3613 54.2503C70.9326 54.8057 71.25 55.5833 71.25 56.3926C71.25 57.2496 70.9009 58.0272 70.2502 58.646C70.1233 58.773 69.917 58.9476 69.79 59.0269C69.3298 59.2808 68.7268 59.4395 68.2031 59.4395H65.1562V60.7408L65.0928 61.0582C64.8071 62.4705 63.5535 63.502 62.1094 63.502H59.0625V64.8191L58.999 65.1207C58.7134 66.533 57.4597 67.5645 56.0156 67.5645H52.9688V68.9134L52.9053 69.1832C52.7307 70.1036 52.0959 70.8653 51.2866 71.2779C49.6204 72.1031 47.7478 71.754 46.2402 70.294L30.5457 55.377H26.5625V59.4395H28.927L43.4314 73.2298C45.177 74.9278 47.3193 75.8006 49.4617 75.8006C50.271 75.8006 51.0645 75.6419 51.842 75.388L51.8579 75.4356C53.8733 74.8643 55.4919 73.452 56.3489 71.6111C58.999 71.5 61.3318 69.8814 62.4426 67.5486C65.0928 67.4375 67.4255 65.8348 68.5364 63.4861C69.6631 63.4385 70.8215 63.1053 71.8054 62.5499V62.5657C71.8213 62.5499 71.8213 62.5499 71.8372 62.534C71.853 62.534 71.8689 62.5181 71.8848 62.5181V62.5022C72.4243 62.169 72.9321 61.7088 73.0432 61.5977C73.4558 61.2168 73.8049 60.7725 74.1064 60.3123L78.28 55.377H83.4375V51.3145H77.3438C76.7407 51.3145 76.1853 51.5843 75.7886 52.0286L74.6301 53.4092C74.281 52.6475 73.8049 51.9334 73.186 51.3145L66.886 45.427C63.6169 42.396 58.5388 42.4119 55.3174 45.4747C53.2227 47.4583 50.1916 47.7916 47.7954 46.4903L53.4766 39.9205Z" fill="white"/>
</g>
<defs>
<clipPath id="clip0_4_247">
<rect width="110" height="110" fill="white"/>
</clipPath>
</defs>
</svg>
