<svg width="80" height="80" viewBox="0 0 80 80" fill="none" xmlns="http://www.w3.org/2000/svg">
<rect width="80" height="80" fill="#1A1E1C"/>
<path d="M39.9724 16.4521H41.6082C47.2869 16.5769 52.8731 18.8852 56.8853 22.9714C55.4039 24.4999 53.8916 25.9659 52.441 27.4944C50.188 25.4356 47.4721 23.8448 44.5093 23.2834C40.1267 22.3476 35.4047 23.1898 31.732 25.7164C27.7199 28.3678 25.0039 32.8595 24.4175 37.6632C23.7694 42.4045 25.0965 47.3953 28.1519 51.0761C31.0839 54.6632 35.559 56.9091 40.1885 57.0651C44.5093 57.3146 49.0152 55.9733 52.1633 52.9164C54.6323 50.7641 55.7742 47.4889 56.1446 44.3072C51.0213 44.3072 45.8981 44.3384 40.7749 44.3072V37.8815H62.348C63.4591 44.7751 61.8542 52.5421 56.6692 57.4706C53.2126 60.9641 48.4289 63.0229 43.5525 63.4284C38.8305 63.8963 33.9542 62.9917 29.7568 60.6834C24.7262 57.9696 20.714 53.3843 18.7388 47.988C16.887 43.0283 16.8561 37.4137 18.5845 32.4228C20.1585 27.8687 23.183 23.8448 27.0717 21.0375C30.8062 18.2613 35.343 16.7329 39.9724 16.4521Z" fill="white"/>
</svg>
