<svg width="137" height="136" viewBox="0 0 137 136" fill="none" xmlns="http://www.w3.org/2000/svg">
<g clip-path="url(#clip0_2_67)">
<path d="M136.5 0H0.5V136H136.5V0Z" fill="#166FC2"/>
<path d="M77.4426 35.9131C67.6519 35.9131 58.2623 39.8024 51.3392 46.7255C44.4162 53.6485 40.5269 63.0382 40.5269 72.8288C40.5269 82.6195 44.4162 92.0092 51.3392 98.9322C58.2623 105.855 67.6519 109.745 77.4426 109.745C87.2333 109.745 96.6229 105.855 103.546 98.9322C110.469 92.0092 114.358 82.6195 114.358 72.8288C114.358 63.0382 110.469 53.6485 103.546 46.7255C96.6229 39.8024 87.2333 35.9131 77.4426 35.9131Z" fill="white" fill-opacity="0.15"/>
<path d="M64.6911 27.2549C54.9005 27.2549 45.5108 31.1442 38.5878 38.0673C31.6647 44.9903 27.7754 54.38 27.7754 64.1706C27.7754 73.9613 31.6647 83.351 38.5878 90.274C45.5108 97.1971 54.9005 101.086 64.6911 101.086C74.4818 101.086 83.8715 97.1971 90.7945 90.274C97.7176 83.351 101.607 73.9613 101.607 64.1706C101.607 54.38 97.7176 44.9903 90.7945 38.0673C83.8715 31.1442 74.4818 27.2549 64.6911 27.2549Z" stroke="white" stroke-width="3"/>
<path d="M52.3857 47.8965V80.4439L80.5955 64.1702L52.3857 47.8965Z" stroke="white" stroke-width="3"/>
</g>
<defs>
<clipPath id="clip0_2_67">
<rect width="136" height="136" fill="white" transform="translate(0.5)"/>
</clipPath>
</defs>
</svg>
