<svg width="35" height="30" viewBox="0 0 35 30" fill="none" xmlns="http://www.w3.org/2000/svg">
<path fill-rule="evenodd" clip-rule="evenodd" d="M24.1998 9.9C24.7998 9.9 25.3998 9.7 25.8998 9.2C26.3998 8.7 26.5998 8.1 26.5998 7.5C26.5998 6.9 26.3998 6.3 25.8998 5.8C24.9998 4.9 23.3998 4.9 22.4998 5.8C21.9998 6.3 21.7998 6.9 21.7998 7.5C21.7998 8.1 21.9998 8.7 22.4998 9.2C22.9998 9.6 23.5998 9.9 24.1998 9.9Z" fill="#F8F8F8"/>
<path fill-rule="evenodd" clip-rule="evenodd" d="M30.2 0H3.9C1.7 0 0 1.7 0 3.9V25.4C0 27.5 1.7 29.3 3.9 29.3H30.2C32.3 29.3 34.1 27.6 34.1 25.4V3.9C34.1 1.7 32.4 0 30.2 0ZM3.9 3H30.2C30.7 3 31.1 3.4 31.1 3.9V20.4L23.5 12.4L18.8 17.7L11.6 10.1L3 19.8V3.9C3 3.4 3.4 3 3.9 3ZM3 25.4V23.3L11.7 13.5L23.8 26.2H3.9C3.4 26.3 3 25.9 3 25.4ZM30.2 26.3H27L20.4 19.4L23.5 15.9L31 23.9V25.4C31.1 25.9 30.7 26.3 30.2 26.3Z" fill="#F8F8F8"/>
</svg>
