<svg width="136" height="136" viewBox="0 0 136 136" fill="none" xmlns="http://www.w3.org/2000/svg">
<rect width="136" height="136" fill="#079561"/>
<circle cx="72.4717" cy="66.2197" r="28.459" fill="white" fill-opacity="0.15"/>
<path d="M106.701 110.436L84.3002 88.0352M61.0092 33.0342C69.4192 33.0342 77.4848 36.3751 83.4316 42.3218C89.3784 48.2686 92.7192 56.3342 92.7192 64.7442C92.7192 73.1542 89.3784 81.2198 83.4316 87.1666C77.4848 93.1134 69.4192 96.4543 61.0092 96.4543C52.5991 96.4543 44.5335 93.1134 38.5868 87.1666C32.64 81.2198 29.2991 73.1542 29.2991 64.7442C29.2991 56.3342 32.64 48.2686 38.5868 42.3218C44.5335 36.3751 52.5991 33.0342 61.0092 33.0342Z" stroke="white" stroke-width="5"/>
</svg>
