<svg width="744" height="419" viewBox="0 0 744 419" fill="none" xmlns="http://www.w3.org/2000/svg">
<mask id="mask0" mask-type="alpha" maskUnits="userSpaceOnUse" x="0" y="0" width="744" height="419">
<rect width="744" height="419" fill="#C4C4C4"/>
</mask>
<g mask="url(#mask0)">
<rect x="-8.5293" y="-19.5048" width="762.1" height="458.009" fill="#079561"/>
<path opacity="0.4" d="M265.813 361.91C265.813 458.166 187.876 536.196 91.7364 536.196C-4.4031 536.196 -82.3405 458.166 -82.3405 361.91C-82.3405 265.654 -4.4031 187.625 91.7364 187.625C187.876 187.625 265.813 265.654 265.813 361.91Z" stroke="white" stroke-width="0.862049"/>
<path opacity="0.4" d="M845.346 113.57C845.346 209.826 767.409 287.856 671.269 287.856C575.13 287.856 497.192 209.826 497.192 113.57C497.192 17.3145 575.13 -60.7152 671.269 -60.7152C767.409 -60.7152 845.346 17.3145 845.346 113.57Z" stroke="white" stroke-width="0.862049"/>
<g opacity="0.5">
<ellipse cx="40.1271" cy="26.0657" rx="1.86223" ry="1.86445" fill="white"/>
<ellipse cx="40.1271" cy="42.3168" rx="1.86223" ry="1.86445" fill="white"/>
<ellipse cx="40.1271" cy="74.8194" rx="1.86223" ry="1.86445" fill="white"/>
<ellipse cx="40.1271" cy="107.322" rx="1.86223" ry="1.86445" fill="white"/>
<ellipse cx="40.1271" cy="123.573" rx="1.86223" ry="1.86445" fill="white"/>
<ellipse cx="40.1271" cy="58.5681" rx="1.86223" ry="1.86445" fill="white"/>
<ellipse cx="40.1271" cy="91.0707" rx="1.86223" ry="1.86445" fill="white"/>
<ellipse cx="56.3589" cy="26.0657" rx="1.86223" ry="1.86445" fill="white"/>
<ellipse cx="56.3589" cy="42.3168" rx="1.86223" ry="1.86445" fill="white"/>
<ellipse cx="56.3589" cy="74.8194" rx="1.86223" ry="1.86445" fill="white"/>
<ellipse cx="56.3589" cy="107.322" rx="1.86223" ry="1.86445" fill="white"/>
<ellipse cx="56.3589" cy="123.573" rx="1.86223" ry="1.86445" fill="white"/>
<ellipse cx="56.3589" cy="58.5681" rx="1.86223" ry="1.86445" fill="white"/>
<ellipse cx="56.3589" cy="91.0707" rx="1.86223" ry="1.86445" fill="white"/>
<ellipse cx="72.5908" cy="26.0657" rx="1.86223" ry="1.86445" fill="white"/>
<ellipse cx="72.5908" cy="42.3168" rx="1.86223" ry="1.86445" fill="white"/>
<ellipse cx="72.5908" cy="74.8194" rx="1.86223" ry="1.86445" fill="white"/>
<ellipse cx="72.5908" cy="107.322" rx="1.86223" ry="1.86445" fill="white"/>
<ellipse cx="72.5908" cy="123.573" rx="1.86223" ry="1.86445" fill="white"/>
<ellipse cx="72.5908" cy="58.5681" rx="1.86223" ry="1.86445" fill="white"/>
<ellipse cx="72.5908" cy="91.0707" rx="1.86223" ry="1.86445" fill="white"/>
<ellipse cx="88.8226" cy="26.0657" rx="1.86223" ry="1.86445" fill="white"/>
<ellipse cx="88.8226" cy="42.3168" rx="1.86223" ry="1.86445" fill="white"/>
<ellipse cx="88.8226" cy="74.8194" rx="1.86223" ry="1.86445" fill="white"/>
<ellipse cx="88.8226" cy="107.322" rx="1.86223" ry="1.86445" fill="white"/>
<ellipse cx="88.8226" cy="123.573" rx="1.86223" ry="1.86445" fill="white"/>
<ellipse cx="88.8226" cy="58.5681" rx="1.86223" ry="1.86445" fill="white"/>
<ellipse cx="88.8226" cy="91.0707" rx="1.86223" ry="1.86445" fill="white"/>
<ellipse cx="105.054" cy="26.0657" rx="1.86223" ry="1.86445" fill="white"/>
<ellipse cx="105.054" cy="42.3168" rx="1.86223" ry="1.86445" fill="white"/>
<ellipse cx="105.054" cy="74.8194" rx="1.86223" ry="1.86445" fill="white"/>
<ellipse cx="105.054" cy="107.322" rx="1.86223" ry="1.86445" fill="white"/>
<ellipse cx="105.054" cy="123.573" rx="1.86223" ry="1.86445" fill="white"/>
<ellipse cx="105.054" cy="58.5681" rx="1.86223" ry="1.86445" fill="white"/>
<ellipse cx="105.054" cy="91.0707" rx="1.86223" ry="1.86445" fill="white"/>
<ellipse cx="121.286" cy="26.0657" rx="1.86223" ry="1.86445" fill="white"/>
<ellipse cx="121.286" cy="42.3168" rx="1.86223" ry="1.86445" fill="white"/>
<ellipse cx="121.286" cy="74.8194" rx="1.86223" ry="1.86445" fill="white"/>
<ellipse cx="121.286" cy="107.322" rx="1.86223" ry="1.86445" fill="white"/>
<ellipse cx="121.286" cy="123.573" rx="1.86223" ry="1.86445" fill="white"/>
<ellipse cx="121.286" cy="58.5681" rx="1.86223" ry="1.86445" fill="white"/>
<ellipse cx="121.286" cy="91.0707" rx="1.86223" ry="1.86445" fill="white"/>
<ellipse cx="137.518" cy="26.0657" rx="1.86223" ry="1.86445" fill="white"/>
<ellipse cx="137.518" cy="42.3168" rx="1.86223" ry="1.86445" fill="white"/>
<ellipse cx="137.518" cy="74.8194" rx="1.86223" ry="1.86445" fill="white"/>
<ellipse cx="137.518" cy="107.322" rx="1.86223" ry="1.86445" fill="white"/>
<ellipse cx="137.518" cy="123.573" rx="1.86223" ry="1.86445" fill="white"/>
<ellipse cx="137.518" cy="58.5681" rx="1.86223" ry="1.86445" fill="white"/>
<ellipse cx="137.518" cy="91.0707" rx="1.86223" ry="1.86445" fill="white"/>
</g>
<g opacity="0.5">
<ellipse cx="619.117" cy="258.112" rx="1.86223" ry="1.86445" fill="white"/>
<ellipse cx="619.117" cy="274.363" rx="1.86223" ry="1.86445" fill="white"/>
<ellipse cx="619.117" cy="306.865" rx="1.86223" ry="1.86445" fill="white"/>
<ellipse cx="619.117" cy="339.368" rx="1.86223" ry="1.86445" fill="white"/>
<ellipse cx="619.117" cy="355.619" rx="1.86223" ry="1.86445" fill="white"/>
<ellipse cx="619.117" cy="290.614" rx="1.86223" ry="1.86445" fill="white"/>
<ellipse cx="619.117" cy="323.117" rx="1.86223" ry="1.86445" fill="white"/>
<ellipse cx="635.349" cy="258.112" rx="1.86223" ry="1.86445" fill="white"/>
<ellipse cx="635.349" cy="274.363" rx="1.86223" ry="1.86445" fill="white"/>
<ellipse cx="635.349" cy="306.865" rx="1.86223" ry="1.86445" fill="white"/>
<ellipse cx="635.349" cy="339.368" rx="1.86223" ry="1.86445" fill="white"/>
<ellipse cx="635.349" cy="355.619" rx="1.86223" ry="1.86445" fill="white"/>
<ellipse cx="635.349" cy="290.614" rx="1.86223" ry="1.86445" fill="white"/>
<ellipse cx="635.349" cy="323.117" rx="1.86223" ry="1.86445" fill="white"/>
<ellipse cx="651.581" cy="258.112" rx="1.86223" ry="1.86445" fill="white"/>
<ellipse cx="651.581" cy="274.363" rx="1.86223" ry="1.86445" fill="white"/>
<ellipse cx="651.581" cy="306.865" rx="1.86223" ry="1.86445" fill="white"/>
<ellipse cx="651.581" cy="339.368" rx="1.86223" ry="1.86445" fill="white"/>
<ellipse cx="651.581" cy="355.619" rx="1.86223" ry="1.86445" fill="white"/>
<ellipse cx="651.581" cy="290.614" rx="1.86223" ry="1.86445" fill="white"/>
<ellipse cx="651.581" cy="323.117" rx="1.86223" ry="1.86445" fill="white"/>
<ellipse cx="667.813" cy="258.112" rx="1.86223" ry="1.86445" fill="white"/>
<ellipse cx="667.813" cy="274.363" rx="1.86223" ry="1.86445" fill="white"/>
<ellipse cx="667.813" cy="306.865" rx="1.86223" ry="1.86445" fill="white"/>
<ellipse cx="667.813" cy="339.368" rx="1.86223" ry="1.86445" fill="white"/>
<ellipse cx="667.813" cy="355.619" rx="1.86223" ry="1.86445" fill="white"/>
<ellipse cx="667.813" cy="290.614" rx="1.86223" ry="1.86445" fill="white"/>
<ellipse cx="667.813" cy="323.117" rx="1.86223" ry="1.86445" fill="white"/>
<ellipse cx="684.044" cy="258.112" rx="1.86223" ry="1.86445" fill="white"/>
<ellipse cx="684.044" cy="274.363" rx="1.86223" ry="1.86445" fill="white"/>
<ellipse cx="684.044" cy="306.865" rx="1.86223" ry="1.86445" fill="white"/>
<ellipse cx="684.044" cy="339.368" rx="1.86223" ry="1.86445" fill="white"/>
<ellipse cx="684.044" cy="355.619" rx="1.86223" ry="1.86445" fill="white"/>
<ellipse cx="684.044" cy="290.614" rx="1.86223" ry="1.86445" fill="white"/>
<ellipse cx="684.044" cy="323.117" rx="1.86223" ry="1.86445" fill="white"/>
<ellipse cx="700.276" cy="258.112" rx="1.86223" ry="1.86445" fill="white"/>
<ellipse cx="700.276" cy="274.363" rx="1.86223" ry="1.86445" fill="white"/>
<ellipse cx="700.276" cy="306.865" rx="1.86223" ry="1.86445" fill="white"/>
<ellipse cx="700.276" cy="339.368" rx="1.86223" ry="1.86445" fill="white"/>
<ellipse cx="700.276" cy="355.619" rx="1.86223" ry="1.86445" fill="white"/>
<ellipse cx="700.276" cy="290.614" rx="1.86223" ry="1.86445" fill="white"/>
<ellipse cx="700.276" cy="323.117" rx="1.86223" ry="1.86445" fill="white"/>
<ellipse cx="716.508" cy="258.112" rx="1.86223" ry="1.86445" fill="white"/>
<ellipse cx="716.508" cy="274.363" rx="1.86223" ry="1.86445" fill="white"/>
<ellipse cx="716.508" cy="306.865" rx="1.86223" ry="1.86445" fill="white"/>
<ellipse cx="716.508" cy="339.368" rx="1.86223" ry="1.86445" fill="white"/>
<ellipse cx="716.508" cy="355.619" rx="1.86223" ry="1.86445" fill="white"/>
<ellipse cx="716.508" cy="290.614" rx="1.86223" ry="1.86445" fill="white"/>
<ellipse cx="716.508" cy="323.117" rx="1.86223" ry="1.86445" fill="white"/>
</g>
<g opacity="0.5">
<ellipse cx="622.755" cy="26.8836" rx="1.86223" ry="1.86445" fill="white"/>
<ellipse cx="622.755" cy="43.1347" rx="1.86223" ry="1.86445" fill="white"/>
<ellipse cx="622.755" cy="75.6373" rx="1.86223" ry="1.86445" fill="white"/>
<ellipse cx="622.755" cy="108.14" rx="1.86223" ry="1.86445" fill="white"/>
<ellipse cx="622.755" cy="124.391" rx="1.86223" ry="1.86445" fill="white"/>
<ellipse cx="622.755" cy="59.3859" rx="1.86223" ry="1.86445" fill="white"/>
<ellipse cx="622.755" cy="91.8886" rx="1.86223" ry="1.86445" fill="white"/>
<ellipse cx="638.987" cy="26.8836" rx="1.86223" ry="1.86445" fill="white"/>
<ellipse cx="638.987" cy="43.1347" rx="1.86223" ry="1.86445" fill="white"/>
<ellipse cx="638.987" cy="75.6373" rx="1.86223" ry="1.86445" fill="white"/>
<ellipse cx="638.987" cy="108.14" rx="1.86223" ry="1.86445" fill="white"/>
<ellipse cx="638.987" cy="124.391" rx="1.86223" ry="1.86445" fill="white"/>
<ellipse cx="638.987" cy="59.3859" rx="1.86223" ry="1.86445" fill="white"/>
<ellipse cx="638.987" cy="91.8886" rx="1.86223" ry="1.86445" fill="white"/>
<ellipse cx="655.218" cy="26.8836" rx="1.86223" ry="1.86445" fill="white"/>
<ellipse cx="655.218" cy="43.1347" rx="1.86223" ry="1.86445" fill="white"/>
<ellipse cx="655.218" cy="75.6373" rx="1.86223" ry="1.86445" fill="white"/>
<ellipse cx="655.218" cy="108.14" rx="1.86223" ry="1.86445" fill="white"/>
<ellipse cx="655.218" cy="124.391" rx="1.86223" ry="1.86445" fill="white"/>
<ellipse cx="655.218" cy="59.3859" rx="1.86223" ry="1.86445" fill="white"/>
<ellipse cx="655.218" cy="91.8886" rx="1.86223" ry="1.86445" fill="white"/>
<ellipse cx="671.45" cy="26.8836" rx="1.86223" ry="1.86445" fill="white"/>
<ellipse cx="671.45" cy="43.1347" rx="1.86223" ry="1.86445" fill="white"/>
<ellipse cx="671.45" cy="75.6373" rx="1.86223" ry="1.86445" fill="white"/>
<ellipse cx="671.45" cy="108.14" rx="1.86223" ry="1.86445" fill="white"/>
<ellipse cx="671.45" cy="124.391" rx="1.86223" ry="1.86445" fill="white"/>
<ellipse cx="671.45" cy="59.3859" rx="1.86223" ry="1.86445" fill="white"/>
<ellipse cx="671.45" cy="91.8886" rx="1.86223" ry="1.86445" fill="white"/>
<ellipse cx="687.682" cy="26.8836" rx="1.86223" ry="1.86445" fill="white"/>
<ellipse cx="687.682" cy="43.1347" rx="1.86223" ry="1.86445" fill="white"/>
<ellipse cx="687.682" cy="75.6373" rx="1.86223" ry="1.86445" fill="white"/>
<ellipse cx="687.682" cy="108.14" rx="1.86223" ry="1.86445" fill="white"/>
<ellipse cx="687.682" cy="124.391" rx="1.86223" ry="1.86445" fill="white"/>
<ellipse cx="687.682" cy="59.3859" rx="1.86223" ry="1.86445" fill="white"/>
<ellipse cx="687.682" cy="91.8886" rx="1.86223" ry="1.86445" fill="white"/>
<ellipse cx="703.914" cy="26.8836" rx="1.86223" ry="1.86445" fill="white"/>
<ellipse cx="703.914" cy="43.1347" rx="1.86223" ry="1.86445" fill="white"/>
<ellipse cx="703.914" cy="75.6373" rx="1.86223" ry="1.86445" fill="white"/>
<ellipse cx="703.914" cy="108.14" rx="1.86223" ry="1.86445" fill="white"/>
<ellipse cx="703.914" cy="124.391" rx="1.86223" ry="1.86445" fill="white"/>
<ellipse cx="703.914" cy="59.3859" rx="1.86223" ry="1.86445" fill="white"/>
<ellipse cx="703.914" cy="91.8886" rx="1.86223" ry="1.86445" fill="white"/>
<ellipse cx="720.146" cy="26.8836" rx="1.86223" ry="1.86445" fill="white"/>
<ellipse cx="720.146" cy="43.1347" rx="1.86223" ry="1.86445" fill="white"/>
<ellipse cx="720.146" cy="75.6373" rx="1.86223" ry="1.86445" fill="white"/>
<ellipse cx="720.146" cy="108.14" rx="1.86223" ry="1.86445" fill="white"/>
<ellipse cx="720.146" cy="124.391" rx="1.86223" ry="1.86445" fill="white"/>
<ellipse cx="720.146" cy="59.3859" rx="1.86223" ry="1.86445" fill="white"/>
<ellipse cx="720.146" cy="91.8886" rx="1.86223" ry="1.86445" fill="white"/>
</g>
<rect x="69.3036" y="62.3713" width="277.032" height="318.959" fill="#1A1E1C"/>
<rect x="409.811" y="52.6932" width="270.927" height="144.5" fill="#1A1E1C"/>
<rect x="409.811" y="232.048" width="270.927" height="144.5" fill="#1A1E1C"/>
<rect x="93.3036" y="37.6692" width="271.004" height="318.959" fill="white"/>
<rect x="394.734" y="37.6692" width="271.004" height="143.011" fill="white"/>
<rect x="522.208" y="81.4291" width="92.7277" height="12.7037" fill="#1A1E1C"/>
<rect opacity="0.08" x="522.208" y="104.552" width="126.055" height="12.7037" fill="#1A1E1C"/>
<rect opacity="0.08" x="522.208" y="124.217" width="104.007" height="12.7037" fill="#1A1E1C"/>
<path d="M507.6 109.175C507.6 99.4486 504.634 89.9544 499.098 81.9621C493.562 73.9698 485.721 67.8605 476.623 64.4513C467.525 61.0421 457.604 60.4956 448.187 62.8849C438.77 65.2742 430.307 70.4854 423.929 77.8214C417.55 85.1574 413.562 94.2685 412.496 103.936C411.43 113.603 413.338 123.366 417.965 131.918C422.592 140.47 429.716 147.404 438.386 151.792C447.055 156.18 456.857 157.813 466.478 156.472L459.904 109.175H507.6Z" fill="#079561"/>
<path d="M465.501 156.598C474.869 155.49 483.698 151.625 490.873 145.493C498.047 139.36 503.244 131.236 505.807 122.146C508.369 113.057 508.182 103.41 505.269 94.4274C502.356 85.4444 496.847 77.528 489.44 71.6793L459.904 109.175L465.501 156.598Z" fill="#1A1E1C"/>
<rect x="394.734" y="215.052" width="271.004" height="143.011" fill="white"/>
<rect x="417.626" y="288.935" width="16" height="51.2856" fill="#079561"/>
<rect x="437.626" y="271.692" width="16" height="68.5281" fill="#1A1E1C"/>
<rect x="465.931" y="297.405" width="16" height="42.8156" fill="#079561"/>
<rect x="484.931" y="307.085" width="16" height="33.1357" fill="#1A1E1C"/>
<rect x="513.236" y="268.515" width="16" height="71.7053" fill="#079561"/>
<rect x="532.236" y="247.29" width="16" height="92.9305" fill="#1A1E1C"/>
<rect x="560.54" y="260.298" width="16" height="79.9222" fill="#079561"/>
<rect x="579.54" y="275.11" width="16" height="65.1101" fill="#1A1E1C"/>
<rect x="607.845" y="232.894" width="16" height="107.327" fill="#079561"/>
<rect x="626.845" y="240.583" width="16" height="99.6379" fill="#1A1E1C"/>
<g filter="url(#filter0_d)">
<rect x="121.86" y="233.522" width="25.2299" height="84.4828" fill="#079561"/>
</g>
<g filter="url(#filter1_d)">
<rect x="166.09" y="179.828" width="25.2299" height="138.177" fill="#079561"/>
</g>
<g filter="url(#filter2_d)">
<rect x="210.32" y="204.572" width="25.2299" height="113.433" fill="#079561"/>
</g>
<g filter="url(#filter3_d)">
<rect x="254.55" y="115.264" width="25.2299" height="202.741" fill="#079561"/>
</g>
<g filter="url(#filter4_d)">
<rect x="298.78" y="135.188" width="25.2299" height="182.817" fill="#079561"/>
</g>
<rect opacity="0.7" x="121.86" y="84.8867" width="79.8868" height="13.3801" fill="#C1C1C1"/>
</g>
<defs>
<filter id="filter0_d" x="116.86" y="233.522" width="30.2299" height="89.4828" filterUnits="userSpaceOnUse" color-interpolation-filters="sRGB">
<feFlood flood-opacity="0" result="BackgroundImageFix"/>
<feColorMatrix in="SourceAlpha" type="matrix" values="0 0 0 0 0 0 0 0 0 0 0 0 0 0 0 0 0 0 127 0"/>
<feOffset dx="-5" dy="5"/>
<feColorMatrix type="matrix" values="0 0 0 0 0 0 0 0 0 0 0 0 0 0 0 0 0 0 0.9 0"/>
<feBlend mode="normal" in2="BackgroundImageFix" result="effect1_dropShadow"/>
<feBlend mode="normal" in="SourceGraphic" in2="effect1_dropShadow" result="shape"/>
</filter>
<filter id="filter1_d" x="161.09" y="179.828" width="30.2299" height="143.177" filterUnits="userSpaceOnUse" color-interpolation-filters="sRGB">
<feFlood flood-opacity="0" result="BackgroundImageFix"/>
<feColorMatrix in="SourceAlpha" type="matrix" values="0 0 0 0 0 0 0 0 0 0 0 0 0 0 0 0 0 0 127 0"/>
<feOffset dx="-5" dy="5"/>
<feColorMatrix type="matrix" values="0 0 0 0 0 0 0 0 0 0 0 0 0 0 0 0 0 0 0.9 0"/>
<feBlend mode="normal" in2="BackgroundImageFix" result="effect1_dropShadow"/>
<feBlend mode="normal" in="SourceGraphic" in2="effect1_dropShadow" result="shape"/>
</filter>
<filter id="filter2_d" x="205.32" y="204.572" width="30.2299" height="118.433" filterUnits="userSpaceOnUse" color-interpolation-filters="sRGB">
<feFlood flood-opacity="0" result="BackgroundImageFix"/>
<feColorMatrix in="SourceAlpha" type="matrix" values="0 0 0 0 0 0 0 0 0 0 0 0 0 0 0 0 0 0 127 0"/>
<feOffset dx="-5" dy="5"/>
<feColorMatrix type="matrix" values="0 0 0 0 0 0 0 0 0 0 0 0 0 0 0 0 0 0 0.9 0"/>
<feBlend mode="normal" in2="BackgroundImageFix" result="effect1_dropShadow"/>
<feBlend mode="normal" in="SourceGraphic" in2="effect1_dropShadow" result="shape"/>
</filter>
<filter id="filter3_d" x="249.55" y="115.264" width="30.2299" height="207.741" filterUnits="userSpaceOnUse" color-interpolation-filters="sRGB">
<feFlood flood-opacity="0" result="BackgroundImageFix"/>
<feColorMatrix in="SourceAlpha" type="matrix" values="0 0 0 0 0 0 0 0 0 0 0 0 0 0 0 0 0 0 127 0"/>
<feOffset dx="-5" dy="5"/>
<feColorMatrix type="matrix" values="0 0 0 0 0 0 0 0 0 0 0 0 0 0 0 0 0 0 0.9 0"/>
<feBlend mode="normal" in2="BackgroundImageFix" result="effect1_dropShadow"/>
<feBlend mode="normal" in="SourceGraphic" in2="effect1_dropShadow" result="shape"/>
</filter>
<filter id="filter4_d" x="293.78" y="135.188" width="30.2299" height="187.817" filterUnits="userSpaceOnUse" color-interpolation-filters="sRGB">
<feFlood flood-opacity="0" result="BackgroundImageFix"/>
<feColorMatrix in="SourceAlpha" type="matrix" values="0 0 0 0 0 0 0 0 0 0 0 0 0 0 0 0 0 0 127 0"/>
<feOffset dx="-5" dy="5"/>
<feColorMatrix type="matrix" values="0 0 0 0 0 0 0 0 0 0 0 0 0 0 0 0 0 0 0.9 0"/>
<feBlend mode="normal" in2="BackgroundImageFix" result="effect1_dropShadow"/>
<feBlend mode="normal" in="SourceGraphic" in2="effect1_dropShadow" result="shape"/>
</filter>
</defs>
</svg>
