<svg width="95" height="50" viewBox="0 0 95 50" fill="none" xmlns="http://www.w3.org/2000/svg">
<path d="M94.3913 33.3617C94.3121 33.2355 94.1698 33.1333 93.9913 33.0743C93.8128 33.0154 93.6104 33.0037 93.4221 33.0415C91.5 33.3292 89.6095 33.7071 87.7634 34.1727C83.218 35.2167 78.0573 36.4296 73.3913 35.1463C69.1903 33.9945 67.5829 31.4727 66.0305 29.0305C65.3246 27.7868 64.4067 26.6054 63.2967 25.5118C63.0931 25.3629 62.8285 25.2618 62.5402 25.2225C62.2519 25.1832 61.9543 25.2078 61.6894 25.2928C59.9437 26.02 58.3486 26.9083 56.9468 27.934C54.6076 29.4939 52.1949 31.1143 48.7 31.5026L48.3933 31.5366L48.2598 31.3377C48.1109 31.0992 47.9458 30.866 47.7807 30.6328C47.4666 30.1724 47.1364 29.7061 46.8791 29.213C46.7942 29.0902 46.6674 28.9836 46.51 28.9025C46.3527 28.8214 46.1696 28.7683 45.977 28.7479C45.7516 28.7011 45.5142 28.6919 45.2841 28.7211C45.054 28.7502 44.8378 28.8169 44.6529 28.9157C44.1148 29.2827 43.6086 29.6726 43.0778 30.0846C41.8328 31.1606 40.3387 32.0834 38.6559 32.8157L38.3477 32.9338L38.1336 32.7391C36.1994 30.9418 33.6093 28.8802 30.6981 28.5992C29.9343 28.5465 29.1652 28.6052 28.4398 28.7714C27.7143 28.9376 27.0484 29.2078 26.4842 29.5647C25.3655 30.2163 24.3067 30.9162 23.314 31.6605C22.8652 31.9896 22.4083 32.3186 21.9436 32.6363L21.1934 33.1568L21.2627 32.4166C21.394 30.8968 21.4791 29.2526 21.5223 27.237C21.5967 22.9754 21.5119 19.5254 21.2205 16.375C21.1255 15.3568 21.0063 14.3381 20.8791 13.3193C20.683 11.6309 20.4797 9.89744 20.3968 8.18295C20.4021 7.87975 20.3597 7.54202 20.3256 7.18758C20.1374 5.05001 19.8827 2.1025 22.3962 0.708536C22.4365 0.709238 22.4939 0.648459 22.399 0.545705C22.3294 0.469301 22.223 0.412499 22.0994 0.385608C21.9757 0.358717 21.8428 0.363518 21.7249 0.399142C18.9403 1.63672 18.7337 4.23919 18.5603 6.33113L18.5576 6.48273C18.4439 8.83774 18.5399 11.1973 18.8451 13.5477C18.92 14.3354 19.0029 15.1231 19.0617 15.9105C19.4511 20.9655 19.4246 26.0283 18.9823 31.0737C18.872 32.3131 18.7482 33.4061 18.5933 34.4369L18.5896 34.6502L18.2909 34.6843C17.7582 34.7424 17.4892 34.4625 17.0457 34.0279L16.6259 33.6162C15.8387 32.8204 15.1551 31.9776 14.5835 31.0981C14.3871 30.8082 14.1826 30.5294 13.9782 30.2394C12.404 28.1226 10.5486 25.9671 7.71384 25.9176C6.95666 25.9147 6.21072 26.0323 5.53283 26.2615C1.2317 27.613 0.457732 30.8796 0.247682 34.1447C0.0894623 36.748 1.3214 45.0876 6.51578 47.4811C8.4417 48.3684 10.7537 48.3638 13.3875 47.4662C17.4392 46.0991 18.8092 42.8374 19.7951 39.889C20.246 38.4962 20.5906 37.0867 20.8274 35.6666L20.8295 35.543L20.9677 35.4724C23.0582 34.3845 25.031 33.1914 26.8704 31.9023L27.5633 31.4313L27.9058 31.1958C28.7214 30.6203 29.6429 29.9736 31.2177 30.2089C33.0577 30.4826 35.0354 32.5559 36.2222 33.7898C36.4516 34.0297 36.6494 34.2353 36.8003 34.3615C37.0129 34.516 37.2776 34.6307 37.5697 34.6947C37.8617 34.7588 38.1714 34.7701 38.4695 34.7276C41.3828 33.9641 43.0958 32.7415 45.0396 31.2253L45.4316 30.9176L45.7071 31.2875C45.9972 31.6569 46.2595 32.0364 46.4928 32.4245C46.6323 32.5773 46.8259 32.7027 47.0546 32.7885C47.2833 32.8742 47.5392 32.9172 47.7973 32.9134C52.4398 32.7754 55.0799 31.0523 57.8346 29.2245C59.0896 28.3514 60.451 27.5559 61.9039 26.8467L62.245 26.6898L62.4663 26.9295C63.3198 27.9003 64.0825 28.908 64.7498 29.9461C66.6031 32.6857 68.3544 35.2718 73.6914 36.4152C79.3735 37.6377 85.4275 36.0079 90.7692 34.579C91.9427 34.2625 93.0516 33.9617 94.1194 33.7052C94.3219 33.6413 94.4529 33.52 94.3913 33.3617ZM18.1665 36.7378C17.8877 38.0376 17.494 39.3231 16.9876 40.587L16.9864 40.6544C16.2369 42.5173 14.831 45.9918 10.9226 46.5358C10.5174 46.5943 10.1035 46.6209 9.68869 46.6154C9.09399 46.6095 8.50533 46.5216 7.95658 46.3568C7.40783 46.192 6.90984 45.9536 6.49126 45.6553C2.18468 42.7044 2.621 33.8604 3.12317 31.8584C3.44368 30.5722 3.89411 29.2265 5.49911 28.193C6.43561 27.614 7.27009 27.3421 8.04172 27.4398C9.30372 27.5967 10.0596 28.5984 10.8553 29.6232C11.249 30.1412 11.6423 30.6873 11.9715 31.2097C13.2906 33.1705 14.6571 35.1882 17.7138 36.3648L17.8024 36.3664L18.2197 36.4579L18.1665 36.7378Z" fill="#1A1E1C"/>
</svg>
