<svg width="125" height="42" viewBox="0 0 125 42" fill="none" xmlns="http://www.w3.org/2000/svg">
<path d="M15.3928 0H16.5043C20.3628 0.0847778 24.1584 1.65317 26.8846 4.42964C25.878 5.46817 24.8505 6.46431 23.8649 7.50284C22.334 6.104 20.4886 5.02309 18.4755 4.64158C15.4977 4.00575 12.2892 4.578 9.79376 6.29475C7.06762 8.09628 5.22223 11.1483 4.82379 14.4122C4.38341 17.6338 5.28514 21.0249 7.3612 23.5258C9.35338 25.9632 12.3941 27.4892 15.5396 27.5952C18.4755 27.7647 21.5372 26.8534 23.6761 24.7763C25.3538 23.3139 26.1297 21.0885 26.3813 18.9266C22.9002 18.9266 19.4191 18.9478 15.9381 18.9266V14.5606H30.5963C31.3513 19.2446 30.2608 24.522 26.7378 27.8707C24.3891 30.2445 21.1387 31.6433 17.8254 31.9188C14.6169 32.2368 11.3036 31.6221 8.45166 30.0537C5.03349 28.2098 2.30735 25.0942 0.965246 21.4276C-0.292975 18.0577 -0.313945 14.2427 0.860394 10.8516C1.92988 7.75717 3.98498 5.02309 6.62724 3.11558C9.16465 1.22928 12.2473 0.19075 15.3928 0Z" fill="#C1C1C1"/>
<path d="M99.4849 1.10254H103.973V31.3682C102.484 31.3682 100.974 31.3894 99.4849 31.347C99.5058 21.2796 99.4849 11.1911 99.4849 1.10254V1.10254Z" fill="#C1C1C1"/>
<path d="M40.5784 11.5938C43.3464 11.0639 46.3452 11.6574 48.631 13.3317C50.707 14.8153 52.154 17.1467 52.5944 19.69C53.1606 22.636 52.4476 25.8575 50.5603 28.1889C48.5261 30.7958 45.1918 32.1946 41.9414 31.9827C38.9636 31.8131 36.0697 30.3083 34.3082 27.8498C32.316 25.1369 31.8337 21.4067 32.9242 18.2276C34.0146 14.8153 37.0973 12.2084 40.5784 11.5938V11.5938ZM41.2075 15.6207C40.0751 15.9174 39.0266 16.5744 38.2716 17.507C36.2375 19.9655 36.3633 23.9712 38.6071 26.2602C39.8863 27.5743 41.8156 28.1889 43.5981 27.8286C45.2548 27.5319 46.7017 26.4086 47.4986 24.925C48.8826 22.4029 48.4842 18.927 46.3662 16.9559C45.0031 15.6843 43.0109 15.1544 41.2075 15.6207Z" fill="#C1C1C1"/>
<path d="M62.8061 11.5934C65.9727 10.9787 69.4328 11.8689 71.8024 14.1155C75.661 17.6126 76.0804 24.1617 72.788 28.1887C70.7959 30.732 67.5664 32.1308 64.3789 31.9825C61.3382 31.8977 58.3395 30.3717 56.536 27.8496C54.5019 25.0731 54.0615 21.2581 55.2149 18.0153C56.3682 14.709 59.388 12.1868 62.8061 11.5934V11.5934ZM63.4353 15.6203C62.3029 15.9171 61.2543 16.5741 60.4994 17.4854C58.4863 19.9016 58.5701 23.8438 60.7301 26.154C62.0093 27.5316 64.0015 28.2099 65.8468 27.8284C67.4825 27.5104 68.9505 26.4083 69.7473 24.9247C71.1104 22.3814 70.712 18.9055 68.573 16.9344C67.2099 15.6627 65.2177 15.1541 63.4353 15.6203Z" fill="#C1C1C1"/>
<path d="M81.6603 12.8228C84.0719 11.2968 87.2804 10.8729 89.8807 12.187C90.6986 12.5473 91.3696 13.1619 92.0197 13.7766C92.0407 13.2043 92.0197 12.6109 92.0407 12.0174C93.4457 12.0386 94.8507 12.0174 96.2767 12.0386V30.7321C96.2557 33.551 95.5427 36.5394 93.5296 38.5952C91.3277 40.863 87.9514 41.5624 84.9107 41.0962C81.6603 40.6087 78.8293 38.2137 77.5711 35.1829C78.8293 34.5683 80.1504 34.0808 81.4506 33.5086C82.1846 35.2465 83.6735 36.7301 85.5398 37.0692C87.4062 37.4083 89.5661 36.9421 90.7824 35.3737C92.0826 33.7629 92.0826 31.5587 92.0197 29.5876C91.055 30.5414 89.9436 31.3891 88.6015 31.707C85.6866 32.5336 82.4782 31.5163 80.2343 29.524C77.9695 27.5317 76.6274 24.4586 76.7532 21.4066C76.8162 17.9519 78.7454 14.6244 81.6603 12.8228V12.8228ZM86.0012 15.5357C84.722 15.7477 83.5267 16.4683 82.7088 17.4644C80.7376 19.8382 80.7376 23.632 82.7298 25.9634C83.8622 27.341 85.6866 28.104 87.4481 27.9132C89.1048 27.7437 90.6356 26.684 91.4535 25.2216C92.8375 22.7418 92.6069 19.3719 90.7405 17.2101C89.5871 15.8748 87.7417 15.2178 86.0012 15.5357V15.5357Z" fill="#C1C1C1"/>
<path d="M109.361 13.9038C111.877 11.53 115.757 10.7246 118.986 11.9751C122.048 13.1408 123.998 16.0868 124.984 19.1176C120.433 21.0251 115.903 22.9114 111.353 24.8189C111.982 26.027 112.947 27.1291 114.247 27.5742C116.071 28.2312 118.252 27.9981 119.783 26.7688C120.391 26.3025 120.873 25.6879 121.335 25.0944C122.488 25.8786 123.642 26.6416 124.795 27.4258C123.159 29.9056 120.412 31.6435 117.455 31.9191C114.184 32.3218 110.703 31.0501 108.585 28.4644C105.104 24.395 105.439 17.5704 109.361 13.9038V13.9038ZM111.605 17.8248C110.892 18.8633 110.598 20.135 110.619 21.3854C113.66 20.1138 116.7 18.8421 119.741 17.5492C119.238 16.3623 118.021 15.6417 116.784 15.451C114.792 15.0907 112.716 16.1716 111.605 17.8248V17.8248Z" fill="#C1C1C1"/>
</svg>
