<svg width="159" height="31" viewBox="0 0 159 31" fill="none" xmlns="http://www.w3.org/2000/svg">
<path d="M10.7449 30.2829H4.8202V15.3555H0.78418V10.4955H4.82004V7.03717C4.82004 2.93911 6.60511 0 12.5138 0C13.7635 0 15.7254 0.25458 15.7254 0.25458V4.76741H13.6647C11.565 4.76741 10.7452 5.41292 10.7452 7.19752V10.4955H15.6468L15.2103 15.3555H10.7451L10.7449 30.2829ZM24.3393 10.1071C24.253 10.1071 24.1641 10.1102 24.0762 10.1125C18.5825 10.1125 16.069 14.289 16.069 20.2178C16.069 27.6864 19.3294 30.6756 24.1192 30.6756C26.8596 30.6756 28.6601 29.5098 29.7544 27.3343V30.285H35.3897V10.4975H29.7544V13.5406C28.8609 11.5827 27.0101 10.1303 24.3393 10.1071ZM25.7722 14.7828C28.0796 14.7828 29.4645 16.4094 29.4645 19.1763L29.4698 22.0022C29.4698 23.8671 28.326 26.0488 25.7722 26.0488C21.8461 26.0488 21.9509 21.7642 21.9509 20.3371C21.9509 15.5368 24.0428 14.7828 25.7722 14.7828ZM37.6655 20.3923C37.6655 17.9878 37.5516 10.1199 47.6938 10.1199C51.765 10.1199 53.465 11.4283 53.465 11.4283L52.0987 15.7115C52.0987 15.7115 50.4009 14.7666 48.1886 14.7666C45.3551 14.7666 43.5471 16.4267 43.5471 19.3477L43.5502 21.4422C43.5502 24.249 45.2947 26.1226 48.1944 26.1226C50.2098 26.1226 52.0674 25.1688 52.0674 25.1688L53.4303 29.3625C53.4303 29.3625 51.8759 30.6791 47.7223 30.6791C38.0653 30.6791 37.6656 23.6201 37.6656 20.3923H37.6655ZM86.5065 10.1125C92.0004 10.1125 94.5536 14.289 94.5536 20.2178C94.5536 27.6864 91.293 30.6756 86.5032 30.6756C83.7628 30.6756 81.737 29.51 80.6427 27.3343V30.285L75.0783 30.2828V0.601647L80.9862 0.0808871V13.2725C81.8389 10.9646 84.6411 10.1125 86.5067 10.1125H86.5065ZM84.8502 14.7828C82.5428 14.7828 80.9862 16.4094 80.9862 19.1763L80.9807 22.0022C80.9773 23.8671 82.0587 26.0488 84.8502 26.0488C88.7763 26.0488 88.6715 21.7642 88.6715 20.3371C88.6715 15.5368 86.5798 14.7828 84.8502 14.7828ZM63.7157 10.1288C57.4846 10.1288 54.1949 13.5625 54.1949 19.6645V20.7981C54.1949 28.7179 58.8146 30.7569 64.3222 30.7569C69.6755 30.7569 72.0986 29.2436 72.0986 29.2436L70.9931 25.2136C70.9931 25.2136 68.1428 26.4393 65.0305 26.4393C61.8041 26.4393 60.4165 25.6081 60.0608 22.4744H72.5709V19.2413C72.5709 12.6222 68.8789 10.1287 63.7156 10.1287L63.7157 10.1288ZM63.8659 14.1643C66.0228 14.1643 67.4204 15.5011 67.3437 18.6013H60.0717C60.1978 15.3383 61.705 14.1645 63.8659 14.1645V14.1643ZM106.334 10.1017C99.9347 10.1017 96.566 13.7462 96.566 20.2774C96.566 29.2385 102.373 30.681 106.344 30.681C112.158 30.681 116.026 27.5175 116.026 20.3588C116.026 12.9078 111.677 10.1017 106.334 10.1017V10.1017ZM106.253 14.799C109.067 14.799 110.182 16.9273 110.182 19.35V21.4328C110.182 24.3677 108.622 26.0652 106.242 26.0652C104.017 26.0652 102.453 24.4773 102.453 21.4328V19.35C102.453 16.103 104.314 14.799 106.253 14.799V14.799ZM127.796 10.1017C121.397 10.1017 118.028 13.7462 118.028 20.2774C118.028 29.2385 123.835 30.681 127.806 30.681C133.62 30.681 137.488 27.5175 137.488 20.3588C137.488 12.9078 133.139 10.1017 127.796 10.1017V10.1017ZM127.715 14.799C130.529 14.799 131.644 16.9273 131.644 19.35V21.4328C131.644 24.3677 130.084 26.0652 127.704 26.0652C125.479 26.0652 123.915 24.4773 123.915 21.4328V19.35C123.915 16.103 125.776 14.799 127.715 14.799V14.799ZM139.721 30.2829V0.601647L145.646 0.0808871V19.9751L151.524 10.4955H157.781L151.649 20.3136L158.017 30.2829H151.742L145.646 20.6028V30.2829H139.721Z" fill="#C1C1C1"/>
</svg>
