<svg width="172" height="44" viewBox="0 0 172 44" fill="none" xmlns="http://www.w3.org/2000/svg">
<path d="M1.93459 25.2379C0.319253 23.6225 0.319252 21.0036 1.93458 19.3882L16.0705 5.25234C20.1088 1.21401 26.6562 1.21401 30.6946 5.25235L37.3679 11.9257L26.9117 22.3592L37.2177 32.878L29.9771 40.1187C26.3426 43.7532 20.4499 43.7532 16.8154 40.1187L1.93459 25.2379Z" fill="#079561"/>
<path d="M17.0914 40.3943C14.7534 38.0564 14.7722 34.2601 17.1332 31.9455L26.9122 22.359L37.2182 32.8778L29.7019 40.3941C26.2196 43.8764 20.5738 43.8765 17.0914 40.3943Z" fill="#56D296"/>
<path d="M13.1136 8.20905L16.072 5.25109C20.1104 1.21322 26.6575 1.21344 30.6956 5.25158L37.3694 11.9254L26.9132 22.359L13.1136 8.20905Z" fill="#078063"/>
<path d="M58.2131 32.7995C62.8728 32.7995 66.317 30.2237 67.4457 27.04L63.4806 25.1298C62.7281 27.2137 60.8179 28.7476 58.2131 28.7476C54.3928 28.7476 51.8169 25.8823 51.8169 21.6567C51.8169 17.4601 54.3928 14.5948 58.2131 14.5948C60.8179 14.5948 62.7281 16.1288 63.4806 18.2126L67.4457 16.3024C66.317 13.1188 62.8728 10.5429 58.2131 10.5429C51.9616 10.5429 47.3308 15.2316 47.3308 21.6567C47.3308 28.053 52.0195 32.7995 58.2131 32.7995ZM77.0545 32.7995C81.7432 32.7995 85.5057 29.3264 85.5057 24.551C85.5057 19.7755 81.7432 16.3024 77.0545 16.3024C72.3659 16.3024 68.6034 19.7755 68.6034 24.551C68.6034 29.3264 72.3659 32.7995 77.0545 32.7995ZM77.0545 28.8923C74.6813 28.8923 73.0895 27.0979 73.0895 24.551C73.0895 22.033 74.6813 20.2096 77.0545 20.2096C79.4278 20.2096 81.0196 22.033 81.0196 24.551C81.0196 27.0979 79.4278 28.8923 77.0545 28.8923ZM97.3727 16.6497V25.8823C97.3727 27.7057 96.186 28.8923 94.4785 28.8923C92.7709 28.8923 91.5842 27.7057 91.5842 25.8823V16.6497H87.2429V26.2586C87.2429 30.1368 89.703 32.7995 93.3208 32.7995C95.2888 32.7995 96.8517 32.0181 97.6621 30.542V32.4522H101.714V16.6497H97.3727ZM112.939 16.4761C111 16.4761 109.466 17.0549 108.656 19.023V16.6497H104.604V32.4522H108.945V23.9432C108.945 21.5989 110.392 20.2386 112.505 20.2386H114.589V16.4761H112.939ZM122.729 32.7995C126.521 32.7995 129.155 30.8025 129.155 27.8793C129.155 25.6218 127.65 24.0011 124.842 23.2486L121.919 22.4671C121.398 22.3224 120.298 22.033 120.298 21.0779C120.298 20.2675 121.051 19.7755 122.324 19.7755C124.032 19.7755 125.392 20.5859 125.913 21.9462L129.155 20.4412C128.142 17.8653 125.566 16.3024 122.324 16.3024C118.62 16.3024 116.102 18.2994 116.102 21.2226C116.102 23.3933 117.491 25.0719 120.356 25.8244L123.135 26.548C123.685 26.6927 124.958 27.0111 124.958 28.053C124.958 28.9213 124.09 29.4712 122.729 29.4712C120.935 29.4712 119.517 28.5161 118.678 26.7506L115.465 28.2556C116.449 31.1209 119.285 32.7995 122.729 32.7995ZM146.135 24.0879C146.135 19.7176 142.72 16.3024 138.292 16.3024C133.777 16.3024 130.304 19.8044 130.304 24.522C130.304 29.0949 133.574 32.7995 138.581 32.7995C141.823 32.7995 144.427 31.2656 145.382 28.9502L141.909 27.3005C141.302 28.3714 140.173 29.037 138.639 29.037C136.497 29.037 135.079 27.7636 134.819 25.7665H145.932C146.077 25.3324 146.135 24.7246 146.135 24.0879ZM134.905 22.5829C135.339 20.7595 136.584 19.7755 138.292 19.7755C140.086 19.7755 141.359 20.9043 141.533 22.5829H134.905ZM170.905 10.8902H165.869L161.499 17.7495L157.099 10.8902H152.063L158.981 21.6567L152.063 32.4522H157.099L161.499 25.5929L165.869 32.4522H170.905L164.017 21.6567L170.905 10.8902Z" fill="#1A1E1C"/>
</svg>
