<svg width="158" height="31" viewBox="0 0 158 31" fill="none" xmlns="http://www.w3.org/2000/svg">
<path d="M9.96073 30.2829H4.03602V15.3555H0V10.4955H4.03586V7.03717C4.03586 2.93911 5.82093 0 11.7296 0C12.9793 0 14.9413 0.25458 14.9413 0.25458V4.76741H12.8806C10.7809 4.76741 9.96105 5.41292 9.96105 7.19752V10.4955H14.8626L14.4262 15.3555H9.96089L9.96073 30.2829ZM23.5551 10.1071C23.4688 10.1071 23.38 10.1102 23.2921 10.1125C17.7983 10.1125 15.2848 14.289 15.2848 20.2178C15.2848 27.6864 18.5452 30.6756 23.335 30.6756C26.0754 30.6756 27.8759 29.5098 28.9702 27.3343V30.285H34.6055V10.4975H28.9702V13.5406C28.0767 11.5827 26.2259 10.1303 23.5551 10.1071ZM24.988 14.7828C27.2954 14.7828 28.6803 16.4094 28.6803 19.1763L28.6856 22.0022C28.6856 23.8671 27.5418 26.0488 24.988 26.0488C21.0619 26.0488 21.1667 21.7642 21.1667 20.3371C21.1667 15.5368 23.2586 14.7828 24.988 14.7828ZM36.8813 20.3923C36.8813 17.9878 36.7674 10.1199 46.9096 10.1199C50.9809 10.1199 52.6809 11.4283 52.6809 11.4283L51.3145 15.7115C51.3145 15.7115 49.6167 14.7666 47.4044 14.7666C44.5709 14.7666 42.7629 16.4267 42.7629 19.3477L42.766 21.4422C42.766 24.249 44.5106 26.1226 47.4102 26.1226C49.4257 26.1226 51.2832 25.1688 51.2832 25.1688L52.6461 29.3625C52.6461 29.3625 51.0917 30.6791 46.9381 30.6791C37.2811 30.6791 36.8814 23.6201 36.8814 20.3923H36.8813ZM85.7223 10.1125C91.2162 10.1125 93.7694 14.289 93.7694 20.2178C93.7694 27.6864 90.5088 30.6756 85.719 30.6756C82.9786 30.6756 80.9528 29.51 79.8585 27.3343V30.285L74.2942 30.2828V0.601647L80.202 0.0808871V13.2725C81.0547 10.9646 83.8569 10.1125 85.7225 10.1125H85.7223ZM84.0661 14.7828C81.7587 14.7828 80.202 16.4094 80.202 19.1763L80.1965 22.0022C80.1931 23.8671 81.2745 26.0488 84.0661 26.0488C87.9922 26.0488 87.8873 21.7642 87.8873 20.3371C87.8873 15.5368 85.7956 14.7828 84.0661 14.7828ZM62.9315 10.1288C56.7004 10.1288 53.4107 13.5625 53.4107 19.6645V20.7981C53.4107 28.7179 58.0304 30.7569 63.538 30.7569C68.8913 30.7569 71.3144 29.2436 71.3144 29.2436L70.2089 25.2136C70.2089 25.2136 67.3586 26.4393 64.2463 26.4393C61.0199 26.4393 59.6323 25.6081 59.2766 22.4744H71.7868V19.2413C71.7868 12.6222 68.0948 10.1287 62.9314 10.1287L62.9315 10.1288ZM63.0817 14.1643C65.2386 14.1643 66.6363 15.5011 66.5595 18.6013H59.2875C59.4136 15.3383 60.9208 14.1645 63.0817 14.1645V14.1643ZM105.549 10.1017C99.1505 10.1017 95.7818 13.7462 95.7818 20.2774C95.7818 29.2385 101.589 30.681 105.56 30.681C111.374 30.681 115.242 27.5175 115.242 20.3588C115.242 12.9078 110.893 10.1017 105.549 10.1017V10.1017ZM105.469 14.799C108.283 14.799 109.398 16.9273 109.398 19.35V21.4328C109.398 24.3677 107.838 26.0652 105.458 26.0652C103.233 26.0652 101.669 24.4773 101.669 21.4328V19.35C101.669 16.103 103.53 14.799 105.469 14.799V14.799ZM127.011 10.1017C120.613 10.1017 117.244 13.7462 117.244 20.2774C117.244 29.2385 123.051 30.681 127.022 30.681C132.836 30.681 136.704 27.5175 136.704 20.3588C136.704 12.9078 132.355 10.1017 127.011 10.1017V10.1017ZM126.931 14.799C129.745 14.799 130.859 16.9273 130.859 19.35V21.4328C130.859 24.3677 129.299 26.0652 126.92 26.0652C124.695 26.0652 123.131 24.4773 123.131 21.4328V19.35C123.131 16.103 124.992 14.799 126.931 14.799V14.799ZM138.937 30.2829V0.601647L144.862 0.0808871V19.9751L150.74 10.4955H156.997L150.865 20.3136L157.233 30.2829H150.958L144.862 20.6028V30.2829H138.937Z" fill="#C1C1C1"/>
</svg>
