<svg width="143" height="48" viewBox="0 0 143 48" fill="none" xmlns="http://www.w3.org/2000/svg">
<path d="M17.6314 0H18.9007C23.3071 0.0968165 27.6417 1.88792 30.755 5.05866C29.6055 6.24467 28.432 7.38226 27.3065 8.56826C25.5583 6.97079 23.4508 5.73638 21.1518 5.3007C17.7511 4.57458 14.0871 5.22809 11.2372 7.18863C8.12397 9.24598 6.01653 12.7314 5.56152 16.4588C5.0586 20.1378 6.08838 24.0105 8.45925 26.8666C10.7343 29.6501 14.2068 31.3928 17.799 31.5138C21.1518 31.7074 24.6482 30.6666 27.0909 28.2946C29.0068 26.6245 29.8929 24.0831 30.1803 21.6143C26.2049 21.6143 22.2295 21.6385 18.2541 21.6143V16.6282H34.9938C35.856 21.9773 34.6107 28.0042 30.5874 31.8284C27.9052 34.5393 24.1932 36.1368 20.4094 36.4514C16.7453 36.8145 12.9615 36.1126 9.70455 34.3215C5.801 32.2157 2.68773 28.6577 1.15505 24.4704C-0.281843 20.6219 -0.305792 16.2652 1.03531 12.3925C2.25666 8.85871 4.60359 5.73638 7.62106 3.55801C10.5188 1.40384 14.0392 0.217837 17.6314 0Z" fill="#C1C1C1"/>
<path d="M113.665 1.25861H118.789V35.822C117.089 35.822 115.365 35.8462 113.665 35.7978C113.688 24.3009 113.665 12.7797 113.665 1.25861V1.25861Z" fill="#C1C1C1"/>
<path d="M46.3931 13.2397C49.5543 12.6346 52.9789 13.3123 55.5893 15.2244C57.9601 16.9187 59.6126 19.5811 60.1155 22.4856C60.7621 25.85 59.9478 29.529 57.7925 32.1914C55.4695 35.1685 51.6618 36.7659 47.9498 36.5239C44.5491 36.3303 41.2443 34.6118 39.2326 31.8041C36.9576 28.706 36.4067 24.4461 37.652 20.8155C38.8974 16.9187 42.4177 13.9416 46.3931 13.2397V13.2397ZM47.1116 17.8384C45.8184 18.1773 44.621 18.9276 43.7588 19.9926C41.4359 22.8003 41.5796 27.3748 44.142 29.9888C45.6029 31.4895 47.8061 32.1914 49.8417 31.7799C51.7336 31.4411 53.386 30.1583 54.2961 28.464C55.8766 25.5837 55.4216 21.6143 53.0029 19.3633C51.4462 17.9111 49.1711 17.306 47.1116 17.8384Z" fill="#C1C1C1"/>
<path d="M71.7777 13.2396C75.3939 12.5377 79.3453 13.5542 82.0515 16.1199C86.458 20.1136 86.9369 27.5927 83.1771 32.1915C80.902 35.096 77.214 36.6934 73.5738 36.524C70.1013 36.4272 66.6767 34.6845 64.6172 31.8042C62.2942 28.6334 61.7913 24.2767 63.1085 20.5735C64.4256 16.7976 67.8742 13.9173 71.7777 13.2396V13.2396ZM72.4962 17.8384C71.203 18.1772 70.0055 18.9276 69.1434 19.9684C66.8444 22.7276 66.9402 27.2296 69.4068 29.8679C70.8677 31.4411 73.1428 32.2157 75.2502 31.78C77.1182 31.4169 78.7945 30.1583 79.7046 28.464C81.2612 25.5595 80.8062 21.59 78.3635 19.339C76.8068 17.8868 74.5318 17.3059 72.4962 17.8384Z" fill="#C1C1C1"/>
<path d="M93.309 14.6435C96.063 12.9008 99.7271 12.4167 102.697 13.9174C103.631 14.3289 104.397 15.0308 105.139 15.7327C105.163 15.0792 105.139 14.4015 105.163 13.7238C106.768 13.748 108.372 13.7238 110.001 13.748V35.096C109.977 38.3151 109.163 41.7279 106.864 44.0757C104.349 46.6655 100.493 47.4642 97.0209 46.9318C93.309 46.3751 90.076 43.64 88.6391 40.1788C90.076 39.4769 91.5847 38.9202 93.0695 38.2667C93.9077 40.2514 95.608 41.9457 97.7394 42.333C99.8708 42.7202 102.337 42.1878 103.726 40.3967C105.211 38.5571 105.211 36.0399 105.139 33.7889C104.038 34.8781 102.769 35.8463 101.236 36.2093C97.907 37.1533 94.243 35.9915 91.6805 33.7163C89.0941 31.4411 87.5614 27.9315 87.7051 24.4462C87.7769 20.5009 89.9802 16.7009 93.309 14.6435V14.6435ZM98.2663 17.7416C96.8054 17.9837 95.4404 18.8066 94.5064 19.9442C92.2553 22.6551 92.2553 26.9876 94.5303 29.65C95.8235 31.2233 97.907 32.0947 99.9187 31.8768C101.811 31.6832 103.559 30.473 104.493 28.8029C106.073 25.971 105.81 22.1226 103.679 19.6538C102.361 18.1289 100.254 17.3786 98.2663 17.7416V17.7416Z" fill="#C1C1C1"/>
<path d="M124.943 15.8779C127.817 13.1671 132.247 12.2473 135.935 13.6753C139.432 15.0066 141.659 18.3709 142.784 21.8321C137.588 24.0105 132.415 26.1647 127.218 28.343C127.937 29.7227 129.038 30.9813 130.523 31.4896C132.606 32.2399 135.097 31.9737 136.845 30.5698C137.54 30.0373 138.091 29.3354 138.617 28.6577C139.935 29.5532 141.252 30.4246 142.569 31.3201C140.701 34.152 137.564 36.1368 134.187 36.4514C130.451 36.9113 126.476 35.459 124.057 32.5061C120.082 27.859 120.465 20.0652 124.943 15.8779V15.8779ZM127.506 20.3557C126.691 21.5417 126.356 22.9939 126.38 24.422C129.852 22.9697 133.325 21.5175 136.797 20.041C136.223 18.6856 134.834 17.8627 133.421 17.6448C131.146 17.2334 128.775 18.4678 127.506 20.3557V20.3557Z" fill="#C1C1C1"/>
</svg>
