<svg width="154" height="35" viewBox="0 0 154 35" fill="none" xmlns="http://www.w3.org/2000/svg">
<path d="M25.5475 34.1387L15.5165 33.9532C12.2686 33.8887 9.01275 34.0178 5.8287 33.3483C0.984784 32.3482 0.64164 27.4445 0.282536 23.3312C-0.212229 17.5484 -0.0207071 11.6608 0.912963 5.92632C1.43965 2.70827 3.51447 0.788725 6.72247 0.579027C17.5514 -0.179111 28.4523 -0.0903927 39.2573 0.264481C40.3984 0.296742 41.5476 0.474178 42.6728 0.675811C48.2269 1.65978 48.3626 7.21677 48.7217 11.8946C49.0808 16.6209 48.9292 21.3714 48.2429 26.0654C47.6922 29.9529 46.6389 33.2112 42.194 33.5258C36.6239 33.9371 31.1814 34.2678 25.5954 34.1629C25.5954 34.1387 25.5635 34.1387 25.5475 34.1387V34.1387ZM19.6502 24.2991C23.8477 21.8634 27.9655 19.468 32.1391 17.0484C27.9335 14.6127 23.8238 12.2173 19.6502 9.79767V24.2991Z" fill="#C1C1C1"/>
<path d="M129.18 29.719C128.988 30.5094 128.821 31.1305 128.653 31.7918H124.727V1.18372H129.308V12.4752C129.547 12.1688 129.667 12.0397 129.77 11.9026C130.553 10.8138 131.566 10.104 132.875 9.8298C134.958 9.41847 136.737 10.346 137.367 12.3704C137.774 13.6286 138.038 14.9755 138.07 16.2902C138.134 19.6696 138.086 23.0409 137.966 26.4203C137.918 27.4527 137.607 28.5092 137.216 29.4771C135.931 32.671 131.734 33.1549 129.651 30.3885C129.523 30.2191 129.403 30.0336 129.18 29.719V29.719ZM129.403 21.2988V26.8961C129.403 27.8075 129.882 28.364 130.784 28.5737C131.67 28.7834 132.388 28.4366 132.747 27.6059C132.899 27.2591 133.05 26.8961 133.058 26.5332C133.146 23.1135 133.226 19.6938 133.25 16.266C133.25 15.6288 133.098 14.9675 132.907 14.3464C132.548 13.2253 131.558 12.8946 130.584 13.5479C129.85 14.048 129.403 14.7578 129.403 15.7014V21.2988ZM116.954 10.2653H121.75V31.808H118.008C117.872 30.9934 117.737 30.1546 117.577 29.1706C117.322 29.5497 117.17 29.7916 117.01 30.0336C115.765 31.8483 114.002 32.4693 111.919 32.1386C110.139 31.8483 109.07 30.461 108.831 28.1866C108.759 27.5091 108.727 26.8236 108.727 26.1461C108.711 21.1052 108.727 16.0482 108.727 11.0074V10.2492H113.579V11.1283C113.579 15.9998 113.563 20.8632 113.595 25.7347C113.595 26.4284 113.667 27.1462 113.786 27.8398C113.922 28.5496 114.433 28.8076 115.119 28.7593C116.228 28.6705 116.994 27.8398 116.994 26.7268V11.2171C116.954 10.9025 116.954 10.6121 116.954 10.2653V10.2653ZM83.9329 10.2492H88.7529V11.1606C88.7529 16.0079 88.7369 20.8471 88.7688 25.6783C88.7688 26.3719 88.8327 27.0897 88.9763 27.7672C89.1598 28.5657 89.6227 28.8238 90.4127 28.7189C91.506 28.5657 92.1683 27.7995 92.1763 26.6784V11.2493V10.2815H96.9723V31.808H93.2456C93.11 31.0095 92.9743 30.1868 92.7988 29.1464C92.5594 29.5093 92.4237 29.719 92.288 29.9368C91.0431 31.7838 89.2955 32.4613 87.1648 32.1306C85.4571 31.8725 84.4117 30.5982 84.0925 28.5092C84.0047 27.8559 83.9409 27.2107 83.9409 26.5574C83.9249 21.323 83.9249 16.0643 83.9249 10.8299L83.9329 10.2492ZM81.4591 21.7504C81.4431 22.4763 81.3952 23.2022 81.3553 23.9281C81.1718 26.1057 81.084 29.1948 79.3443 30.7837C78.2351 31.7838 76.8306 32.1467 75.3782 32.1951C74.7319 32.2112 74.0775 32.2112 73.4311 32.1225C70.3747 31.6547 68.9543 30.2917 68.4436 26.8961C67.861 22.9764 67.8131 18.9921 68.5074 15.0723C69.2256 11.0154 71.6994 9.57978 75.5458 9.84594C79.1369 10.104 80.7409 12.4833 81.1638 15.8708C81.3952 17.8145 81.5069 19.7825 81.4591 21.7504V21.7504ZM76.5753 21.0084C76.5753 19.6292 76.6072 18.242 76.5593 16.8628C76.5274 16.0643 76.4236 15.2578 76.2561 14.4674C76.0645 13.556 75.49 13.1205 74.7718 13.1366C74.0695 13.1527 73.5748 13.5883 73.3194 14.4351C73.2316 14.7497 73.1358 15.0723 73.1358 15.3869C73.1358 17.5484 73.1199 19.718 73.1039 21.8795C73.088 23.8958 72.8326 26.009 73.463 27.9366C73.6546 28.5254 74.1493 28.848 74.7957 28.848C75.4261 28.848 75.8411 28.5334 76.0725 27.9688C76.2561 27.5333 76.4157 27.0575 76.4157 26.5897C76.4715 24.7346 76.5753 22.8715 76.5753 21.0084ZM61.4051 16.9515C61.8281 14.8626 62.2271 12.8221 62.666 10.7735C63.2166 8.16834 63.8311 5.56322 64.3737 2.95003C64.5094 2.31287 64.7647 2.15963 65.3632 2.17576C66.648 2.22415 67.9568 2.19189 69.3293 2.19189C68.8825 3.85336 68.4436 5.43417 68.0126 6.99079C66.648 11.8784 65.2835 16.7822 63.9348 21.6859C63.8311 22.065 63.7832 22.4763 63.7832 22.8796C63.7672 25.5573 63.7832 28.2269 63.7832 30.9046V31.7757H59.0989C59.0829 31.5337 59.051 31.2918 59.051 31.0498C59.051 29.5335 58.9313 28.0092 59.067 26.509C59.4101 22.9038 58.2769 19.5889 57.3592 16.2337C56.1463 11.7978 54.9173 7.34567 53.7044 2.90971C53.6405 2.70001 53.6166 2.47418 53.5527 2.21608H58.3328C59.3383 7.11177 60.3518 12.0075 61.4051 16.9515ZM153.056 22.5731H144.98C145.068 24.2104 145.1 25.767 145.268 27.3075C145.387 28.3802 145.97 28.8399 146.888 28.848C147.845 28.8641 148.404 28.3802 148.627 27.3155C148.699 26.9687 148.747 26.6219 148.779 26.2671C148.811 25.9525 148.827 25.6138 148.851 25.1621C150.215 25.2347 151.548 25.3153 152.865 25.3718C153.631 27.6704 152.25 30.6224 149.928 31.5337C148.101 32.2596 146.225 32.2596 144.358 31.7031C142.977 31.2918 141.948 30.4046 141.485 29.0415C141.054 27.7672 140.647 26.4364 140.56 25.1056C140.32 21.823 140.232 18.5082 140.727 15.2175C140.815 14.669 140.967 14.1448 141.134 13.6125C141.804 11.4187 143.265 10.0718 145.523 9.84594C146.752 9.72495 148.021 9.77335 149.234 9.98305C151.197 10.3299 152.242 11.7574 152.697 13.6286C152.905 14.5077 153.056 15.411 153.088 16.3063C153.096 18.363 153.056 20.4035 153.056 22.5731ZM148.468 19.7422C148.468 18.121 148.484 16.5967 148.452 15.0642C148.452 14.7013 148.316 14.3222 148.18 13.9754C147.909 13.2979 147.343 13.1124 146.664 13.1124C145.986 13.1124 145.555 13.4592 145.387 14.0803C144.877 15.9434 145.044 17.8468 145.06 19.7583C146.281 19.7422 147.39 19.7422 148.468 19.7422V19.7422Z" fill="#C1C1C1"/>
<path d="M100.675 6.14426H95.9268V2.25674H110.099V6.12007H105.383V31.7761H100.683L100.675 6.14426Z" fill="#C1C1C1"/>
</svg>
