<svg width="139" height="31" viewBox="0 0 139 31" fill="none" xmlns="http://www.w3.org/2000/svg">
<path d="M23.1527 30.9599L14.0558 30.7917C11.1103 30.7332 8.15759 30.8502 5.27002 30.2431C0.877145 29.3361 0.565953 24.889 0.240287 21.1588C-0.208409 15.9144 -0.0347203 10.575 0.812011 5.37449C1.28965 2.45609 3.17128 0.715283 6.08056 0.525111C15.9012 -0.162433 25.787 -0.0819758 35.5859 0.239853C36.6208 0.269111 37.6629 0.430025 38.6834 0.612883C43.7203 1.50523 43.8433 6.54478 44.169 10.7871C44.4947 15.0733 44.3572 19.3814 43.7348 23.6383C43.2354 27.1638 42.2802 30.1188 38.2491 30.404C33.1977 30.7771 28.262 31.0769 23.1961 30.9819C23.1961 30.9599 23.1672 30.9599 23.1527 30.9599V30.9599ZM17.8045 22.0365C21.6112 19.8275 25.3455 17.6552 29.1305 15.4609C25.3166 13.252 21.5895 11.0796 17.8045 8.88536V22.0365Z" fill="#C1C1C1"/>
<path d="M117.135 26.952C116.962 27.6688 116.81 28.232 116.658 28.8318H113.097V1.07373H117.251V11.3139C117.468 11.0359 117.577 10.9189 117.671 10.7945C118.38 9.80709 119.299 9.16343 120.486 8.91474C122.375 8.54171 123.989 9.38286 124.561 11.2188C124.93 12.3598 125.169 13.5813 125.197 14.7736C125.255 17.8383 125.212 20.8957 125.103 23.9604C125.06 24.8966 124.778 25.8548 124.423 26.7325C123.258 29.629 119.451 30.0679 117.562 27.5591C117.447 27.4055 117.338 27.2372 117.135 26.952V26.952ZM117.338 19.3158V24.392C117.338 25.2185 117.772 25.7232 118.59 25.9133C119.393 26.1035 120.045 25.789 120.37 25.0356C120.508 24.7211 120.645 24.392 120.653 24.0628C120.732 20.9615 120.805 17.8602 120.826 14.7516C120.826 14.1738 120.689 13.574 120.515 13.0108C120.189 11.9941 119.292 11.6942 118.409 12.2867C117.743 12.7402 117.338 13.3838 117.338 14.2396V19.3158ZM106.048 9.30971H110.398V28.8464H107.004C106.881 28.1077 106.758 27.347 106.613 26.4546C106.381 26.7984 106.244 27.0178 106.099 27.2372C104.97 28.883 103.371 29.4462 101.482 29.1463C99.8679 28.883 98.8982 27.6249 98.6811 25.5622C98.6159 24.9478 98.587 24.3261 98.587 23.7117C98.5725 19.1402 98.587 14.5541 98.587 9.98264V9.29509H102.987V10.0924C102.987 14.5102 102.973 18.9208 103.002 23.3387C103.002 23.9677 103.067 24.6187 103.175 25.2477C103.298 25.8914 103.761 26.1255 104.384 26.0816C105.39 26.0011 106.085 25.2477 106.085 24.2383V10.1728C106.048 9.88755 106.048 9.62423 106.048 9.30971V9.30971ZM76.1016 9.29509H80.4728V10.1216C80.4728 14.5175 80.4583 18.9062 80.4872 23.2875C80.4872 23.9165 80.5451 24.5675 80.6754 25.1819C80.8418 25.906 81.2616 26.1401 81.9781 26.045C82.9695 25.906 83.5702 25.2112 83.5774 24.1945V10.2021V9.32434H87.9269V28.8464H84.5472C84.4242 28.1223 84.3011 27.3762 84.1419 26.4327C83.9248 26.7618 83.8018 26.952 83.6788 27.1495C82.5498 28.8245 80.9649 29.4389 79.0326 29.139C77.4839 28.9049 76.5358 27.7492 76.2463 25.8548C76.1667 25.2624 76.1088 24.6772 76.1088 24.0847C76.0944 19.3377 76.0944 14.5687 76.0944 9.82172L76.1016 9.29509ZM73.8581 19.7254C73.8437 20.3837 73.8002 21.042 73.764 21.7003C73.5976 23.6751 73.518 26.4765 71.9403 27.9175C70.9344 28.8245 69.6607 29.1536 68.3435 29.1975C67.7573 29.2121 67.1639 29.2121 66.5777 29.1317C63.8059 28.7074 62.5177 27.4713 62.0546 24.392C61.5263 20.8372 61.4828 17.2239 62.1125 13.6691C62.7638 9.98995 65.0073 8.68799 68.4955 8.92937C71.7522 9.16343 73.2068 11.3212 73.5904 14.3932C73.8002 16.156 73.9015 17.9407 73.8581 19.7254V19.7254ZM69.4291 19.0525C69.4291 17.8017 69.458 16.5436 69.4146 15.2929C69.3857 14.5687 69.2916 13.8373 69.1396 13.1205C68.9659 12.294 68.4448 11.899 67.7935 11.9136C67.1567 11.9283 66.708 12.3232 66.4764 13.0912C66.3968 13.3765 66.3099 13.6691 66.3099 13.9543C66.3099 15.9146 66.2954 17.8822 66.281 19.8424C66.2665 21.671 66.0349 23.5874 66.6066 25.3355C66.7803 25.8695 67.229 26.162 67.8152 26.162C68.3869 26.162 68.7633 25.8768 68.9731 25.3648C69.1396 24.9698 69.2843 24.5382 69.2843 24.114C69.335 22.4317 69.4291 20.7421 69.4291 19.0525ZM55.6715 15.3733C56.0551 13.4789 56.4169 11.6284 56.815 9.77052C57.3143 7.40798 57.8716 5.04543 58.3637 2.67558C58.4867 2.09774 58.7183 1.95877 59.2611 1.9734C60.4262 2.01728 61.6131 1.98803 62.8579 1.98803C62.4526 3.49479 62.0546 4.9284 61.6638 6.34008C60.4262 10.7726 59.1887 15.2197 57.9656 19.6669C57.8716 20.0106 57.8281 20.3837 57.8281 20.7494C57.8137 23.1778 57.8281 25.5988 57.8281 28.0272V28.8171H53.58C53.5655 28.5977 53.5366 28.3783 53.5366 28.1589C53.5366 26.7838 53.428 25.4013 53.5511 24.0409C53.8623 20.7713 52.8346 17.7651 52.0023 14.7224C50.9023 10.6994 49.7878 6.66191 48.6878 2.63901C48.6299 2.44883 48.6082 2.24403 48.5503 2.00997H52.8853C53.7971 6.44979 54.7162 10.8896 55.6715 15.3733ZM138.789 20.4714H131.465C131.544 21.9563 131.573 23.3679 131.725 24.765C131.834 25.7378 132.362 26.1547 133.194 26.162C134.063 26.1767 134.569 25.7378 134.772 24.7723C134.837 24.4578 134.881 24.1433 134.91 23.8214C134.939 23.5362 134.953 23.229 134.975 22.8194C136.212 22.8852 137.421 22.9583 138.615 23.0095C139.31 25.0941 138.058 27.7712 135.952 28.5977C134.294 29.256 132.594 29.256 130.9 28.7513C129.648 28.3783 128.715 27.5737 128.295 26.3376C127.904 25.1819 127.535 23.975 127.455 22.7682C127.238 19.7912 127.159 16.785 127.607 13.8007C127.687 13.3034 127.825 12.8279 127.976 12.3452C128.584 10.3557 129.909 9.13417 131.957 8.92937C133.071 8.81965 134.222 8.86354 135.322 9.05371C137.102 9.36823 138.05 10.6629 138.463 12.3598C138.651 13.1571 138.789 13.9763 138.818 14.7882C138.825 16.6533 138.789 18.5039 138.789 20.4714ZM134.627 17.9041C134.627 16.4339 134.642 15.0515 134.613 13.6618C134.613 13.3326 134.49 12.9888 134.367 12.6743C134.121 12.0599 133.607 11.8917 132.992 11.8917C132.377 11.8917 131.986 12.2062 131.834 12.7694C131.371 14.459 131.523 16.1852 131.537 17.9187C132.644 17.9041 133.65 17.9041 134.627 17.9041V17.9041Z" fill="#C1C1C1"/>
<path d="M91.2845 5.57241H86.9785V2.04688H99.8314V5.55046H95.5543V28.8175H91.2918L91.2845 5.57241Z" fill="#C1C1C1"/>
</svg>
