<svg width="132" height="28" viewBox="0 0 132 28" fill="none" xmlns="http://www.w3.org/2000/svg">
<g clip-path="url(#clip0_4_309)">
<path d="M46.3286 16.1271L45.5463 18.3411H45.4811C45.3508 17.8419 45.1117 17.0822 44.7206 16.1705L40.5267 5.64341H36.4197V22.4217H39.1359V12.0682C39.1359 11.4171 39.1359 10.6791 39.1142 9.76744C39.0925 9.31163 39.049 8.96434 39.0273 8.70388H39.0925C39.2229 9.35504 39.375 9.83256 39.4836 10.1364L44.525 22.3783H46.4373L51.4352 10.0279C51.5438 9.74574 51.6525 9.1814 51.7611 8.70388H51.8263C51.7611 9.94109 51.7177 11.0481 51.696 11.7209V22.3566H54.5861V5.6H50.6312L46.3286 16.1271ZM57.3241 10.3318H60.149V22.3566H57.3241V10.3318ZM58.7582 5.25272C58.2802 5.25272 57.889 5.42636 57.5631 5.73023C57.2371 6.03411 57.0633 6.42481 57.0633 6.90233C57.0633 7.35814 57.2371 7.74884 57.5631 8.05272C57.889 8.35659 58.2802 8.50853 58.7582 8.50853C59.2363 8.50853 59.6492 8.33489 59.9534 8.05272C60.2794 7.74884 60.4532 7.35814 60.4532 6.90233C60.4532 6.44651 60.2794 6.05582 59.9534 5.73023C59.6709 5.42636 59.258 5.25272 58.7582 5.25272ZM70.1666 10.2233C69.645 10.1147 69.1018 10.0496 68.5803 10.0496C67.2982 10.0496 66.1248 10.3318 65.1469 10.8961C64.169 11.4605 63.3868 12.2419 62.887 13.2186C62.3654 14.2171 62.1047 15.3674 62.1047 16.6915C62.1047 17.8419 62.3654 18.862 62.8652 19.7954C63.365 20.707 64.0604 21.445 64.9948 21.9442C65.8857 22.4434 66.9288 22.7039 68.1022 22.7039C69.4495 22.7039 70.6012 22.4217 71.5138 21.9008L71.5356 21.8791V19.2744L71.4269 19.3612C71.014 19.6651 70.536 19.9256 70.0579 20.0775C69.5581 20.2512 69.1018 20.338 68.7107 20.338C67.5807 20.338 66.6897 20.0124 66.0596 19.2961C65.4077 18.6016 65.0817 17.6465 65.0817 16.4527C65.0817 15.2155 65.4077 14.2388 66.0813 13.5225C66.7549 12.8062 67.6459 12.4372 68.7324 12.4372C69.645 12.4372 70.5794 12.7411 71.4269 13.3488L71.5356 13.4357V10.6791L71.5138 10.6574C71.1444 10.5054 70.7315 10.3318 70.1666 10.2233ZM79.4888 10.1364C78.7934 10.1364 78.1415 10.3535 77.5765 10.8093C77.0985 11.2 76.7725 11.7643 76.49 12.4372H76.4683V10.3318H73.6434V22.3566H76.4683V16.214C76.4683 15.1721 76.6856 14.3039 77.1637 13.6744C77.6417 13.0233 78.2502 12.6977 78.989 12.6977C79.2498 12.6977 79.5105 12.7628 79.8365 12.8062C80.1407 12.893 80.358 12.9798 80.5101 13.0884L80.6188 13.1752V10.3535L80.5536 10.3318C80.358 10.2016 79.9669 10.1364 79.4888 10.1364ZM87.1813 10.0713C85.2038 10.0713 83.6175 10.6574 82.5093 11.8078C81.3793 12.9581 80.8361 14.5426 80.8361 16.5395C80.8361 18.4062 81.401 19.9256 82.4876 21.0326C83.5741 22.1178 85.0517 22.6822 86.8988 22.6822C88.8327 22.6822 90.3756 22.0961 91.4838 20.924C92.6138 19.7519 93.157 18.1892 93.157 16.2574C93.157 14.3473 92.6355 12.8279 91.5707 11.7209C90.5494 10.614 89.0501 10.0713 87.1813 10.0713ZM89.4412 19.3178C88.9197 19.9907 88.0939 20.3163 87.0726 20.3163C86.0513 20.3163 85.2255 19.9907 84.6388 19.2744C84.0521 18.6016 83.7696 17.6248 83.7696 16.3876C83.7696 15.107 84.0739 14.1302 84.6388 13.4357C85.2255 12.7411 86.0296 12.3938 87.0509 12.3938C88.0505 12.3938 88.8327 12.7194 89.3977 13.3922C89.9627 14.0651 90.2669 15.0419 90.2669 16.3225C90.2235 17.6248 89.9844 18.645 89.4412 19.3178ZM99.4588 15.324C98.5678 14.955 98.0029 14.6729 97.7421 14.4341C97.5248 14.2171 97.4161 13.9132 97.4161 13.5225C97.4161 13.1969 97.5465 12.8713 97.8725 12.6543C98.1984 12.4372 98.5678 12.3287 99.1111 12.3287C99.5892 12.3287 100.089 12.4155 100.567 12.5457C101.045 12.676 101.48 12.8713 101.827 13.1318L101.936 13.2186V10.5705L101.871 10.5488C101.545 10.4186 101.11 10.2884 100.589 10.1798C100.067 10.093 99.5892 10.0496 99.198 10.0496C97.8508 10.0496 96.7425 10.3752 95.8733 11.0915C95.0041 11.7643 94.5912 12.676 94.5912 13.7395C94.5912 14.3039 94.6782 14.8031 94.8737 15.2155C95.0693 15.6279 95.3518 16.0186 95.7429 16.3442C96.1341 16.6481 96.6991 16.9954 97.4813 17.3209C98.1332 17.6031 98.633 17.8202 98.9373 17.9938C99.2415 18.1674 99.437 18.3628 99.5892 18.5147C99.6978 18.6884 99.763 18.9054 99.763 19.1876C99.763 19.9907 99.1546 20.3814 97.9159 20.3814C97.4379 20.3814 96.9381 20.2946 96.3514 20.0992C95.7647 19.9039 95.2214 19.6217 94.7651 19.2961L94.6564 19.2093V21.9659L94.7216 21.9876C95.1345 22.1829 95.6343 22.3132 96.2427 22.4651C96.8512 22.5736 97.3944 22.6605 97.8725 22.6605C99.3284 22.6605 100.524 22.3349 101.371 21.6186C102.24 20.924 102.697 20.0341 102.697 18.8837C102.697 18.0806 102.479 17.3643 102.001 16.8217C101.371 16.3008 100.589 15.7581 99.4588 15.324ZM110.15 10.0713C108.173 10.0713 106.586 10.6574 105.478 11.8078C104.37 12.9581 103.805 14.5426 103.805 16.5395C103.805 18.4062 104.37 19.9256 105.456 21.0326C106.543 22.1178 108.02 22.6822 109.868 22.6822C111.801 22.6822 113.344 22.0961 114.453 20.924C115.583 19.7519 116.126 18.1892 116.126 16.2574C116.126 14.3473 115.604 12.8279 114.539 11.7209C113.518 10.614 112.019 10.0713 110.15 10.0713ZM112.388 19.3178C111.867 19.9907 111.041 20.3163 110.02 20.3163C108.977 20.3163 108.173 19.9907 107.586 19.2744C106.999 18.6016 106.717 17.6248 106.717 16.3876C106.717 15.107 107.021 14.1302 107.586 13.4357C108.173 12.7411 108.977 12.3938 109.998 12.3938C110.976 12.3938 111.78 12.7194 112.345 13.3922C112.91 14.0651 113.214 15.0419 113.214 16.3225C113.214 17.6248 112.931 18.645 112.388 19.3178ZM131.228 12.6543V10.3318H128.382V6.7721L128.295 6.7938L125.6 7.5969L125.535 7.61861V10.3318H121.276V8.8124C121.276 8.11783 121.45 7.5752 121.754 7.22791C122.058 6.88062 122.514 6.70698 123.079 6.70698C123.471 6.70698 123.883 6.7938 124.34 6.98915L124.448 7.05427V4.60155L124.383 4.57985C123.992 4.44961 123.471 4.36279 122.797 4.36279C121.949 4.36279 121.211 4.55814 120.537 4.88372C119.863 5.25272 119.364 5.75194 118.994 6.42481C118.625 7.07597 118.429 7.81396 118.429 8.66047V10.3318H116.452V12.6326H118.429V22.3566H121.276V12.6543H125.535V18.8403C125.535 21.3798 126.73 22.6605 129.12 22.6605C129.512 22.6605 129.924 22.5954 130.316 22.5302C130.728 22.4434 131.033 22.3349 131.206 22.2481L131.228 22.2264V19.9039L131.12 19.9907C130.946 20.0992 130.794 20.186 130.533 20.2512C130.316 20.3163 130.12 20.338 129.968 20.338C129.403 20.338 129.012 20.2078 128.729 19.8822C128.469 19.5783 128.338 19.0791 128.338 18.3411V12.6543H131.228Z" fill="#737373"/>
<path d="M0 0H13.3206V13.3054H0V0Z" fill="#F25022"/>
<path d="M14.7112 0H28.0318V13.3054H14.7112V0Z" fill="#7FBA00"/>
<path d="M0 14.6946H13.3206V28H0V14.6946Z" fill="#00A4EF"/>
<path d="M14.7112 14.6946H28.0318V28H14.7112V14.6946Z" fill="#FFB900"/>
</g>
<defs>
<clipPath id="clip0_4_309">
<rect width="131.25" height="28" fill="white"/>
</clipPath>
</defs>
</svg>
