<svg width="250" height="366" viewBox="0 0 250 366" fill="none" xmlns="http://www.w3.org/2000/svg">
<path d="M0 16.7813C0 7.9447 7.16345 0.78125 16 0.78125H234C242.837 0.78125 250 7.94469 250 16.7812V349.625C250 358.462 242.837 365.625 234 365.625H16C7.16345 365.625 0 358.462 0 349.625V16.7813Z" fill="white"/>
<path d="M183.283 0.430481V67.0359H248.609L183.283 0.430481Z" fill="#FF0000"/>
<path d="M68.6031 185.738C68.6031 178.583 63.9891 174.955 54.8898 174.955C52.768 174.955 51.0078 175.045 49.6445 175.173V197.67C50.8328 197.787 52.2094 197.845 53.7898 197.845C60.5477 197.844 68.6031 195.744 68.6031 185.738Z" fill="#FF0000"/>
<path d="M144.708 199.865C144.809 183.809 134.095 174.954 118.457 174.954C115.341 174.954 112.887 175.133 111.012 175.366V227.495C113.001 227.623 115.195 227.643 116.916 227.643C135.098 227.644 144.708 218.038 144.708 199.865Z" fill="#FF0000"/>
<path d="M249.829 90.9273H170.399C164.359 90.9273 159.462 86.0305 159.462 79.9898V0H11.1086C5.06796 0 0.171082 4.89688 0.171082 10.9375V354.688C0.171082 360.728 5.06796 365.625 11.1086 365.625H238.891C244.931 365.625 249.828 360.728 249.828 354.688V90.9273H249.829ZM93.8976 161.839C101.903 160.627 109.909 159.766 118.017 159.766C142.652 159.766 162.263 173.354 162.263 199.533C162.263 227.542 141.864 242.944 115.048 242.944C107.959 242.944 100.936 242.457 93.8984 241.654V161.839H93.8976ZM32.5305 161.78C39.8773 160.551 47.2094 159.766 54.6703 159.766C70.5586 159.766 85.718 167.659 85.718 185.295C85.718 205.205 67.543 214.17 49.6445 213.041V242.281H32.5305V161.78ZM165.006 295.95H31.9765V268.934H165.007V295.95H165.006ZM187.116 242.281H170.002V160.317H217.47V175.947H187.116V193.098H215.161V208.617H187.116V242.281ZM218.023 295.95H190.145V268.934H218.023V295.95Z" fill="#FF0000"/>
</svg>
