<svg width="176" height="32" viewBox="0 0 176 32" fill="none" xmlns="http://www.w3.org/2000/svg">
<path fill-rule="evenodd" clip-rule="evenodd" d="M47.0249 1.30246L32.0199 30.6709H17.9259L24.2055 18.4993H23.9238C18.7432 25.2325 11.0135 29.665 0 30.6709V18.6678C0 18.6678 7.04562 18.2511 11.1875 13.8913H0V1.30269H12.5736V11.6567L12.8558 11.6555L17.9939 1.30269H27.5029V11.591L27.785 11.5905L33.1159 1.30246H47.0249Z" fill="#C1C1C1"/>
<path d="M128.849 27.4293H132.899V4.15771H128.849V27.4293Z" fill="#C1C1C1"/>
<path fill-rule="evenodd" clip-rule="evenodd" d="M106.525 27.1916C107.405 27.5579 108.3 27.7411 109.21 27.7411C110.713 27.7411 112.058 27.3748 113.245 26.6421C114.431 25.9095 115.351 24.8997 116.004 23.6126C116.657 22.3156 116.983 20.8453 116.983 19.2018C116.983 17.5583 116.647 16.0881 115.974 14.7911C115.302 13.4941 114.367 12.4892 113.171 11.7763C111.974 11.0536 110.614 10.6972 109.091 10.7071C108.122 10.7071 107.193 10.8952 106.303 11.2714C105.413 11.6476 104.671 12.1823 104.078 12.8753C104.032 12.9281 103.988 12.9814 103.944 13.0352V4.17264H99.8801V27.4293H103.915L103.907 25.2567C104.011 25.3848 104.123 25.5099 104.241 25.6323C104.884 26.2957 105.645 26.8154 106.525 27.1916ZM110.679 23.4344C110.016 23.8403 109.26 24.0433 108.409 24.0433C107.569 24.0433 106.797 23.8353 106.095 23.4196C105.393 22.9937 104.834 22.4147 104.419 21.6819C104.014 20.9494 103.811 20.1176 103.811 19.1869C103.801 18.2563 103.999 17.4247 104.404 16.692C104.82 15.9495 105.378 15.3752 106.08 14.9693C106.782 14.5535 107.559 14.3505 108.409 14.3604C109.26 14.3505 110.016 14.5485 110.679 14.9545C111.351 15.3505 111.865 15.9198 112.221 16.6623C112.587 17.395 112.77 18.2365 112.77 19.1869C112.77 20.1375 112.587 20.979 112.221 21.7116C111.865 22.4444 111.351 23.0185 110.679 23.4344Z" fill="#C1C1C1"/>
<path d="M52.8914 5.56866H57.5193L61.6593 20.7058L66.0633 5.56866H69.92L74.6963 20.402L78.6716 5.56866H82.9139L76.6543 27.4294H72.6641L67.8072 12.9383L63.3489 27.4294H59.3142L52.8914 5.56866Z" fill="#C1C1C1"/>
<path fill-rule="evenodd" clip-rule="evenodd" d="M89.7485 27.8154C88.1365 27.8253 86.6829 27.4688 85.3875 26.7462C84.1019 26.0135 83.0884 24.9986 82.3466 23.7017C81.6149 22.4047 81.249 20.9246 81.249 19.2612C81.249 17.6474 81.6248 16.1871 82.3764 14.8802C83.1278 13.5733 84.1463 12.5536 85.432 11.8209C86.7176 11.0883 88.1513 10.722 89.7335 10.722C91.5136 10.722 93.071 11.118 94.406 11.91C95.7509 12.7021 96.7546 13.8258 97.4172 15.2812C98.0896 16.7267 98.3319 18.385 98.144 20.2563H85.4383C85.4738 21.0018 85.6596 21.68 85.9956 22.2909C86.3714 22.9641 86.8955 23.4888 87.5679 23.865C88.2405 24.2413 88.9919 24.4294 89.8227 24.4294C90.4555 24.4194 91.0439 24.3106 91.5877 24.1027C92.1317 23.8849 92.5914 23.5929 92.9672 23.2264C93.3529 22.8601 93.6249 22.4444 93.7832 21.9791H98.0254C97.7683 23.1176 97.2541 24.1324 96.4828 25.0234C95.7113 25.9046 94.7424 26.5927 93.5754 27.0877C92.4086 27.5827 91.1329 27.8253 89.7485 27.8154ZM86.0105 16.1723C85.7735 16.586 85.6093 17.0315 85.5178 17.5089H93.9403C93.8791 16.9058 93.6932 16.3564 93.3826 15.8604C93.0265 15.2762 92.542 14.8258 91.929 14.5089C91.3159 14.1822 90.6236 14.0189 89.8523 14.0189C89.0315 14.0189 88.285 14.207 87.6124 14.5832C86.94 14.9594 86.406 15.4891 86.0105 16.1723Z" fill="#C1C1C1"/>
<path d="M119.963 11.0635C119.963 9.73683 120.265 8.55865 120.868 7.52897C121.471 6.48941 122.317 5.6825 123.404 5.10826C124.502 4.52413 125.783 4.22215 127.246 4.20236V7.81114C126.564 7.82104 125.98 7.9646 125.496 8.24183C125.021 8.50914 124.655 8.90022 124.398 9.41504C124.162 9.88902 124.034 10.4385 124.015 11.0635H127.157V14.4941H124.013V27.4293H119.963V14.4941H117.353V11.0635H119.963Z" fill="#C1C1C1"/>
<path fill-rule="evenodd" clip-rule="evenodd" d="M143.192 27.7856C141.541 27.7856 140.062 27.4242 138.757 26.7016C137.461 25.9689 136.443 24.9591 135.701 23.6719C134.969 22.375 134.604 20.9048 134.604 19.2611C134.604 17.6078 134.969 16.1326 135.701 14.8356C136.443 13.5287 137.461 12.5139 138.757 11.7912C140.062 11.0684 141.541 10.707 143.192 10.707C144.853 10.707 146.337 11.0684 147.642 11.7912C148.957 12.5139 149.981 13.5238 150.712 14.8208C151.444 16.1177 151.815 17.5979 151.825 19.2611C151.815 20.9048 151.444 22.375 150.712 23.6719C149.99 24.9591 148.972 25.9689 147.657 26.7016C146.342 27.4242 144.853 27.7856 143.192 27.7856ZM143.192 24.0581C144.062 24.0581 144.834 23.8601 145.506 23.4641C146.178 23.0581 146.697 22.4938 147.063 21.771C147.429 21.0384 147.612 20.2017 147.612 19.2611C147.612 18.3107 147.429 17.4692 147.063 16.7365C146.697 16.0039 146.178 15.4396 145.506 15.0435C144.834 14.6376 144.062 14.4346 143.192 14.4346C142.332 14.4346 141.565 14.6376 140.893 15.0435C140.23 15.4396 139.716 16.0039 139.35 16.7365C138.984 17.4692 138.806 18.3107 138.816 19.2611C138.816 20.2017 138.999 21.0384 139.365 21.771C139.741 22.4938 140.255 23.0581 140.908 23.4641C141.57 23.8601 142.332 24.0581 143.192 24.0581Z" fill="#C1C1C1"/>
<path d="M156.202 11.0635H151.692L156.572 27.4293H160.518L163.728 16.9764L167.192 27.4293H171.079L175.975 11.0635H171.896L169.119 21.2502L166.05 11.0635H162.105L159.052 21.4745L156.202 11.0635Z" fill="#C1C1C1"/>
</svg>
