<svg width="47" height="47" viewBox="0 0 47 47" fill="none" xmlns="http://www.w3.org/2000/svg">
<g clip-path="url(#clip0_4_30)">
<path d="M23.1406 0.108398H23.0787C10.3706 0.108398 0.0686035 10.4103 0.0686035 23.1184C0.0686035 35.8265 10.3706 46.1285 23.0787 46.1285H23.1406C35.8487 46.1285 46.1507 35.8265 46.1507 23.1184C46.1507 10.4103 35.8487 0.108398 23.1406 0.108398Z" fill="#FB6D40"/>
<path d="M42.1781 39.781C43.9333 39.781 45.3562 38.3601 45.3562 36.6072C45.3562 34.8544 43.9333 33.4334 42.1781 33.4334C40.4229 33.4334 39 34.8544 39 36.6072C39 38.3601 40.4229 39.781 42.1781 39.781Z" fill="#00B94A" stroke="white" stroke-width="0.793451"/>
<path d="M28.1216 17.0156C28.0023 15.8991 27.4995 15.0298 26.6131 14.4077C25.7353 13.7855 24.5932 13.4744 23.187 13.4744C22.1983 13.4744 21.3503 13.6236 20.6429 13.9219C19.9355 14.2202 19.3944 14.625 19.0194 15.1364C18.6444 15.6477 18.4526 16.2315 18.4441 16.8878C18.4441 17.4332 18.5676 17.9062 18.8148 18.3068C19.0705 18.7074 19.4157 19.0483 19.8503 19.3295C20.285 19.6023 20.7665 19.8324 21.2949 20.0199C21.8233 20.2074 22.356 20.3651 22.8929 20.4929L25.3475 21.1065C26.3361 21.3366 27.2864 21.6477 28.1983 22.0398C29.1188 22.4318 29.9412 22.9261 30.6657 23.5227C31.3986 24.1193 31.9782 24.8395 32.4043 25.6832C32.8304 26.527 33.0435 27.5156 33.0435 28.6491C33.0435 30.1832 32.6515 31.5341 31.8674 32.7017C31.0833 33.8608 29.9498 34.7685 28.4668 35.4247C26.9924 36.0724 25.2069 36.3963 23.1103 36.3963C21.0733 36.3963 19.3049 36.081 17.8049 35.4503C16.3134 34.8196 15.1458 33.8991 14.302 32.6889C13.4668 31.4787 13.0151 30.0043 12.9469 28.2656H17.6131C17.6813 29.1776 17.9625 29.9361 18.4569 30.5412C18.9512 31.1463 19.5946 31.598 20.3873 31.8963C21.1884 32.1946 22.0833 32.3438 23.0719 32.3438C24.1032 32.3438 25.0066 32.1903 25.7821 31.8835C26.5662 31.5682 27.1799 31.1335 27.623 30.5795C28.0662 30.017 28.2921 29.3608 28.3006 28.6108C28.2921 27.929 28.0918 27.3665 27.6998 26.9233C27.3077 26.4716 26.758 26.0966 26.0506 25.7983C25.3517 25.4915 24.5336 25.2187 23.5961 24.9801L20.6174 24.2131C18.4611 23.6591 16.7566 22.8196 15.5037 21.6946C14.2594 20.5611 13.6373 19.0568 13.6373 17.1818C13.6373 15.6392 14.0549 14.2884 14.8901 13.1293C15.7338 11.9702 16.8801 11.071 18.329 10.4318C19.7779 9.78409 21.4185 9.46023 23.2509 9.46023C25.1088 9.46023 26.7367 9.78409 28.1344 10.4318C29.5407 11.071 30.6444 11.9616 31.4455 13.1037C32.2466 14.2372 32.66 15.5412 32.6855 17.0156H28.1216Z" fill="white"/>
</g>
<defs>
<clipPath id="clip0_4_30">
<rect width="47" height="47" fill="white"/>
</clipPath>
</defs>
</svg>
